<?xml version="1.0" encoding="iso-8859-1"?>
<!-- Uploaded to: SVG Repo, www.svgrepo.com, Generator: SVG Repo Mixer Tools -->
<svg fill="#000000" height="800px" width="800px" version="1.1" id="Layer_1" xmlns="http://www.w3.org/2000/svg" xmlns:xlink="http://www.w3.org/1999/xlink" 
	 viewBox="0 0 512 512" xml:space="preserve">
<g>
	<g>
		<path d="M494.297,363.555c-0.327-3.24-2.41-6.029-5.411-7.265c-29.687-12.253-60.734-22.122-92.46-29.643
			c-4.025-56.223-27.03-106.452-62.799-137.304l72.995-72.995c3.452-3.443,3.452-9.031,0-12.482l-24.964-24.973
			c-3.31-3.31-9.172-3.31-12.482,0l-76.438,76.438c-0.909-2.648-1.421-5.42-1.421-8.271v-15.351
			c0.115-0.071,0.212-0.159,0.327-0.221c2.445-1.439,4.785-3.019,7.036-4.732c0.185-0.141,0.38-0.274,0.565-0.424
			c4.776-3.708,9.039-8.015,12.729-12.809c0.009-0.018,0.026-0.035,0.035-0.053c5.429-7.08,9.543-15.192,11.988-24.02
			c0.106-0.38,0.194-0.759,0.291-1.139c0.609-2.348,1.103-4.74,1.465-7.177c0.097-0.627,0.212-1.245,0.291-1.88
			c0.344-2.834,0.583-5.703,0.583-8.633C326.626,31.682,294.943,0,256.005,0s-70.621,31.682-70.621,70.621
			c0,2.931,0.229,5.8,0.583,8.633c0.079,0.636,0.194,1.253,0.283,1.88c0.371,2.436,0.856,4.829,1.465,7.177
			c0.097,0.38,0.185,0.759,0.291,1.139c2.454,8.828,6.559,16.94,11.997,24.02c0.009,0.018,0.018,0.035,0.035,0.053
			c3.681,4.793,7.954,9.101,12.729,12.809c0.185,0.15,0.371,0.282,0.565,0.424c2.242,1.713,4.582,3.293,7.027,4.732
			c0.115,0.062,0.221,0.15,0.335,0.221v15.351c0,10.072-5.959,19.341-15.536,24.179c-49.364,24.929-83.968,84.798-89.45,153.644
			c-32.918,7.83-64.185,18.317-92.919,31.55c-2.887,1.333-4.838,4.122-5.102,7.3c-0.265,3.169,1.209,6.241,3.84,8.024l35.31,23.967
			c2.277,1.536,5.129,1.924,7.742,1.068c17.32-5.738,34.083-10.761,50.432-15.086c1.236,49.496,10.726,93.793,27.233,125.537
			c1.51,2.922,4.537,4.758,7.83,4.758h44.138c3.063,0,5.906-1.589,7.512-4.202c1.607-2.604,1.748-5.861,0.371-8.598
			c-10.417-20.683-16.013-49.593-16.649-86.016c45.444-9.287,96.088-9.278,141.118-0.018c-0.636,36.44-6.232,65.351-16.649,86.034
			c-1.386,2.737-1.245,5.994,0.362,8.598c1.607,2.613,4.458,4.202,7.521,4.202h44.138c3.293,0,6.312-1.836,7.83-4.758
			c16.508-31.744,25.997-76.058,27.233-125.59c16.349,4.334,33.112,9.375,50.423,15.139c0.909,0.3,1.854,0.45,2.79,0.45
			c1.748,0,3.478-0.521,4.952-1.518l35.31-23.967C493.158,369.938,494.632,366.777,494.297,363.555z M321.117,201.86
			c31.638,26.712,52.506,70.612,57.3,120.435c-36.537-7.601-74.108-11.723-111.448-12.703c-1.121-0.035-2.242-0.062-3.363-0.088
			c-4.334-0.088-8.678-0.336-13.003-0.336c-12.721,0-25.406,0.397-37.985,1.183L321.117,201.86z M213.121,187.004
			c15.563-7.874,25.229-23.172,25.229-39.945v-8.139c5.65,1.457,11.546,2.322,17.655,2.322c6.1,0,11.997-0.865,17.655-2.322v8.139
			c0,7.556,2.013,14.989,5.764,21.583L134.608,313.459C142.509,256.15,172.169,207.678,213.121,187.004z M356.472,494.345h-25.22
			c8.651-23.066,13.03-52.674,13.03-88.276c0-4.114-2.842-7.68-6.85-8.607c-51.491-11.847-110.839-11.838-162.834,0
			c-4.017,0.909-6.868,4.484-6.868,8.607c0,35.602,4.37,65.209,13.021,88.276h-25.212c-14.239-29.881-22.343-70.903-23.067-116.798
			c3.266-0.847,6.541-1.651,9.816-2.419c9.092-2.013,18.044-3.752,26.924-5.288c1.554-0.274,3.09-0.494,4.635-0.75
			c7.327-1.218,14.592-2.269,21.822-3.16c1.986-0.247,3.972-0.477,5.95-0.697c7.08-0.794,14.115-1.43,21.124-1.916
			c1.686-0.115,3.372-0.256,5.049-0.353c35.752-2.11,70.974-0.256,107.617,5.623c0.124,0.018,0.256,0.035,0.388,0.062
			c9.251,1.492,18.6,3.231,28.072,5.226c5.235,1.165,10.461,2.383,15.669,3.69C378.806,423.468,370.702,464.481,356.472,494.345z"/>
	</g>
</g>
</svg>