<?xml version="1.0" encoding="iso-8859-1"?>
<!-- Uploaded to: SVG Repo, www.svgrepo.com, Generator: SVG Repo Mixer Tools -->
<svg fill="#000000" height="800px" width="800px" version="1.1" id="Layer_1" xmlns="http://www.w3.org/2000/svg" xmlns:xlink="http://www.w3.org/1999/xlink" 
	 viewBox="0 0 512 512" xml:space="preserve">
<g>
	<g>
		<g>
			<path d="M319.654,17.507C317.806,7.368,308.973,0,298.667,0C134.431,0,0,113.752,0,256s134.431,256,298.667,256
				c10.306,0,19.139-7.368,20.987-17.507l2.155-11.819c26.024-153.137,26.035-306.534,0.018-453.247L319.654,17.507z
				 M280.869,468.826C147.171,461.179,42.667,368.032,42.667,256c0-112.045,104.529-205.201,238.249-212.829
				C304.607,180.972,304.596,325.019,280.869,468.826z"/>
			<path d="M490.667,277.333c11.782,0,21.333-9.551,21.333-21.333c0-11.782-9.551-21.333-21.333-21.333h-33.852
				c8.351-29.348,12.82-57.876,13.962-85.333h19.89c11.782,0,21.333-9.551,21.333-21.333c0-11.782-9.551-21.333-21.333-21.333
				h-20.78c-1.378-16.328-3.922-32.191-7.501-47.528c-2.678-11.474-14.15-18.604-25.624-15.926s-18.604,14.15-15.926,25.624
				c2.852,12.22,4.942,24.845,6.198,37.831H384c-11.782,0-21.333,9.551-21.333,21.333c0,11.782,9.551,21.333,21.333,21.333h44.058
				c-1.295,27.249-6.327,55.787-15.823,85.333H384c-11.782,0-21.333,9.551-21.333,21.333c0,11.782,9.551,21.333,21.333,21.333
				h14.117c-8.359,29.348-12.832,57.877-13.979,85.333H384c-11.782,0-21.333,9.551-21.333,21.333
				c0,11.782,9.551,21.333,21.333,21.333h1.025c1.377,16.329,3.922,32.192,7.502,47.526c2.679,11.473,14.152,18.603,25.625,15.924
				c11.473-2.679,18.603-14.152,15.924-25.625c-2.853-12.216-4.943-24.839-6.198-37.824h62.789c11.782,0,21.333-9.551,21.333-21.333
				c0-11.782-9.551-21.333-21.333-21.333h-63.809c1.299-27.247,6.337-55.787,15.843-85.333H490.667z"/>
		</g>
	</g>
</g>
</svg>