<?xml version="1.0" encoding="iso-8859-1"?>
<!-- Uploaded to: SVG Repo, www.svgrepo.com, Generator: SVG Repo Mixer Tools -->
<svg fill="#000000" height="800px" width="800px" version="1.1" id="Layer_1" xmlns="http://www.w3.org/2000/svg" xmlns:xlink="http://www.w3.org/1999/xlink" 
	 viewBox="0 0 512.001 512.001" xml:space="preserve">
<g>
	<g>
		<g>
			<path d="M366.933,34.133H145.066c-3.558,0-6.741,2.21-7.987,5.53l-25.6,68.267c-0.981,2.628-0.623,5.564,0.973,7.859
				c1.596,2.304,4.215,3.678,7.014,3.678h273.067c2.799,0,5.419-1.374,7.014-3.678c1.596-2.295,1.954-5.231,0.981-7.859
				l-25.6-68.267C373.674,36.343,370.491,34.133,366.933,34.133z M131.78,102.4l19.2-51.2h210.039l19.2,51.2H131.78z"/>
			<path d="M163.771,431.6c-3.533-3.294-5.521-7.919-5.47-12.672c0.051-4.25,1.749-8.09,4.796-10.803
				c11.204-9.984,27.255-16.077,27.418-16.136c3.857-1.451,6.144-5.453,5.402-9.515c-0.734-4.053-4.267-7.006-8.388-7.006h-47.334
				c-20.958,0-40.789,6.451-55.834,18.167c-16.205,12.621-19.174,24.849-18.816,32.87c0.538,12.143,8.439,23.228,23.492,32.93
				c7.68,4.958,12.1,10.709,13.133,17.084c1.775,11.008-6.511,21.453-6.571,21.53c-2.091,2.551-2.534,6.084-1.126,9.071
				c1.417,2.978,4.42,4.881,7.723,4.881h76.8c2.014,0,3.968-0.717,5.504-2.014c7.467-6.306,11.529-14.447,11.759-23.543
				C196.753,466.629,178.867,445.68,163.771,431.6z"/>
			<path d="M394.171,431.6c-3.533-3.294-5.521-7.919-5.47-12.672c0.051-4.25,1.749-8.09,4.796-10.803
				c11.204-9.984,27.255-16.077,27.418-16.136c3.857-1.451,6.144-5.453,5.402-9.515c-0.734-4.053-4.267-7.006-8.388-7.006h-47.334
				c-20.958,0-40.789,6.451-55.834,18.167c-16.205,12.621-19.174,24.849-18.816,32.87c0.538,12.143,8.439,23.228,23.492,32.93
				c7.68,4.958,12.1,10.709,13.133,17.084c1.775,11.008-6.511,21.453-6.571,21.53c-2.091,2.551-2.534,6.084-1.126,9.071
				c1.417,2.978,4.42,4.881,7.723,4.881h76.8c2.014,0,3.968-0.717,5.504-2.014c7.467-6.306,11.529-14.447,11.759-23.543
				C427.153,466.629,409.267,445.68,394.171,431.6z"/>
			<path d="M473.242,68.267h-45.261L400.35,5.12C398.994,2.005,395.922,0,392.534,0H119.467c-3.388,0-6.46,2.005-7.817,5.12
				L84.02,68.267H38.759C17.383,68.267,0,85.649,0,107.017V128c0,4.719,3.823,8.533,8.533,8.533h45.619l-1.143,2.62
				c-0.316,0.307-0.734,0.478-0.998,0.836c-8.431,11.383-14.037,24.687-16.768,39.211H102.4c3.234,0,6.187,1.826,7.637,4.719
				l25.6,51.2c1.314,2.637,1.178,5.777-0.375,8.294c-1.562,2.517-4.301,4.053-7.262,4.053h-86.46l9.054,36.198
				c0.947,3.806,4.361,6.468,8.277,6.468h26.462V332.8c0,14.114,11.486,25.6,25.6,25.6H179.2c14.114,0,25.6-11.486,25.6-25.6
				v-42.667h110.933V332.8c0,14.114,11.486,25.6,25.6,25.6H409.6c14.114,0,25.6-11.486,25.6-25.6v-42.667h16.205
				c3.917,0,7.33-2.662,8.277-6.468l9.054-36.198H384c-2.961,0-5.7-1.536-7.262-4.053c-1.553-2.517-1.69-5.658-0.375-8.294
				l25.6-51.2c1.451-2.893,4.403-4.719,7.637-4.719h66.313c-2.586-12.629-7.799-24.687-15.249-35.61
				c-0.12-0.657-0.307-1.314-0.58-1.937l-2.236-5.12h45.619c4.71,0,8.533-3.814,8.533-8.533v-20.983
				C512,85.649,494.618,68.267,473.242,68.267z M187.734,332.8c0,4.71-3.831,8.533-8.533,8.533h-68.267
				c-4.702,0-8.533-3.823-8.533-8.533v-42.667h85.333V332.8z M418.134,290.133V332.8c0,4.71-3.831,8.533-8.533,8.533h-68.267
				c-4.702,0-8.533-3.823-8.533-8.533v-42.667H418.134z M72.781,136.533l52.267-119.467h261.905l52.267,119.467H72.781z"/>
			<path d="M414.876,196.267L397.809,230.4h75.196l1.929-7.731c2.193-8.755,3.004-17.621,2.782-26.402H414.876z"/>
			<path d="M97.125,196.267H33.449c-0.265,8.542,0.282,17.357,1.894,26.394l1.937,7.74h76.911L97.125,196.267z"/>
		</g>
	</g>
</g>
</svg>