<?xml version="1.0" encoding="iso-8859-1"?>
<!-- Uploaded to: SVG Repo, www.svgrepo.com, Generator: SVG Repo Mixer Tools -->
<svg height="800px" width="800px" version="1.1" id="Layer_1" xmlns="http://www.w3.org/2000/svg" xmlns:xlink="http://www.w3.org/1999/xlink" 
	 viewBox="0 0 512.853 512.853" xml:space="preserve">
<g transform="translate(1 1)">
	<path style="fill:#FCC309;" d="M442.733,332.227c0,23.893-18.773,42.667-42.667,42.667c-23.893,0-42.667-18.773-42.667-42.667
		c0-23.893,18.773-42.667,42.667-42.667C423.96,289.56,442.733,308.333,442.733,332.227"/>
	<path style="fill:#FFDD09;" d="M470.893,204.227c-23.04-1.707-45.227-11.947-57.173-32.427l-2.56-4.267
		c-11.947-19.627-34.133-32.427-57.173-32.427H242.2c-18.773,0-37.547,8.533-50.347,22.187l-11.947,13.653
		c-23.893,26.453-55.467,43.52-91.307,47.787l-52.053,6.827C19.48,227.267,6.68,242.627,6.68,259.693v38.4
		c0,18.773,15.36,34.133,34.133,34.133H83.48c0-23.893,18.773-42.667,42.667-42.667s42.667,18.773,42.667,42.667h187.733
		c0-23.893,18.773-42.667,42.667-42.667c23.893,0,42.667,18.773,42.667,42.667h25.6c18.773,0,34.133-15.36,34.133-34.133V238.36
		C502.467,220.44,487.96,205.08,470.893,204.227"/>
	<path style="fill:#FFFFFF;" d="M37.4,226.413C20.333,228.12,7.533,243.48,7.533,260.547v37.547
		c0,18.773,15.36,34.133,34.133,34.133h25.6c-18.773,0-34.133-15.36-34.133-34.133v-38.4c0-17.067,12.8-31.573,29.867-34.133H37.4
		V226.413z"/>
	<path style="fill:#FD9808;" d="M470.893,204.227c-23.04-1.707-45.227-11.947-57.173-32.427l-2.56-4.267
		c-11.947-19.627-34.133-32.427-57.173-32.427h-25.6c23.04,0,45.227,11.947,57.173,32.427l2.56,4.267
		c11.947,19.627,34.133,30.72,57.173,32.427c17.92,0.853,31.573,16.213,31.573,34.133v59.733c0,18.773-15.36,34.133-34.133,34.133
		h25.6c18.773,0,34.133-15.36,34.133-34.133V238.36C502.467,220.44,487.96,205.08,470.893,204.227"/>
	<path style="fill:#FCC309;" d="M169.667,332.227c0,23.893-18.773,42.667-42.667,42.667s-42.667-18.773-42.667-42.667
		c0-23.893,18.773-42.667,42.667-42.667S169.667,308.333,169.667,332.227"/>
	<g>
		<path style="fill:#FD9808;" d="M127,289.56c-4.267,0-8.533,0.853-12.8,2.56c17.067,5.12,29.867,21.333,29.867,40.107
			s-12.8,34.987-29.867,40.107c4.267,0.853,8.533,2.56,12.8,2.56c23.893,0,42.667-18.773,42.667-42.667
			C169.667,308.333,150.893,289.56,127,289.56"/>
		<path style="fill:#FD9808;" d="M400.067,289.56c-4.267,0-8.533,0.853-12.8,2.56c17.067,5.12,29.867,21.333,29.867,40.107
			s-12.8,34.987-29.867,40.107c4.267,0.853,8.533,2.56,12.8,2.56c23.893,0,42.667-18.773,42.667-42.667
			C442.733,308.333,423.96,289.56,400.067,289.56"/>
	</g>
	<path d="M435.907,202.52c-2.56,0-4.267-0.853-5.973-2.56c-3.413-3.413-3.413-8.533,0-11.947l58.027-58.027
		c3.413-3.413,8.533-3.413,11.947,0c3.413,3.413,3.413,8.533,0,11.947L441.88,199.96C440.173,201.667,438.467,202.52,435.907,202.52
		z"/>
	<path d="M127,383.427c-28.16,0-51.2-23.04-51.2-51.2s23.04-51.2,51.2-51.2s51.2,23.04,51.2,51.2S155.16,383.427,127,383.427z
		 M127,298.093c-18.773,0-34.133,15.36-34.133,34.133S108.227,366.36,127,366.36s34.133-15.36,34.133-34.133
		S145.773,298.093,127,298.093z"/>
	<path d="M400.067,383.427c-28.16,0-51.2-23.04-51.2-51.2s23.04-51.2,51.2-51.2c28.16,0,51.2,23.04,51.2,51.2
		S428.227,383.427,400.067,383.427z M400.067,298.093c-18.773,0-34.133,15.36-34.133,34.133s15.36,34.133,34.133,34.133
		S434.2,351,434.2,332.227S418.84,298.093,400.067,298.093z"/>
	<path d="M468.333,340.76h-25.6c-5.12,0-8.533-3.413-8.533-8.533c0-18.773-15.36-34.133-34.133-34.133s-34.133,15.36-34.133,34.133
		c0,5.12-3.413,8.533-8.533,8.533H169.667c-5.12,0-8.533-3.413-8.533-8.533c0-18.773-15.36-34.133-34.133-34.133
		s-34.133,15.36-34.133,34.133c0,5.12-3.413,8.533-8.533,8.533H41.667C17.773,340.76-1,321.987-1,298.093v-38.4
		c0-21.333,16.213-39.253,37.547-42.667L88.6,210.2c33.28-4.267,63.147-20.48,85.333-45.227l11.947-11.947
		c14.507-16.213,34.987-25.6,56.32-25.6h111.787c26.453,0,51.2,13.653,64.853,36.693l2.56,4.267
		c10.24,16.213,28.16,26.453,50.347,28.16l0,0c22.187,1.707,40.107,20.48,40.107,42.667v59.733
		C511,321.987,492.227,340.76,468.333,340.76z M450.413,323.693h17.92c14.507,0,25.6-11.093,25.6-25.6V238.36
		c0-13.653-10.24-24.747-23.893-25.6l0,0c-27.307-1.707-51.2-15.36-64-36.693l-2.56-4.267
		c-10.24-16.213-29.013-27.307-49.493-27.307H242.2c-17.067,0-32.427,6.827-43.52,19.627l-11.947,13.653
		c-24.747,28.16-58.88,46.08-96.427,50.347l-52.053,6.827c-12.8,0.853-22.187,11.947-22.187,24.747v38.4
		c0,14.507,11.093,25.6,25.6,25.6h34.987C80.92,299.8,101.4,281.027,127,281.027s46.08,18.773,50.347,42.667H349.72
		c4.267-23.893,24.747-42.667,50.347-42.667S446.147,299.8,450.413,323.693z"/>
</g>
</svg>