<?xml version="1.0" ?><!-- Uploaded to: SVG Repo, www.svgrepo.com, Generator: SVG Repo Mixer Tools -->
<svg width="800px" height="800px" viewBox="0 0 80 80" data-name="Layer 1" id="Layer_1" xmlns="http://www.w3.org/2000/svg"><defs><style>.cls-1{fill:none;stroke:#000000;stroke-linecap:round;stroke-linejoin:round;stroke-width:4px;}.cls-2{fill:#ffda00;}.cls-3{fill:#eabd00;}.cls-4{fill:#76d1ff;}.cls-5{fill:#3a3a3a;}</style></defs><title/><path class="cls-1" d="M40,40V51a4,4,0,0,1-4,4H27.5A3.5,3.5,0,0,0,24,58.5h0A3.5,3.5,0,0,0,27.5,62H46"/><line class="cls-1" x1="56" x2="52.8289" y1="59" y2="59"/><line class="cls-1" x1="56" x2="52.8288" y1="65" y2="65"/><rect class="cls-2" height="10" rx="3" width="7" x="46" y="57"/><path class="cls-3" d="M53,64V60a3,3,0,0,1-3,3H49a3,3,0,0,1-3-3v4a3,3,0,0,0,3,3h1A3,3,0,0,0,53,64Z"/><rect class="cls-1" height="10" rx="3" width="7" x="46" y="57"/><path class="cls-2" d="M10.38,39h59.241A3.9736,3.9736,0,0,0,71,36V32a8,8,0,0,0-8-8H58.0369a4,4,0,0,1-3.235-1.6473l-3.8068-5.2344A10,10,0,0,0,42.9078,13H23.3383a4,4,0,0,0-3.9355,3.2844l-.8056,4.4311A4,4,0,0,1,14.6617,24H13a4,4,0,0,0-4,4v8A3.9736,3.9736,0,0,0,10.38,39Z"/><path class="cls-3" d="M67,35H13a4,4,0,0,1-4-4v5a4,4,0,0,0,4,4H67a4,4,0,0,0,4-4V32c0-.2249-.0154-.4459-.0336-.6661A3.987,3.987,0,0,1,67,35Z"/><path class="cls-4" d="M54.3387,24,49.5,16.5484l-6.3306-2.9032L32,13l8.5,8.5,1.3284,1.3284A4,4,0,0,0,44.6569,24Z"/><path class="cls-1" d="M58.0369,24h-13.38a4,4,0,0,1-2.8285-1.1716L38,19"/><path class="cls-1" d="M36,40H67a4,4,0,0,0,4-4V32a8,8,0,0,0-8-8H58.0369a4,4,0,0,1-3.235-1.6473l-3.8068-5.2344A10,10,0,0,0,42.9078,13H23.3383a4,4,0,0,0-3.9355,3.2844l-.8056,4.4311A4,4,0,0,1,14.6617,24H13a4,4,0,0,0-4,4v8a4,4,0,0,0,4,4h5.3488"/><circle class="cls-5" cx="24" cy="42" r="6"/><circle class="cls-5" cx="55" cy="42" r="6"/><circle class="cls-1" cx="24" cy="42" r="6"/><circle class="cls-1" cx="55" cy="42" r="6"/></svg>