<?xml version="1.0" encoding="iso-8859-1"?>
<!-- Uploaded to: SVG Repo, www.svgrepo.com, Generator: SVG Repo Mixer Tools -->
<svg height="800px" width="800px" version="1.1" id="Layer_1" xmlns="http://www.w3.org/2000/svg" xmlns:xlink="http://www.w3.org/1999/xlink" 
	 viewBox="0 0 512 512" xml:space="preserve">
<g transform="translate(1 1)">
	<path style="fill:#FCC309;" d="M442.733,344.6c0,23.893-18.773,42.667-42.667,42.667c-23.893,0-42.667-18.773-42.667-42.667
		c0-23.893,18.773-42.667,42.667-42.667C423.96,301.933,442.733,320.707,442.733,344.6"/>
	<path style="fill:#FFDD09;" d="M470.893,216.6c-23.04-1.707-45.227-11.947-57.173-32.427l-2.56-4.267
		c-11.947-19.627-34.133-32.427-57.173-32.427H242.2c-18.773,0-37.547,8.533-50.347,22.187l-11.947,13.653
		c-23.893,26.453-55.467,43.52-91.307,47.787l-52.053,6.827C19.48,239.64,6.68,255,6.68,272.067v38.4
		c0,18.773,15.36,34.133,34.133,34.133H83.48c0-23.893,18.773-42.667,42.667-42.667s42.667,18.773,42.667,42.667h187.733
		c0-23.893,18.773-42.667,42.667-42.667c23.893,0,42.667,18.773,42.667,42.667h25.6c18.773,0,34.133-15.36,34.133-34.133v-59.733
		C502.467,232.813,487.96,217.453,470.893,216.6"/>
	<path style="fill:#FFFFFF;" d="M37.4,238.787c-17.067,1.707-29.867,17.067-29.867,34.133v37.547
		c0,18.773,15.36,34.133,34.133,34.133h25.6c-18.773,0-34.133-15.36-34.133-34.133v-38.4c0-17.067,12.8-31.573,29.867-34.133H37.4
		V238.787z"/>
	<path style="fill:#FD9808;" d="M470.893,216.6c-23.04-1.707-45.227-11.947-57.173-32.427l-2.56-4.267
		c-11.947-19.627-34.133-32.427-57.173-32.427h-25.6c23.04,0,45.227,11.947,57.173,32.427l2.56,4.267
		c11.947,19.627,34.133,30.72,57.173,32.427c17.92,0.853,31.573,16.213,31.573,34.133v59.733c0,18.773-15.36,34.133-34.133,34.133
		h25.6c18.773,0,34.133-15.36,34.133-34.133v-59.733C502.467,232.813,487.96,217.453,470.893,216.6"/>
	<path style="fill:#FCC309;" d="M169.667,344.6c0,23.893-18.773,42.667-42.667,42.667S84.333,368.493,84.333,344.6
		c0-23.893,18.773-42.667,42.667-42.667S169.667,320.707,169.667,344.6"/>
	<g>
		<path style="fill:#FD9808;" d="M127,301.933c-4.267,0-8.533,0.853-12.8,2.56c17.067,5.12,29.867,21.333,29.867,40.107
			c0,18.773-12.8,34.987-29.867,40.107c4.267,0.853,8.533,2.56,12.8,2.56c23.893,0,42.667-18.773,42.667-42.667
			C169.667,320.707,150.893,301.933,127,301.933"/>
		<path style="fill:#FD9808;" d="M400.067,301.933c-4.267,0-8.533,0.853-12.8,2.56c17.067,5.12,29.867,21.333,29.867,40.107
			c0,18.773-12.8,34.987-29.867,40.107c4.267,0.853,8.533,2.56,12.8,2.56c23.893,0,42.667-18.773,42.667-42.667
			C442.733,320.707,423.96,301.933,400.067,301.933"/>
	</g>
	<path d="M127,395.8c-28.16,0-51.2-23.04-51.2-51.2c0-28.16,23.04-51.2,51.2-51.2s51.2,23.04,51.2,51.2
		C178.2,372.76,155.16,395.8,127,395.8z M127,310.467c-18.773,0-34.133,15.36-34.133,34.133c0,18.773,15.36,34.133,34.133,34.133
		s34.133-15.36,34.133-34.133C161.133,325.827,145.773,310.467,127,310.467z"/>
	<path d="M400.067,395.8c-28.16,0-51.2-23.04-51.2-51.2c0-28.16,23.04-51.2,51.2-51.2c28.16,0,51.2,23.04,51.2,51.2
		C451.267,372.76,428.227,395.8,400.067,395.8z M400.067,310.467c-18.773,0-34.133,15.36-34.133,34.133
		c0,18.773,15.36,34.133,34.133,34.133S434.2,363.373,434.2,344.6C434.2,325.827,418.84,310.467,400.067,310.467z"/>
	<path d="M468.333,353.133h-25.6c-5.12,0-8.533-3.413-8.533-8.533c0-18.773-15.36-34.133-34.133-34.133s-34.133,15.36-34.133,34.133
		c0,5.12-3.413,8.533-8.533,8.533H169.667c-5.12,0-8.533-3.413-8.533-8.533c0-18.773-15.36-34.133-34.133-34.133
		s-34.133,15.36-34.133,34.133c0,5.12-3.413,8.533-8.533,8.533H41.667C17.773,353.133-1,334.36-1,310.467v-38.4
		c0-21.333,16.213-39.253,37.547-42.667l52.053-6.827c33.28-4.267,63.147-20.48,85.333-45.227L185.88,165.4
		c8.533-10.24,19.627-20.48,32.427-24.747c0.853-0.853,1.707-0.853,2.56-0.853l0,0H357.4c25.6,1.707,47.787,14.507,60.587,35.84
		l2.56,4.267c10.24,16.213,28.16,26.453,50.347,28.16C493.08,209.773,511,228.547,511,250.733v59.733
		C511,334.36,492.227,353.133,468.333,353.133z M450.413,336.067h17.92c14.507,0,25.6-11.093,25.6-25.6v-59.733
		c0-13.653-10.24-24.747-23.893-25.6c-27.307-1.707-51.2-15.36-64-36.693l-2.56-4.267c-10.24-16.213-27.307-27.307-46.933-28.16
		l-133.973,0.853c-8.533,3.413-17.067,11.947-23.893,19.627l-11.947,13.653c-24.747,28.16-58.88,46.08-96.427,50.347l-52.053,6.827
		c-12.8,0.853-22.187,11.947-22.187,24.747v38.4c0,14.507,11.093,25.6,25.6,25.6h34.987C80.92,312.173,101.4,293.4,127,293.4
		s46.08,18.773,50.347,42.667H349.72c4.267-23.893,24.747-42.667,50.347-42.667S446.147,312.173,450.413,336.067z"/>
	<path d="M138.947,225.133c-2.56,0-4.267-0.853-5.973-2.56l-97.28-93.867c-3.413-3.413-3.413-8.533,0-11.947
		c3.413-3.413,8.533-3.413,11.947,0l97.28,93.867c3.413,3.413,3.413,8.533,0,11.947C143.213,224.28,140.653,225.133,138.947,225.133
		z"/>
</g>
</svg>