<?xml version="1.0" encoding="UTF-8" standalone="no"?>
<svg
   version="1.0"
   width="597.000000pt"
   height="831.000000pt"
   viewBox="0 0 597.000000 831.000000"
   preserveAspectRatio="xMidYMid meet"
   id="svg72"
   sodipodi:docname="kwadrat1.svg"
   inkscape:version="1.3 (0e150ed6c4, 2023-07-21)"
   xmlns:inkscape="http://www.inkscape.org/namespaces/inkscape"
   xmlns:sodipodi="http://sodipodi.sourceforge.net/DTD/sodipodi-0.dtd"
   xmlns="http://www.w3.org/2000/svg"
   xmlns:svg="http://www.w3.org/2000/svg">
  <defs
     id="defs72" />
  <sodipodi:namedview
     id="namedview72"
     pagecolor="#ffffff"
     bordercolor="#000000"
     borderopacity="0.25"
     inkscape:showpageshadow="2"
     inkscape:pageopacity="0.0"
     inkscape:pagecheckerboard="0"
     inkscape:deskcolor="#d1d1d1"
     inkscape:document-units="pt"
     inkscape:zoom="0.52394826"
     inkscape:cx="869.36066"
     inkscape:cy="472.37489"
     inkscape:window-width="1920"
     inkscape:window-height="1017"
     inkscape:window-x="-8"
     inkscape:window-y="-8"
     inkscape:window-maximized="1"
     inkscape:current-layer="svg72" />
  <g
     transform="translate(0.000000,831.000000) scale(0.100000,-0.100000)"
     fill="#000000"
     stroke="none"
     id="g72">
    <path
       d="M2950 8234 c-713 -39 -973 -80 -1119 -173 -89 -57 -136 -156 -167 -351 -8 -52 -29 -177 -45 -278 -17 -100 -29 -188 -27 -194 5 -15 43 185 68 357 39 270 69 366 136 424 111 98 305 142 784 176 448 32 745 41 1080 34 860 -20 1115 -83 1226 -300 44 -88 61 -148 120 -432 31 -150 58 -274 60 -276 10 -11 0 49 -47 276 -85 411 -121 496 -250 582 -75 50 -141 75 -269 100 -305 62 -995 86 -1550 55z"
       id="path1" />
    <path
       d="M3308 8193 c67 -2 177 -2 245 0 67 1 12 3 -123 3 -135 0 -190 -2 -122 -3z"
       id="path2" />
    <path
       d="M3013 8183 c15 -2 39 -2 55 0 15 2 2 4 -28 4 -30 0 -43 -2 -27 -4z"
       id="path3" />
    <path
       d="M3783 8183 c15 -2 39 -2 55 0 15 2 2 4 -28 4 -30 0 -43 -2 -27 -4z"
       id="path4" />
    <path
       d="M2888 8173 c12 -2 30 -2 40 0 9 3 -1 5 -23 4 -22 0 -30 -2 -17 -4z"
       id="path5" />
    <path
       d="M3913 8173 c9 -2 25 -2 35 0 9 3 1 5 -18 5 -19 0 -27 -2 -17 -5z"
       id="path6" />
    <path
       d="M4065 8170 c-6 -10 39 -80 51 -80 3 0 -6 15 -20 33 -15 19 -26 37 -26 40 0 3 19 8 43 10 l42 4 -42 1 c-23 1 -45 -3 -48 -8z"
       id="path7" />
    <path
       d="M2793 8163 c9 -2 23 -2 30 0 6 3 -1 5 -18 5 -16 0 -22 -2 -12 -5z"
       id="path8" />
    <path
       d="M3283 8163 c81 -2 213 -2 295 0 81 1 14 3 -148 3 -162 0 -229 -2 -147 -3z"
       id="path9" />
    <path
       d="M4238 8163 c12 -2 32 -2 45 0 12 2 2 4 -23 4 -25 0 -35 -2 -22 -4z"
       id="path10" />
    <path
       d="M2713 8153 c9 -2 23 -2 30 0 6 3 -1 5 -18 5 -16 0 -22 -2 -12 -5z"
       id="path11" />
    <path
       d="M2983 8153 c15 -2 37 -2 50 0 12 2 0 4 -28 4 -27 0 -38 -2 -22 -4z"
       id="path12" />
    <path
       d="M3813 8153 c15 -2 37 -2 50 0 12 2 0 4 -28 4 -27 0 -38 -2 -22 -4z"
       id="path13" />
    <path
       d="M4343 8153 c9 -2 25 -2 35 0 9 3 1 5 -18 5 -19 0 -27 -2 -17 -5z"
       id="path14" />
    <path
       d="M2863 8143 c9 -2 25 -2 35 0 9 3 1 5 -18 5 -19 0 -27 -2 -17 -5z"
       id="path15" />
    <path
       d="M3928 8143 c6 -2 18 -2 25 0 6 3 1 5 -13 5 -14 0 -19 -2 -12 -5z"
       id="path16" />
    <path
       d="M4423 8143 c9 -2 25 -2 35 0 9 3 1 5 -18 5 -19 0 -27 -2 -17 -5z"
       id="path17" />
    <path
       d="M2773 8133 c9 -2 23 -2 30 0 6 3 -1 5 -18 5 -16 0 -22 -2 -12 -5z"
       id="path18" />
    <path
       d="M3348 8133 c45 -2 119 -2 165 0 45 1 8 3 -83 3 -91 0 -128 -2 -82 -3z"
       id="path19" />
    <path
       d="M4498 8133 c6 -2 18 -2 25 0 6 3 1 5 -13 5 -14 0 -19 -2 -12 -5z"
       id="path20" />
    <path
       d="M2698 8123 c6 -2 18 -2 25 0 6 3 1 5 -13 5 -14 0 -19 -2 -12 -5z"
       id="path21" />
    <path
       d="M3048 8123 c18 -2 45 -2 60 0 15 2 0 4 -33 4 -33 0 -45 -2 -27 -4z"
       id="path22" />
    <path
       d="M3748 8123 c18 -2 45 -2 60 0 15 2 0 4 -33 4 -33 0 -45 -2 -27 -4z"
       id="path23" />
    <path
       d="M4548 8123 c6 -2 18 -2 25 0 6 3 1 5 -13 5 -14 0 -19 -2 -12 -5z"
       id="path24" />
    <path
       d="M2343 8113 c15 -2 37 -2 50 0 12 2 0 4 -28 4 -27 0 -38 -2 -22 -4z"
       id="path25" />
    <path
       d="M2536 8104 c-5 -14 -4 -15 9 -4 17 14 19 20 6 20 -5 0 -12 -7 -15 -16z"
       id="path26" />
    <path
       d="M2908 8113 c12 -2 30 -2 40 0 9 3 -1 5 -23 4 -22 0 -30 -2 -17 -4z"
       id="path27" />
    <path
       d="M3888 8113 c12 -2 30 -2 40 0 9 3 -1 5 -23 4 -22 0 -30 -2 -17 -4z"
       id="path28" />
    <path
       d="M2243 8103 c9 -2 25 -2 35 0 9 3 1 5 -18 5 -19 0 -27 -2 -17 -5z"
       id="path29" />
    <path
       d="M2803 8103 c9 -2 25 -2 35 0 9 3 1 5 -18 5 -19 0 -27 -2 -17 -5z"
       id="path30" />
    <path
       d="M2173 8093 c9 -2 23 -2 30 0 6 3 -1 5 -18 5 -16 0 -22 -2 -12 -5z"
       id="path31" />
    <path
       d="M2728 8093 c6 -2 18 -2 25 0 6 3 1 5 -13 5 -14 0 -19 -2 -12 -5z"
       id="path32" />
    <path
       d="M4640 8096 c0 -2 14 -14 30 -26 17 -12 30 -19 30 -16 0 2 -13 14 -30 26 -16 12 -30 19 -30 16z"
       id="path33" />
    <path
       d="M2098 8083 c6 -2 18 -2 25 0 6 3 1 5 -13 5 -14 0 -19 -2 -12 -5z"
       id="path34" />
    <path
       d="M2668 8083 c7 -3 16 -2 19 1 4 3 -2 6 -13 5 -11 0 -14 -3 -6 -6z"
       id="path35" />
    <path
       d="M3148 8083 c28 -2 76 -2 105 0 28 2 5 3 -53 3 -58 0 -81 -1 -52 -3z"
       id="path36" />
    <path
       d="M3653 8083 c31 -2 83 -2 115 0 31 2 5 3 -58 3 -63 0 -89 -1 -57 -3z"
       id="path37" />
    <path
       d="M2038 8073 c6 -2 18 -2 25 0 6 3 1 5 -13 5 -14 0 -19 -2 -12 -5z"
       id="path38" />
    <path
       d="M2499 8053 l-24 -28 28 24 c25 23 32 31 24 31 -2 0 -14 -12 -28 -27z"
       id="path39" />
    <path
       d="M2943 8073 c15 -2 39 -2 55 0 15 2 2 4 -28 4 -30 0 -43 -2 -27 -4z"
       id="path40" />
    <path
       d="M3908 8073 c7 -3 16 -2 19 1 4 3 -2 6 -13 5 -11 0 -14 -3 -6 -6z"
       id="path41" />
    <path
       d="M1967 8039 c-34 -28 -87 -104 -87 -125 0 -5 14 15 30 44 17 29 49 66 72 82 22 17 37 30 32 30 -5 0 -26 -14 -47 -31z"
       id="path42" />
    <path
       d="M2818 8063 c12 -2 30 -2 40 0 9 3 -1 5 -23 4 -22 0 -30 -2 -17 -4z"
       id="path43" />
    <path
       d="M4149 8058 c8 -11 25 -17 45 -17 l31 2 -30 4 c-16 3 -37 10 -45 16 -13 10 -13 10 -1 -5z"
       id="path44" />
    <path
       d="M2733 8053 c9 -2 23 -2 30 0 6 3 -1 5 -18 5 -16 0 -22 -2 -12 -5z"
       id="path45" />
    <path
       d="M3215 8054 c-692 -18 -1208 -111 -1327 -240 -67 -73 -98 -364 -98 -924 0 -442 27 -818 74 -1053 24 -114 66 -227 85 -227 5 0 25 9 44 20 134 79 629 185 1127 242 185 21 554 16 745 -10 331 -44 616 -107 764 -168 69 -29 86 -33 97 -22 23 24 60 352 85 753 17 276 18 1070 0 1215 -16 135 -45 256 -67 281 -9 10 -14 22 -11 26 3 5 -9 9 -26 9 -18 1 -84 10 -147 22 -299 54 -887 87 -1345 76z"
       id="path46" />
    <path
       d="M2668 8043 c7 -3 16 -2 19 1 4 3 -2 6 -13 5 -11 0 -14 -3 -6 -6z"
       id="path47" />
    <path
       d="M4273 8033 c9 -2 25 -2 35 0 9 3 1 5 -18 5 -19 0 -27 -2 -17 -5z"
       id="path48" />
    <path
       d="M4716 8015 c24 -39 24 -40 24 -28 0 6 -9 21 -21 34 l-20 24 17 -30z"
       id="path49" />
    <path
       d="M2450 8020 c-9 -6 -10 -10 -3 -10 6 0 15 5 18 10 8 12 4 12 -15 0z"
       id="path50" />
    <path
       d="M4363 8023 c9 -2 25 -2 35 0 9 3 1 5 -18 5 -19 0 -27 -2 -17 -5z"
       id="path51" />
    <path
       d="M4443 8013 c9 -2 23 -2 30 0 6 3 -1 5 -18 5 -16 0 -22 -2 -12 -5z"
       id="path52" />
    <path
       d="M2373 8003 c9 -2 23 -2 30 0 6 3 -1 5 -18 5 -16 0 -22 -2 -12 -5z"
       id="path53" />
    <path
       d="M4513 8003 c9 -2 23 -2 30 0 6 3 -1 5 -18 5 -16 0 -22 -2 -12 -5z"
       id="path54" />
    <path
       d="M2318 7993 c6 -2 18 -2 25 0 6 3 1 5 -13 5 -14 0 -19 -2 -12 -5z"
       id="path55" />
    <path
       d="M4568 7993 c7 -3 16 -2 19 1 4 3 -2 6 -13 5 -11 0 -14 -3 -6 -6z"
       id="path56" />
    <path
       d="M2268 7983 c7 -3 16 -2 19 1 4 3 -2 6 -13 5 -11 0 -14 -3 -6 -6z"
       id="path57" />
    <path
       d="M4618 7983 c7 -3 16 -2 19 1 4 3 -2 6 -13 5 -11 0 -14 -3 -6 -6z"
       id="path58" />
    <path
       d="M2228 7973 c7 -3 16 -2 19 1 4 3 -2 6 -13 5 -11 0 -14 -3 -6 -6z"
       id="path59" />
    <path
       d="M2188 7963 c7 -3 16 -2 19 1 4 3 -2 6 -13 5 -11 0 -14 -3 -6 -6z"
       id="path60" />
    <path
       d="M2110 7945 c-19 -7 -28 -13 -20 -13 8 0 31 6 50 13 19 7 28 13 20 13 -8 0 -31 -6 -50 -13z"
       id="path61" />
    <path
       d="M2010 7910 c-8 -5 -10 -10 -5 -10 6 0 17 5 25 10 8 5 11 10 5 10 -5 0 -17 -5 -25 -10z"
       id="path62" />
    <path
       d="M1871 7883 c-2 -31 14 -37 46 -18 26 15 19 15 -19 0 -12 -5 -18 0 -21 17 -4 22 -4 22 -6 1z"
       id="path63" />
    <path
       d="M1960 7890 c-8 -5 -10 -10 -5 -10 6 0 17 5 25 10 8 5 11 10 5 10 -5 0 -17 -5 -25 -10z"
       id="path64" />
    <path
       d="M5066 7183 c-3 -10 -15 -83 -26 -163 -31 -209 -36 -371 -16 -503 9 -59 16 -165 16 -235 0 -193 -33 -638 -62 -846 l-11 -78 -78 7 -79 6 0 -115 0 -116 60 -17 60 -18 -7 -75 c-5 -41 -8 -167 -7 -280 1 -187 6 -246 34 -408 5 -30 15 -138 22 -240 17 -248 17 -1799 0 -2217 -32 -784 -68 -1212 -118 -1438 -18 -77 -17 -77 -156 -125 -314 -111 -920 -170 -1618 -159 -556 9 -803 46 -1120 167 -74 29 -136 53 -138 55 -18 17 -54 245 -76 475 -47 498 -68 1054 -75 2075 l-7 890 -1 -720 c-1 -396 2 -1017 6 -1380 6 -654 6 -660 28 -697 16 -27 24 -66 33 -155 29 -300 59 -471 88 -496 22 -19 235 -99 348 -131 122 -34 298 -63 494 -81 221 -20 890 -20 1170 0 511 36 959 132 1014 217 8 12 24 68 35 123 20 98 61 457 61 532 0 21 10 56 22 78 23 40 23 40 31 800 9 898 3 2063 -12 2260 -6 77 -18 176 -26 220 -34 184 -41 442 -18 644 5 42 10 55 26 59 13 3 -2 11 -46 22 -106 28 -98 16 -95 132 l3 103 70 -3 c39 -2 84 -5 100 -8 25 -3 27 -3 9 5 -15 7 -20 16 -18 33 7 44 34 313 44 438 15 174 32 709 34 1050 2 157 6 295 10 308 4 12 5 22 2 22 -2 0 -7 -8 -10 -17z"
       id="path65" />
    <path
       d="M1585 7160 c2 -19 7 -168 10 -330 13 -677 16 -780 30 -978 17 -223 28 -342 47 -465 10 -66 9 -80 -3 -88 -10 -7 -3 -8 21 -5 19 3 68 8 108 11 l73 6 -3 -108 -3 -108 -84 -21 c-47 -12 -79 -23 -72 -25 35 -12 32 -435 -5 -641 -8 -46 -16 -137 -19 -203 l-4 -120 9 105 c5 58 14 134 20 170 29 175 33 230 34 425 0 116 -3 222 -6 236 -7 24 -5 26 67 47 l75 22 0 115 0 116 -92 -3 -92 -3 -13 85 c-13 94 -37 338 -53 555 -15 210 -13 457 6 582 11 75 15 139 10 209 -7 121 -43 388 -56 424 -9 22 -9 21 -5 -10z"
       id="path66" />
    <path
       d="M3135 5824 c-16 -2 -79 -9 -140 -15 -261 -26 -624 -104 -904 -194 l-143 -47 6 -56 c4 -31 24 -133 45 -227 38 -169 174 -758 175 -762 1 -1 78 16 171 38 892 209 1070 212 1849 34 153 -36 287 -67 297 -70 41 -13 113 170 153 388 40 217 93 645 83 671 -6 16 -321 122 -473 160 -129 32 -316 62 -469 76 -109 9 -578 12 -650 4z"
       id="path67" />
    <path
       d="M4760 5245 c0 -3 -38 -180 -85 -393 l-85 -388 1 -440 c0 -241 4 -572 8 -735 l8 -297 117 -237 c65 -130 120 -235 123 -232 16 17 -43 2577 -63 2695 -2 17 -9 32 -14 32 -6 0 -10 -2 -10 -5z"
       id="path68" />
    <path
       d="M1926 5192 c-11 -18 -36 -864 -56 -1882 -5 -283 -12 -586 -15 -672 -4 -123 -2 -158 7 -158 7 1 64 105 126 232 l114 231 8 421 c5 232 9 561 10 731 l0 310 -87 398 c-48 218 -90 397 -94 397 -4 0 -10 -4 -13 -8z"
       id="path69" />
    <path
       d="M4845 4930 c3 -102 10 -345 15 -540 45 -1631 36 -3305 -21 -3690 -22 -150 -25 -157 -87 -186 -211 -98 -505 -167 -902 -211 -135 -15 -244 -18 -600 -18 -388 1 -455 3 -620 23 -219 27 -404 62 -553 103 -169 48 -174 50 -191 112 -35 123 -53 361 -67 917 -16 607 -2 1976 31 2960 18 554 20 646 11 610 -25 -97 -63 -1778 -63 -2815 -1 -1132 26 -1638 90 -1724 54 -73 550 -172 1012 -202 228 -15 723 -6 935 16 399 41 737 120 925 215 77 39 87 69 109 320 47 526 47 2227 0 3860 -6 206 -15 389 -20 405 -6 19 -7 -36 -4 -155z"
       id="path70" />
    <path
       d="M1674 3955 c0 -71 1 -99 3 -62 2 37 2 96 0 130 -2 34 -3 4 -3 -68z"
       id="path71" />
    <path
       d="M4280 2725 c-287 -40 -733 -65 -1150 -65 -397 0 -763 24 -797 51 -13 12 -20 -17 -57 -237 -65 -383 -188 -1449 -172 -1489 20 -53 330 -141 666 -189 409 -59 637 -66 919 -27 458 62 753 149 863 256 41 41 41 10 7 395 -48 548 -152 1324 -178 1319 -3 -1 -49 -7 -101 -14z"
       id="path72" />
  </g>
  <path
     style="fill:#241c1c;stroke:#000000;stroke-width:0.635;stroke-linecap:round;stroke-linejoin:round;stroke-opacity:0.530266;stroke-dasharray:none"
     d="m 168.19409,419.05378 -1.7893,38.11207 z"
     id="path73" />
  <path
     style="fill:#241c1c;stroke:#000000;stroke-width:0.635;stroke-linecap:round;stroke-linejoin:round;stroke-dasharray:none;stroke-opacity:0.530266"
     d="m 158.53188,113.53101 0.89464,-6.70987 z"
     id="path74" />
  <path
     style="fill:#ac9393;stroke:#000000;stroke-width:0.635;stroke-linecap:round;stroke-linejoin:round;stroke-dasharray:none;stroke-opacity:0.530266"
     d="m 507.48188,111.7194 -0.94891,-3.89057 z"
     id="path75" />
  <path
     style="fill:#c8b7b7;stroke:#000000;stroke-width:0.846668;stroke-linecap:round;stroke-linejoin:round;stroke-dasharray:none;stroke-opacity:0.530266"
     d="m 363.58552,1083.7488 c -24.26183,-1.7378 -48.3731,-5.2155 -64.75487,-9.3401 -25.59541,-6.4443 -55.15739,-17.7614 -56.32814,-21.5638 -2.32093,-7.538 -6.95057,-41.8888 -9.55258,-70.8777 -5.0486,-56.24642 -6.934,-107.52062 -8.66725,-235.7103 -1.78937,-132.33948 -0.63675,-181.15018 5.20554,-220.44162 2.10911,-14.18453 3.28049,-33.93362 3.31139,-55.829 l 0.0478,-33.88026 9.06578,-3.01339 9.06578,-3.01339 v -16.0696 -16.06958 h -12.15992 -12.15992 l -1.17986,-9.06578 c -6.93205,-53.26408 -9.42713,-116.9886 -6.22121,-158.88974 1.35807,-17.74984 1.00931,-26.87786 -1.82305,-47.71463 -1.92631,-14.17125 -3.50224,-28.77193 -3.50205,-32.44595 6.3e-4,-12.70301 14.05247,-87.831182 18.25494,-97.60008 10.03223,-23.320551 34.85024,-30.466315 128.53473,-37.008563 41.35949,-2.888247 148.67491,-4.023994 175.58986,-1.858313 31.2366,2.513419 57.08892,5.427729 54.87183,6.185658 -3.77667,1.291085 -2.77355,4.314656 1.43144,4.314656 2.09945,0 3.81717,-0.858864 3.81717,-1.908586 0,-1.049722 1.50301,-1.895434 3.34003,-1.879359 2.87782,0.02518 2.94386,0.30532 0.47714,2.024389 -2.12047,1.477781 -1.13062,1.687638 3.81717,0.809263 5.24306,-0.930793 6.06419,-0.717211 3.81718,0.992862 -2.29985,1.750268 -1.8608,1.961138 2.23243,1.07221 6.53429,-1.419059 19.84009,4.235233 29.1011,12.366506 12.84644,11.27932 16.45153,21.11196 28.73537,78.373857 l 6.80688,31.7307 -3.20526,19.8011 c -2.30525,14.24102 -3.03769,28.37591 -2.60845,50.33848 1.20018,61.40703 0.41001,99.98428 -2.71696,132.64668 -4.37227,45.66986 -3.24632,42.69409 -15.66895,41.41196 l -10.23021,-1.05585 -0.30545,14.65362 c -0.16796,8.0595 -0.65574,11.81019 -1.08385,8.33489 -1.70899,-13.87254 -5.73232,-2.83101 -16.26838,44.64645 l -10.97765,49.46723 0.54801,101.15503 0.54801,101.15502 15.79584,31.01452 c 8.68773,17.05798 16.60179,31.01451 17.58683,31.01451 0.98504,0 1.77926,-7.08562 1.76493,-15.74583 -0.0405,-24.44381 -3.44433,-173.69415 -5.83564,-255.87704 -1.18561,-40.74635 -1.65472,-74.58521 -1.0425,-75.19745 0.61223,-0.61223 3.91914,-0.30818 7.3487,0.67568 l 6.23554,1.78882 0.21229,38.09978 c 0.15097,27.08099 1.25486,44.72355 3.81717,61.00281 3.31991,21.09253 3.60488,35.35023 3.60488,180.36133 0,157.25663 -1.18067,199.43998 -7.71916,275.79059 -2.89908,33.85301 -7.70536,66.42871 -10.6096,71.90901 -5.53938,10.4529 -69.89188,23.7795 -136.08574,28.1815 -27.25565,1.8126 -122.47054,2.2988 -144.27912,0.7368 z m 138.37244,-12.0999 c 48.95721,-3.9972 104.47759,-15.9189 129.65703,-27.8408 13.00267,-6.1565 15.36273,-11.6629 18.28865,-42.6708 5.80985,-61.57107 5.7887,-361.33435 -0.0366,-519.21948 -1.02636,-27.81763 -1.87425,-51.39344 -1.88418,-52.39067 -0.0114,-1.1254 -0.71688,-1.11435 -1.86039,0.0292 -1.18405,1.18405 -1.1566,20.24478 0.0767,53.34496 3.03509,81.45152 4.47195,423.93814 1.99116,474.60506 -2.41742,49.37263 -5.09123,70.71493 -9.53709,76.12473 -7.04616,8.5739 -55.0074,23.0189 -97.56931,29.386 -64.11368,9.5911 -167.59346,8.2899 -228.07596,-2.8679 -16.14192,-2.9778 -47.69114,-11.0178 -53.34738,-13.595 -8.46152,-3.8554 -11.55311,-21.2077 -14.39746,-80.80998 -2.36228,-49.50077 -2.38434,-258.16675 -0.0372,-352.13401 3.18574,-127.54131 3.78611,-176.82498 2.05767,-168.90981 -6.23115,28.53475 -9.96144,508.79137 -4.35736,560.9893 3.23071,30.0916 5.54818,38.7823 11.3567,42.5882 11.23953,7.3644 57.06856,17.2022 103.96046,22.3165 28.05545,3.0598 111.64165,3.6732 143.7146,1.0545 z m 17.17727,-69.3469 c 44.65418,-8.1022 76.14514,-18.70105 87.31779,-29.38843 4.37407,-4.18407 5.24838,-6.63071 5.24723,-14.68362 -0.004,-33.10915 -21.66992,-210.6617 -26.2436,-215.07357 -0.78622,-0.75841 -10.44758,-0.21796 -21.46966,1.20102 -70.79562,9.1142 -210.20857,10.70747 -245.46949,2.80533 -4.88338,-1.0944 -9.28759,-1.58111 -9.78711,-1.08157 -3.20651,3.2065 -22.58594,146.72853 -27.44323,203.24174 l -2.36157,27.47615 4.33681,3.51174 c 9.31124,7.53977 52.12406,17.97554 101.31756,24.69641 37.87945,5.1752 97.75796,3.9713 134.55527,-2.7052 z m -253.29458,-254.76068 15.61583,-30.20722 1.25618,-98.14515 1.25619,-98.14513 -11.01212,-49.62322 c -12.32854,-55.55537 -13.79174,-60.6315 -16.2242,-56.28506 -1.72665,3.08526 -4.6586,85.00537 -7.6841,214.69765 -2.2751,97.52509 -2.39607,147.91537 -0.35511,147.91537 0.84233,0 8.55863,-13.59325 17.14733,-30.20724 z M 370.26557,488.3621 c 27.37882,-5.69186 37.66212,-6.90839 65.8462,-7.78974 39.12155,-1.2234 54.22274,0.65652 114.51512,14.25576 49.58982,11.18521 51.08188,11.23117 56.43638,1.7387 2.26469,-4.01486 5.92467,-13.89345 8.13326,-21.95243 4.7499,-17.332 13.22835,-71.6003 14.92865,-95.55438 l 1.20014,-16.90759 -11.24329,-4.24103 c -48.13465,-18.15666 -86.55393,-25.56773 -143.88997,-27.75633 -63.66274,-2.43008 -123.36642,5.91524 -193.72142,27.07825 -12.59666,3.7891 -23.21406,7.15105 -23.59422,7.47099 -1.29195,1.0873 3.78402,26.43509 16.21058,80.95039 6.81949,29.91708 12.79178,55.77261 13.27177,57.45673 0.77619,2.72343 3.55915,2.4502 25.16677,-2.47099 13.36174,-3.04318 38.89476,-8.56842 56.74003,-12.27833 z M 270.19005,356.423 c 18.58235,-8.48244 67.92813,-19.56861 122.02699,-27.41494 39.51424,-5.73102 95.67419,-5.78198 133.62219,-0.12119 33.76469,5.0367 67.85052,12.75322 86.70485,19.62865 8.33628,3.03992 15.81822,5.52711 16.62656,5.52711 4.09896,0 9.46063,-42.76796 13.17441,-105.08713 3.08296,-51.73358 1.4168,-160.193044 -2.73962,-178.337801 -4.07431,-17.786333 -6.73904,-23.854923 -10.48094,-23.869077 -1.70965,-0.0065 -5.39078,-1.202552 -8.18027,-2.657965 -3.66788,-1.913706 -5.64907,-2.068946 -7.1572,-0.560817 -1.50814,1.50809 -2.08539,1.415766 -2.08539,-0.333567 0,-1.597879 -1.37676,-1.981949 -4.05619,-1.131535 -2.87154,0.911395 -3.64673,0.624892 -2.65425,-0.980992 0.9242,-1.495388 0.19267,-2.069086 -2.14672,-1.683548 -1.95175,0.321654 -4.69706,-0.134823 -6.10068,-1.014396 -1.48738,-0.932062 -3.43812,-0.713133 -4.67603,0.524781 -2.62776,2.627761 -7.74565,2.826308 -6.14628,0.238441 0.74076,-1.198546 -1.98147,-1.454243 -7.47131,-0.701775 -6.06203,0.830895 -9.93184,0.345076 -12.98135,-1.629693 -2.38959,-1.547415 -6.85656,-3.432782 -9.92661,-4.189704 -5.11215,-1.2604 -5.3536,-1.101134 -2.8692,1.892397 2.49593,3.007426 2.17941,3.171233 -3.96102,2.049904 -13.74082,-2.509261 -132.55454,-3.628757 -160.31486,-1.510531 -18.12546,1.383047 -27.894,1.46108 -28.31068,0.226151 -0.92028,-2.727476 -3.97684,-2.316609 -7.2708,0.97735 -1.57459,1.574583 -5.59284,2.874606 -8.92946,2.88894 -3.33661,0.01433 -8.21373,0.560691 -10.83803,1.214129 -4.36281,1.086315 -4.12824,0.514961 2.73886,-6.671075 4.13068,-4.322529 6.9704,-8.399072 6.31049,-9.058984 -0.65991,-0.659912 -4.91356,2.731561 -9.45255,7.536607 -6.70015,7.092886 -9.1104,8.512154 -12.81184,7.544207 -3.2636,-0.853451 -4.15771,-0.542722 -3.14647,1.093491 1.0306,1.667552 0.002,1.931672 -3.80339,0.976587 -3.68908,-0.9259 -4.82038,-0.66893 -3.86445,0.877793 0.74338,1.202817 0.49273,2.186939 -0.55699,2.186939 -1.04972,0 -2.40028,-0.795588 -3.00125,-1.767974 -1.25976,-2.038329 -13.13837,0.850447 -13.99073,3.402426 -0.29905,0.895361 -2.52537,1.249114 -4.94737,0.786119 -2.55103,-0.48766 -5.75542,0.509967 -7.61681,2.371357 -1.76724,1.767241 -4.42057,2.74984 -5.89629,2.183551 -1.47572,-0.566287 -6.13591,0.63859 -10.35598,2.677503 -9.10264,4.397917 -11.67441,4.629368 -11.67441,1.050659 0,-4.211211 17.14711,-22.155153 21.17131,-22.155153 2.00217,0 3.6403,-0.951972 3.6403,-2.115492 0,-2.515036 -9.09524,-0.62153 -13.19048,2.746077 -9.4782,7.794146 -17.91068,27.998196 -11.68549,27.998196 1.01431,0 0.15394,2.864781 -1.91192,6.366178 -7.92725,13.435688 -10.22875,40.369006 -10.22004,119.600456 0.008,74.98029 2.33117,111.04154 9.24866,143.57657 3.04782,14.33479 9.70412,30.80113 11.96829,29.60712 0.81213,-0.42827 5.39782,-2.56863 10.19044,-4.75635 z M 632.69607,42.414228 c 0,-3.355297 -10.66381,-14.75432 -13.72966,-14.676243 -1.56518,0.03985 -1.07209,1.283184 1.32463,3.340025 2.09989,1.80209 5.34042,5.638402 7.20119,8.525137 3.70399,5.746192 5.20384,6.556404 5.20384,2.811081 z m -58.68901,-6.460832 c -1.31215,-0.529465 -3.45931,-0.529465 -4.77146,0 -1.31215,0.529466 -0.23857,0.962664 2.38573,0.962664 2.62431,0 3.69789,-0.433198 2.38573,-0.962664 z m -205.21269,-1.79767 c -0.63421,-0.634206 -2.28036,-0.702012 -3.65812,-0.150683 -1.52254,0.60927 -1.07029,1.061523 1.1531,1.153104 2.01197,0.08287 3.13923,-0.368219 2.50502,-1.002427 z m 12.44557,-2.019501 c -1.31216,-0.529465 -3.45931,-0.529465 -4.77147,0 -1.31215,0.529466 -0.23857,0.962664 2.38574,0.962664 2.6243,0 3.69788,-0.433198 2.38573,-0.962664 z m 19.563,-0.644566 c 0.69005,-1.11652 -1.29012,-1.908585 -4.77147,-1.908585 -3.48134,0 -5.46151,0.792065 -4.77146,1.908585 0.64876,1.049722 2.79592,1.908586 4.77146,1.908586 1.97554,0 4.1227,-0.858864 4.77147,-1.908586 z m 123.10376,0 c 0,-1.049722 -0.85887,-1.908585 -1.90859,-1.908585 -1.04972,0 -1.90858,0.858863 -1.90858,1.908585 0,1.049722 0.85886,1.908586 1.90858,1.908586 1.04972,0 1.90859,-0.858864 1.90859,-1.908586 z M 282.90803,30.338555 c -0.63421,-0.634206 -2.28037,-0.702012 -3.65813,-0.150683 -1.52254,0.60927 -1.07029,1.061523 1.15311,1.153105 2.01196,0.08287 3.13922,-0.36822 2.50502,-1.002428 z m 76.86032,0.311451 c 0,-2.014465 -3.66279,-2.8608 -4.75222,-1.098065 -0.65935,1.066846 0.14017,1.939718 1.7767,1.939718 1.63654,0 2.97552,-0.378743 2.97552,-0.841653 z m 72.0491,-0.525379 c -2.88674,-0.437304 -7.61048,-0.437304 -10.49722,0 -2.88673,0.437303 -0.52486,0.795098 5.24861,0.795098 5.77347,0 8.13535,-0.357795 5.24861,-0.795098 z m 68.70908,0 c -2.88674,-0.437304 -7.61049,-0.437304 -10.49722,0 -2.88674,0.437303 -0.52487,0.795098 5.24861,0.795098 5.77347,0 8.13534,-0.357795 5.24861,-0.795098 z M 294.35954,28.42997 c -0.63421,-0.634206 -2.28036,-0.702012 -3.65812,-0.150683 -1.52255,0.60927 -1.07029,1.061523 1.1531,1.153104 2.01197,0.08287 3.13922,-0.368219 2.50502,-1.002427 z m 9.10554,-0.755481 c 0.65776,-1.064277 -0.76995,-1.895657 -3.22738,-1.87936 -3.54547,0.02351 -3.84731,0.3909 -1.54408,1.87936 3.55137,2.295073 3.35303,2.295073 4.77146,0 z m 63.4207,0.755481 c -0.6342,-0.634206 -2.28036,-0.702012 -3.65812,-0.150683 -1.52254,0.60927 -1.07029,1.061523 1.15311,1.153104 2.01196,0.08287 3.13922,-0.368219 2.50501,-1.002427 z m 11.01413,-0.755481 c 0.64877,-1.049722 -0.2101,-1.908586 -1.90858,-1.908586 -1.69849,0 -2.55735,0.858864 -1.90859,1.908586 0.64877,1.049722 1.50763,1.908585 1.90859,1.908585 0.40095,0 1.25982,-0.858863 1.90858,-1.908585 z m 169.9958,-2.299761 c -2.78457,-3.975532 -2.65859,-4.336511 2.27749,-6.525036 l 5.22516,-2.31669 -6.09026,-0.155013 c -3.34965,-0.08526 -6.64442,0.74162 -7.32172,1.837505 -1.44852,2.343751 4.01628,11.36758 6.88416,11.36758 1.08503,0 0.64636,-1.893756 -0.97483,-4.208346 z m -229.60277,1.047849 c -1.29217,-0.522805 -3.86876,-0.55463 -5.72575,-0.07072 -1.857,0.483909 -0.79976,0.911659 2.3494,0.950555 3.14917,0.0389 4.66853,-0.357029 3.37635,-0.879835 z m 74.39851,-0.01211 c -1.31215,-0.529465 -3.45931,-0.529465 -4.77146,0 -1.31216,0.529465 -0.23858,0.962664 2.38573,0.962664 2.6243,0 3.69788,-0.433199 2.38573,-0.962664 z m 131.72871,0.0121 c -1.29217,-0.522806 -3.86876,-0.55463 -5.72575,-0.07072 -1.857,0.483909 -0.79976,0.911659 2.34941,0.950556 3.14916,0.0389 4.66851,-0.35703 3.37634,-0.879836 z M 363.06861,24.612799 c -0.6342,-0.634207 -2.28036,-0.702012 -3.65812,-0.150677 -1.52254,0.60927 -1.07029,1.061522 1.15311,1.153103 2.01196,0.08287 3.13922,-0.368219 2.50501,-1.002426 z m 50.6536,-0.09881 c -1.29217,-0.522806 -3.86876,-0.55463 -5.72576,-0.07072 -1.85699,0.483909 -0.79975,0.911659 2.34941,0.950556 3.14917,0.0389 4.66852,-0.357029 3.37635,-0.879836 z m 92.53007,-0.06372 c -1.83701,-0.480062 -4.84303,-0.480062 -6.68005,0 -1.83701,0.480061 -0.334,0.872839 3.34003,0.872839 3.67402,0 5.17704,-0.392778 3.34002,-0.872839 z M 371.21986,21.948732 c -2.6243,-0.840449 -6.48919,-1.528089 -8.58863,-1.528089 -3.02256,0 -2.82391,0.318097 0.95429,1.528089 2.62431,0.84045 6.48919,1.52809 8.58864,1.52809 3.02256,0 2.82391,-0.318098 -0.9543,-1.52809 z m 18.26789,-0.817965 c 3.86979,-3.869786 3.41346,-4.907791 -2.15755,-4.907791 -2.77006,0 -4.37353,0.826116 -3.70453,1.908585 0.64876,1.049722 0.27002,1.908586 -0.84166,1.908586 -1.11167,0 -2.02122,0.858863 -2.02122,1.908585 0,2.8347 5.59702,2.309979 8.72496,-0.817965 z m 76.73468,1.339214 c -3.9087,-0.410112 -10.77961,-0.415784 -15.26868,-0.0126 -4.48907,0.403179 -1.29103,0.738725 7.10675,0.745658 8.39778,0.0069 12.07064,-0.322942 8.16193,-0.733054 z m 61.50144,-2.429834 c 0,-2.544781 -1.2724,-3.817171 -3.81717,-3.817171 -4.20296,0 -4.33908,0.236318 -2.65868,4.615365 1.65963,4.324915 6.47585,3.731281 6.47585,-0.798194 z m -123.54459,0.656674 c -1.29217,-0.522806 -3.86876,-0.55463 -5.72575,-0.07072 -1.85699,0.48391 -0.79976,0.91166 2.34941,0.950556 3.14916,0.0389 4.66851,-0.357029 3.37634,-0.879836 z m 110.69796,0 c -1.29217,-0.522806 -3.86876,-0.55463 -5.72576,-0.07072 -1.857,0.48391 -0.79975,0.91166 2.34941,0.950556 3.14917,0.0389 4.66852,-0.357029 3.37635,-0.879836 z m 68.67275,-0.01211 c -1.31215,-0.529465 -3.45931,-0.529465 -4.77146,0 -1.31216,0.529465 -0.23858,0.962664 2.38573,0.962664 2.6243,0 3.69788,-0.433199 2.38573,-0.962664 z m -207.12128,-1.79767 c -0.63421,-0.634207 -2.28036,-0.702012 -3.65812,-0.150678 -1.52254,0.609271 -1.07029,1.061523 1.1531,1.153104 2.01197,0.08287 3.13923,-0.368219 2.50502,-1.002426 z m 93.56045,-0.262208 c -7.08562,-0.367224 -18.68028,-0.367224 -25.7659,0 -7.08563,0.367223 -1.2883,0.667679 12.88295,0.667679 14.17124,0 19.96857,-0.300456 12.88295,-0.667679 z m 100.20073,0.151293 c -1.31215,-0.529465 -3.45931,-0.529465 -4.77146,0 -1.31215,0.529465 -0.23857,0.962664 2.38573,0.962664 2.62431,0 3.69789,-0.433199 2.38573,-0.962664 z m -161.27546,-1.9602 c -1.83702,-0.480062 -4.84304,-0.480062 -6.68005,0 -1.83702,0.480061 -0.33401,0.872839 3.34002,0.872839 3.67403,0 5.17704,-0.392778 3.34003,-0.872839 z m 102.14564,0.06372 c -1.29217,-0.522805 -3.86876,-0.55463 -5.72576,-0.07072 -1.857,0.483909 -0.79976,0.911659 2.34941,0.950555 3.14917,0.0389 4.66852,-0.357029 3.37635,-0.879835 z m -42.9795,-2.067097 c -6.0359,-0.37876 -15.91283,-0.37876 -21.94873,0 -6.0359,0.37876 -1.09744,0.688654 10.97437,0.688654 12.0718,0 17.01026,-0.309894 10.97436,-0.688654 z"
     id="path76"
     transform="scale(0.75)" />
  <path
     style="fill:#c8b7b7;stroke:#000000;stroke-width:0.846668;stroke-linecap:round;stroke-linejoin:round;stroke-dasharray:none;stroke-opacity:0.530266"
     d="m 347.58487,1081.0275 c -33.99214,-3.5852 -68.8726,-12.1817 -92.07622,-22.6928 l -11.6933,-5.297 -2.11307,-12.1551 c -9.79777,-56.35986 -14.15068,-142.33706 -16.4626,-325.16307 -1.09955,-86.95208 0.85705,-161.28199 4.79793,-182.26991 1.08408,-5.77347 2.48877,-29.92106 3.12153,-53.66131 l 1.15048,-43.16411 8.81183,-2.73193 8.81182,-2.73195 0.54877,-17.56442 0.54877,-17.56443 h -12.27052 c -14.69947,0 -13.17185,3.55726 -17.62181,-41.03458 -2.3901,-23.95046 -3.19281,-49.18707 -3.06571,-96.38357 0.11824,-43.91105 -0.67353,-71.23374 -2.52784,-87.23154 -2.50817,-21.63893 -2.43557,-24.91477 1.0218,-46.10677 5.2977,-32.472315 13.19836,-68.922747 16.17208,-74.611385 3.69501,-7.068426 12.34159,-14.719665 20.47319,-18.116426 9.75968,-4.076853 12.50198,-3.712606 6.65791,0.88434 -7.81069,6.143892 -13.50697,16.988635 -13.95334,26.564788 -0.22337,4.792012 -1.78782,12.418591 -3.47655,16.947952 -5.49853,14.747648 -7.35447,54.239361 -6.25044,133.000121 1.05616,75.34557 2.98717,100.14109 9.86612,126.68783 3.68651,14.22669 8.59494,25.03377 11.38826,25.07393 1.11774,0.0153 0.90111,0.74648 -0.48139,1.62313 -2.03063,1.28761 -1.38695,7.05828 3.34974,30.03098 9.76868,47.37766 24.52493,109.91055 26.37211,111.75774 1.04597,1.04596 21.44737,-2.42451 51.20289,-8.71015 59.63076,-12.59653 73.84425,-14.49233 108.5802,-14.48237 30.19056,0.01 44.95486,2.07643 102.17257,14.30954 22.08707,4.72219 42.58127,8.58581 45.54267,8.58581 5.7056,0 10.98549,-4.58633 15.03014,-13.05581 2.20457,-4.61633 2.29321,-4.29836 0.9792,3.51289 -0.79462,4.72374 -1.13906,55.39669 -0.76541,112.60654 l 0.67932,104.0179 14.58207,28.2961 c 8.02014,15.56285 16.19116,30.02323 18.1578,32.13418 3.42981,3.68147 3.53461,8.01801 2.56781,106.25918 -0.93713,95.22742 -2.64005,130.35118 -7.14566,147.38458 -1.31044,4.9541 -3.7398,7.8698 -8.97856,10.7759 -17.37981,9.641 -68.40586,22.3306 -111.19993,27.654 -13.00961,1.6184 -42.47095,2.4701 -83.97776,2.4278 -69.38923,-0.071 -99.13251,-2.5028 -137.41815,-11.2368 -30.45732,-6.9481 -40.65053,-10.8101 -43.30906,-16.4091 -6.95506,-14.6477 -10.20019,-75.76322 -9.87898,-186.05052 0.13757,-47.23749 0.78123,-82.88032 1.43033,-79.20629 l 1.18019,6.68005 4.01601,-5.72576 c 2.2088,-3.14917 10.0546,-17.32041 17.43511,-31.49166 l 13.41911,-25.7659 1.22669,-98.31089 1.22669,-98.31092 -10.33131,-45.78728 c -13.16339,-58.33876 -14.19002,-62.01029 -17.33927,-62.01029 -3.06613,0 -4.35621,16.17444 -6.62198,83.02347 l -1.48786,43.89746 -0.29445,-48.19178 c -0.2922,-47.8243 -2.43862,-62.54997 -4.74944,-32.58387 -3.07124,39.82712 -5.33124,226.25634 -4.60014,379.46927 1.01064,211.79271 0.45462,207.05521 25.27811,215.37811 17.32186,5.8076 54.07503,12.9789 85.65098,16.7121 35.2507,4.1677 140.2495,4.1141 172.00805,-0.088 61.76649,-8.1722 111.96879,-22.2786 119.97752,-33.7127 l 3.12624,-4.4633 -0.0114,4.7189 c -0.006,2.5955 -0.87737,7.8395 -1.93674,11.6533 -1.61302,5.8071 -3.44318,7.5869 -11.25905,10.9492 -19.36687,8.3314 -70.05712,17.245 -120.2989,21.1539 -29.68362,2.3095 -142.77897,2.2426 -164.96595,-0.098 z m 149.1997,-74.3763 c 48.25152,-5.3012 100.35903,-21.22397 112.05418,-34.241 3.26146,-3.63011 3.76848,-6.64741 3.48267,-20.72597 -0.75263,-37.07439 -20.73235,-200.68698 -25.43658,-208.29859 -1.23294,-1.99495 -7.39765,-1.86705 -32.72577,0.67898 -73.45185,7.3835 -185.09151,8.82948 -228.24553,2.95628 -9.69751,-1.3198 -18.07586,-1.95563 -18.61857,-1.41292 -3.5033,3.5033 -29.59579,206.28993 -29.59579,230.01376 0,8.6751 47.38525,22.63237 102.10932,30.07616 23.3281,3.1732 91.69892,3.7304 116.97607,0.9533 z"
     id="path77"
     transform="scale(0.75)" />
  <path
     style="fill:#c8b7b7;stroke:#000000;stroke-width:0.846668;stroke-linecap:round;stroke-linejoin:round;stroke-dasharray:none;stroke-opacity:0.530266"
     d="m 369.87835,1064.0786 c -13.85935,-0.8666 -31.46605,-2.5797 -39.126,-3.8069 -23.77062,-3.8083 -61.57522,-13.4059 -67.8599,-17.2279 -11.89806,-7.2356 -13.83055,-27.0468 -15.13677,-155.17712 -1.05092,-103.08592 -1.01054,-104.65831 2.79381,-108.78937 2.12307,-2.3054 10.57374,-16.64515 18.77925,-31.86612 l 14.91913,-27.67449 1.30503,-99.24644 1.30503,-99.24644 -11.24557,-49.62322 c -12.3032,-54.29023 -14.31164,-60.82769 -18.2261,-59.32557 -1.96692,0.75476 -2.59011,-1.28775 -2.59011,-8.48911 v -9.48303 h -12.2016 c -9.78473,0 -12.45145,-0.65106 -13.4629,-3.28685 -3.29329,-8.58221 -6.62809,-65.54747 -7.68456,-131.26842 -0.64122,-39.88944 -2.04633,-81.1608 -3.12244,-91.71413 -1.69532,-16.62572 -1.42157,-22.48737 2.05006,-43.89747 5.16208,-31.835293 13.0762,-67.15179 16.55884,-73.893282 2.70576,-5.237641 16.6613,-16.662493 20.35336,-16.662493 1.05491,0 0.60019,1.503011 -1.0105,3.340024 -4.63454,5.285743 -9.1146,15.147257 -9.1146,20.063056 0,2.478733 -1.8028,11.324735 -4.00623,19.657781 -2.92208,11.050914 -4.39207,24.406794 -5.43203,49.353864 -1.98608,47.64319 0.81056,165.13567 4.48641,188.48322 2.88796,18.34317 9.36939,40.94792 12.7366,44.42044 0.967,0.99723 1.75818,4.62979 1.75818,8.07234 0,9.35386 18.34981,94.03841 28.81445,132.97895 l 1.97651,7.35489 8.93898,-1.26406 c 4.91644,-0.69522 27.83398,-5.02633 50.92787,-9.62471 59.46442,-11.84031 70.85755,-13.05982 110.69165,-11.8484 32.11054,0.97653 37.73564,1.74086 85.89217,11.67072 28.34222,5.84414 53.24926,10.10491 55.34897,9.46835 2.09971,-0.63655 5.32066,-2.47719 7.15768,-4.0903 3.17609,-2.78898 3.34002,2.27827 3.34002,103.24571 V 710.86077 L 621.477,733.3303 c 6.42619,12.35824 14.70722,27.50617 18.40227,33.66206 l 6.71832,11.19252 -1.12177,103.32261 c -1.09028,100.42043 -2.97052,136.37991 -7.64692,146.24741 -3.28116,6.9235 -20.0682,14.338 -49.43591,21.8347 -49.41799,12.6151 -66.64072,14.6025 -133.19537,15.3707 -33.06624,0.3817 -71.45991,-0.015 -85.31927,-0.8817 z m 147.68001,-59.4226 c 41.35781,-6.70268 78.38835,-18.8865 89.63219,-29.49081 6.08965,-5.74328 6.41966,-6.73588 6.41966,-19.30876 0,-26.08807 -14.67036,-156.91889 -22.19689,-197.95273 l -3.11488,-16.98199 -23.13009,1.30147 c -12.72154,0.71581 -32.57759,2.12561 -44.12453,3.13288 -37.4591,3.26767 -142.52629,4.48508 -174.40653,2.02083 -16.14472,-1.24792 -31.69537,-2.73723 -34.55701,-3.30956 -3.6786,-0.73572 -5.5436,-0.15307 -6.36555,1.98899 -3.01184,7.84874 -21.17586,143.26679 -27.03533,201.55634 -2.95152,29.36145 -2.9443,29.60729 0.96412,32.81524 8.29678,6.80986 43.28582,17.13107 80.12483,23.6356 39.60491,6.9928 116.51632,7.2817 157.79001,0.5925 z"
     id="path78"
     transform="scale(0.75)" />
  <path
     style="fill:#c8b7b7;stroke:#000000;stroke-width:0.846668;stroke-linecap:round;stroke-linejoin:round;stroke-dasharray:none;stroke-opacity:0.530266"
     d="m 359.76835,1062.1241 c -23.97286,-1.9713 -35.12277,-3.9148 -67.44393,-11.756 -29.44589,-7.1436 -34.41693,-10.4705 -37.44592,-25.0611 -3.3745,-16.2549 -5.72057,-83.0526 -5.76577,-164.16391 l -0.0423,-75.97237 10.21215,-17.54832 c 5.61668,-9.65158 13.86834,-24.26302 18.337,-32.46984 l 8.12485,-14.92153 0.27171,-105.70323 0.2717,-105.70322 7.63434,-1.24169 c 4.19889,-0.68293 29.9648,-5.63007 57.25757,-10.99364 l 49.62322,-9.75195 45.80605,0.0295 45.80605,0.0295 43.89746,8.85169 c 54.30842,10.95099 62.22542,12.03215 67.48716,9.21615 l 4.0848,-2.18612 v 104.06836 104.06836 l 14.38888,26.89282 c 7.91389,14.79106 16.33808,30.04341 18.72042,33.8941 l 4.33153,7.00126 -1.3946,102.10932 c -1.43238,104.87503 -3.37606,138.65026 -8.42223,146.35176 -4.6311,7.0679 -19.82581,13.4854 -50.97763,21.5302 -46.79105,12.0836 -60.61986,13.5326 -136.96755,14.3514 -37.26513,0.3996 -76.77285,-0.015 -87.79493,-0.9214 z m 158.41259,-56.2204 c 34.51331,-5.91715 67.86365,-15.90565 83.28796,-24.9449 13.77189,-8.07086 14.78545,-11.8498 12.2129,-45.534 -4.96524,-65.01308 -20.95894,-190.63738 -24.76865,-194.54794 -0.83741,-0.85957 -21.60375,-0.0647 -46.14745,1.76636 -49.34022,3.68103 -176.88132,4.84588 -215.66019,1.96966 l -22.16562,-1.64402 -1.12973,4.5069 c -3.92327,15.6513 -25.63523,184.13314 -27.35855,212.29867 l -1.19292,19.49666 5.01363,3.28506 c 13.07988,8.57025 68.33603,22.48815 103.35335,26.03255 26.86129,2.7189 113.06981,0.9986 134.55527,-2.685 z"
     id="path79"
     transform="scale(0.75)" />
  <path
     style="fill:#c8b7b7;stroke:#000000;stroke-width:0.846668;stroke-linecap:round;stroke-linejoin:round;stroke-dasharray:none;stroke-opacity:0.530266"
     d="m 353.74032,1060.1247 c -25.9923,-2.3135 -73.61488,-12.9003 -85.68511,-19.0483 -14.0985,-7.1812 -15.1014,-16.2543 -16.4728,-149.02595 L 250.48609,785.91074 268.8641,753.46971 287.24211,721.0287 V 615.82401 510.61932 l 4.29431,-1.03731 c 2.36188,-0.57052 28.7106,-5.74007 58.55272,-11.48788 l 54.2584,-10.45056 42.12516,0.006 42.12517,0.006 47.71463,9.51246 c 26.24305,5.23185 52.6531,9.52352 58.689,9.53704 l 10.97437,0.0246 V 608.77012 710.8108 l 17.40575,32.03744 c 9.57315,17.6206 18.22134,33.05605 19.21817,34.30102 1.14504,1.43007 1.03507,41.13729 -0.29867,107.83508 -1.91989,96.01083 -3.52272,128.82816 -6.79575,139.14056 -1.79915,5.6686 -15.13342,12.3353 -39.22929,19.6132 -32.49434,9.8146 -59.72094,14.4882 -96.20599,16.514 -37.62242,2.0891 -122.25526,2.0154 -146.32977,-0.1275 z m 176.84643,-55.1513 c 40.10781,-8.10292 75.88228,-21.88458 82.32265,-31.71382 2.76573,-4.22106 3.03196,-8.50672 1.98535,-31.96094 C 613.14469,902.08015 598.561,777.67275 592.28097,748.39007 l -2.01009,-9.37272 -24.11631,1.21506 c -101.81274,5.12965 -159.56904,5.68764 -255.0127,2.46375 l -7.5919,-0.25643 -2.46027,13.36009 c -6.69214,36.3405 -24.96494,185.25822 -25.76102,209.9444 l -0.49238,15.26868 10.49722,5.22394 c 12.08274,6.01296 45.1596,14.98896 75.4658,20.47906 18.73328,3.3936 27.59488,3.7219 84.85537,3.1441 56.88892,-0.5741 66.25212,-1.1128 84.93206,-4.8866 z"
     id="path80"
     transform="scale(0.75)" />
  <path
     style="fill:#c8b7b7;stroke:#000000;stroke-width:0.846668;stroke-linecap:round;stroke-linejoin:round;stroke-dasharray:none;stroke-opacity:0.530266"
     d="m 347.36255,1057.9948 c -8.39778,-0.9488 -24.88687,-3.8757 -36.64244,-6.5042 -41.43843,-9.2656 -48.51583,-12.6955 -52.07147,-25.2356 -3.16371,-11.1578 -5.54416,-76.56154 -5.90114,-162.13614 l -0.3284,-78.72233 18.3658,-32.24315 18.36579,-32.24315 V 616.10943 511.30862 l 56.78042,-10.94216 56.78041,-10.94216 43.89747,0.0804 c 42.19886,0.0773 45.21872,0.33844 78.04307,6.74928 18.78008,3.66789 44.33126,8.14551 56.78041,9.95028 l 22.63481,3.28138 V 610.012 710.53836 l 15.47928,28.35648 c 8.51361,15.59609 17.27083,31.30726 19.46049,34.91372 l 3.98122,6.55721 -2.36081,106.04933 c -2.62474,117.9058 -3.76827,133.9408 -10.02696,140.6029 -6.99652,7.4474 -51.50988,21.5993 -85.69936,27.246 -34.38683,5.6792 -159.39647,8.0402 -197.53859,3.7308 z m 185.81825,-52.0161 c 27.00625,-6.27113 47.15359,-12.74883 62.85084,-20.20764 21.86966,-10.39171 22.34836,-11.67058 19.56405,-52.26579 -3.5742,-52.11203 -17.7122,-169.84415 -22.71512,-189.15696 -1.79123,-6.91469 4.73173,-6.69381 -89.01402,-3.0143 -44.6175,1.75122 -89.12967,2.21096 -134.04121,1.38447 l -67.24073,-1.23744 -0.96223,4.29652 c -6.4709,28.8935 -27.69328,201.25848 -27.72559,225.18311 l -0.0148,10.94223 9.06578,4.55533 c 11.70958,5.88379 38.06995,13.55337 66.59428,19.37567 22.01233,4.4931 24.64426,4.603 96.11262,4.0129 61.00433,-0.5037 75.86534,-1.1604 87.52611,-3.8681 z"
     id="path81"
     transform="scale(0.75)" />
  <path
     style="fill:#ffeeaa;stroke:#000000;stroke-width:0.846668;stroke-linecap:round;stroke-linejoin:round;stroke-dasharray:none;stroke-opacity:0.530266"
     d="m 339.7282,1055.3752 c -22.82529,-3.3555 -56.6558,-11.4663 -67.10432,-16.0882 -6.18356,-2.7353 -9.15719,-5.5012 -11.21861,-10.4348 -3.98606,-9.54 -6.27623,-62.62072 -6.92795,-160.57352 l -0.54689,-82.19684 18.56442,-32.86811 18.56443,-32.86811 V 616.43676 512.52791 l 4.29431,-0.96295 c 2.36188,-0.52962 26.96633,-5.33183 54.67656,-10.67158 l 50.38224,-9.70865 49.8185,0.70431 c 47.66324,0.67384 51.42859,1.00489 87.0359,7.65218 20.46958,3.82132 43.44418,7.9384 51.05466,9.14907 l 13.83725,2.2012 v 99.35049 99.3505 l 10.82217,20.17579 c 5.9522,11.0967 14.85147,27.15272 19.77617,35.68005 l 8.95398,15.50426 -1.62697,75.21855 c -2.02297,93.52679 -4.75041,153.18877 -7.43102,162.55177 -2.56921,8.974 -11.41107,13.8033 -42.2331,23.0671 -29.11841,8.7518 -50.14387,12.2949 -86.55338,14.5857 -43.3672,2.7286 -142.89904,2.1219 -164.13835,-1.0005 z m 183.2242,-46.6436 c 19.01597,-2.4859 57.75697,-14.04563 74.60439,-22.26079 20.05611,-9.77978 20.72579,-11.39576 19.24912,-46.44869 -2.49011,-59.1096 -19.50189,-194.34791 -25.19037,-200.25567 -2.20098,-2.28582 -13.72597,-2.31418 -79.51606,-0.19579 -42.31811,1.36262 -107.13214,2.09136 -144.03118,1.61938 l -67.08918,-0.85812 -1.16924,6.77966 c -8.82967,51.19758 -27.83646,208.99003 -27.83646,231.09551 0,4.47453 1.47582,5.80382 10.97437,9.88487 12.90507,5.54469 41.39285,13.76034 64.89592,18.71544 14.49949,3.0569 26.23798,3.5299 89.22235,3.5954 39.88944,0.041 78.53829,-0.7106 85.88634,-1.6712 z"
     id="path82"
     transform="scale(0.75)" />
  <path
     style="fill:#ffeeaa;stroke:#000000;stroke-width:0.635;stroke-linecap:round;stroke-linejoin:round;stroke-dasharray:none;stroke-opacity:0.530266"
     d="m 205.9483,23.797675 50.27929,-5.367897"
     id="path83" />
  <path
     style="fill:#ffeeaa;stroke:#000000;stroke-width:0.635;stroke-linecap:round;stroke-linejoin:round;stroke-dasharray:none;stroke-opacity:0.530266"
     d="m 414.22268,24.513394 -2.14716,-2.862879"
     id="path84" />
  <path
     style="fill:#ffeeaa;stroke:#000000;stroke-width:0.635;stroke-linecap:round;stroke-linejoin:round;stroke-dasharray:none;stroke-opacity:0.530266"
     d="m 472.91168,35.428117 1.25251,-2.683949"
     id="path85" />
  <path
     style="fill:#ffeeaa;stroke:#000000;stroke-width:0.635;stroke-linecap:round;stroke-linejoin:round;stroke-dasharray:none;stroke-opacity:0.530266"
     d="M 463.78626,20.755867 414.9384,12.704022"
     id="path86" />
  <path
     style="fill:#ffeeaa;stroke:#000000;stroke-width:0.846668;stroke-linecap:round;stroke-linejoin:round;stroke-dasharray:none;stroke-opacity:0.530266"
     d="m 252.52551,57.427532 c -1.07707,-0.321511 -1.24196,-1.876958 -0.37923,-3.577567 1.41795,-2.795083 4.32129,-6.367476 9.31725,-11.46433 5.02901,-5.130581 9.15715,-8.388957 10.62825,-8.388957 1.11074,0 2.9026,-0.663613 3.60254,-1.334201 0.6431,-0.616132 0.81904,-0.652514 3.84442,-0.795021 1.74376,-0.08214 3.2997,-0.230393 3.45763,-0.329457 0.15794,-0.09906 4.15471,-0.597834 8.88172,-1.108379 7.00001,-0.756043 8.73057,-0.876921 9.32771,-0.651529 0.61208,0.231036 0.85628,0.206065 1.47882,-0.15122 0.56587,-0.324769 2.60888,-0.626627 8.47316,-1.251927 4.25013,-0.453185 12.19596,-1.303669 17.65741,-1.889965 5.46145,-0.586296 9.96331,-1.032582 10.00415,-0.991748 0.0408,0.04083 -0.75787,0.786189 -1.77489,1.656345 -1.01703,0.870156 -3.57986,3.347225 -5.69518,5.504598 -4.30556,4.391142 -6.19484,5.908138 -8.10986,6.511794 -1.23241,0.388483 -1.41518,0.388805 -3.26344,0.0057 -3.8861,-0.805405 -4.9343,-0.321298 -3.84892,1.777605 0.2065,0.399324 0.31997,0.781526 0.25216,0.849338 -0.0678,0.06781 -1.49822,-0.157371 -3.17869,-0.500406 -3.64613,-0.744291 -3.91287,-0.753787 -4.63933,-0.165176 -0.52633,0.426462 -0.5421,0.508488 -0.24083,1.25251 0.62511,1.543723 0.62574,1.869831 0.004,1.868849 -0.70823,-0.0011 -2.00394,-0.776641 -2.33684,-1.398675 -0.6417,-1.199011 -4.20832,-1.261034 -8.36713,-0.145502 -3.07979,0.826102 -5.14277,1.828344 -6.26623,3.044277 l -0.92931,1.005811 -3.73836,0.0071 c -4.41357,0.0084 -5.44067,0.304292 -7.88092,2.270666 -2.56949,2.070524 -3.07156,2.249929 -6.35465,2.27073 -2.55932,0.01622 -3.11008,0.09993 -5.19424,0.78953 -1.28224,0.424261 -4.18091,1.608837 -6.44147,2.632392 -2.26057,1.023552 -4.48587,1.9828 -4.94513,2.13166 -1.22373,0.396659 -2.93808,0.686361 -3.34422,0.565128 z"
     id="path87"
     transform="scale(0.75)" />
  <path
     style="fill:#916f6f;stroke:#000000;stroke-width:0.846669;stroke-linecap:round;stroke-linejoin:round;stroke-dasharray:none;stroke-opacity:0.530266"
     d="m 625.52741,44.940006 c -10.43236,-3.830532 -9.68034,-3.664021 -11.41495,-2.52746 -1.50027,0.983015 -1.62537,0.96065 -1.96862,-0.351954 -0.32596,-1.246483 -0.69961,-1.351727 -3.37477,-0.950562 -2.63161,0.394634 -2.99584,0.299407 -2.90935,-0.760642 0.0807,-0.988895 -0.58369,-1.283684 -3.61246,-1.602876 -2.04123,-0.215119 -4.54374,-0.737995 -5.56113,-1.161947 -2.03423,-0.847671 -3.3995,-0.536221 -5.83255,1.330539 -2.14137,1.642967 -3.88364,1.561194 -4.34523,-0.203943 -0.36346,-1.389853 -0.64654,-1.427642 -8.34484,-1.113977 -4.38274,0.178574 -6.82992,0.201202 -5.43817,0.05028 1.52394,-0.165252 2.53045,-0.63285 2.53045,-1.175582 0,-1.884974 -5.29441,-2.402642 -7.01149,-0.685559 -0.92988,0.929881 -1.44013,0.830198 -5.03231,-0.983127 -2.19862,-1.109862 -5.47441,-2.378486 -7.27953,-2.819163 -1.80512,-0.440678 -3.61398,-1.058722 -4.0197,-1.373432 -0.71287,-0.552967 -4.99802,-8.32452 -4.99802,-9.064422 0,-0.200565 1.68114,-1.108142 3.73586,-2.016839 3.52264,-1.55788 4.01368,-1.608097 8.60353,-0.879859 2.67722,0.424774 5.15614,1.033135 5.50872,1.351915 0.35258,0.318779 2.02267,0.584871 3.71133,0.591316 1.68865,0.0064 5.19574,0.461925 7.79353,1.01218 2.59779,0.550255 5.43906,1.000463 6.31393,1.000463 0.87487,0 3.60787,0.431714 6.07333,0.959364 2.46547,0.527649 9.76924,1.77091 16.23062,2.7628 l 11.74794,1.803438 3.43476,3.743483 c 3.62781,3.953882 10.48284,12.985676 10.50621,13.842365 0.0215,0.785803 -1.37797,0.570419 -5.04709,-0.776803 z"
     id="path88"
     transform="scale(0.75)" />
  <path
     style="fill:#ac9393;stroke:#000000;stroke-width:0.846668;stroke-linecap:round;stroke-linejoin:round;stroke-dasharray:none;stroke-opacity:0.530266"
     d="m 346.40825,1054.5303 c -31.13274,-3.374 -70.92577,-13.9293 -78.69984,-20.8755 -4.57881,-4.0911 -5.88815,-7.231 -7.24186,-17.3665 -0.90887,-6.8048 -2.64168,-60.89816 -3.85068,-120.20745 l -2.19819,-107.83507 19.27509,-34.15817 19.27509,-34.15816 V 616.59107 513.25268 l 53.04585,-10.163 53.04585,-10.16301 53.35779,0.94184 c 52.33778,0.92383 54.17871,1.09227 96.30096,8.81165 23.61874,4.32839 44.87561,8.31485 47.23749,8.85878 l 4.29431,0.98897 0.0242,98.73293 0.0242,98.73293 20.17988,36.25124 20.17985,36.25125 -2.1284,82.08104 c -2.39834,92.49095 -5.18894,147.8912 -7.79475,154.745 -2.38707,6.2785 -11.00804,11.1859 -31.43931,17.8967 -47.38768,15.5647 -64.59665,17.5249 -160.32118,18.261 -43.0386,0.3309 -84.69347,-0.096 -92.56639,-0.9497 z m 185.13279,-46.1178 c 32.85574,-6.1158 73.16711,-21.39041 82.06917,-31.09727 4.61712,-5.03454 4.7581,-5.98197 4.3582,-29.28843 -0.48461,-28.24307 -2.71313,-54.80384 -9.32264,-111.11209 -5.27531,-44.94187 -13.31971,-95.40246 -15.56138,-97.61279 -2.09891,-2.06956 -8.27166,-2.09086 -157.19514,-0.54237 l -136.68638,1.42125 -2.27225,15.44385 c -8.61433,58.54911 -21.74568,167.02367 -25.80219,213.14487 -1.34179,15.25582 -0.43686,16.32852 19.93085,23.62588 30.70853,11.0023 57.08072,16.7276 83.97775,18.2313 33.36899,1.8655 142.91255,0.3157 156.50401,-2.2142 z"
     id="path89"
     transform="scale(0.75)" />
  <path
     style="fill:#c83737;stroke:#000000;stroke-width:0.846668;stroke-linecap:round;stroke-linejoin:round;stroke-dasharray:none;stroke-opacity:0.530266"
     d="m 622.48451,43.147704 c -5.08631,-1.92114 -7.06286,-2.23917 -8.64706,-1.391332 -0.7227,0.386777 -1.01204,0.279256 -1.44983,-0.538765 -0.48627,-0.908598 -0.83257,-0.992497 -3.12149,-0.75626 -1.416,0.146144 -2.57454,0.08185 -2.57454,-0.142873 0,-0.938326 -1.52925,-1.812188 -3.67425,-2.09958 -1.25954,-0.168757 -3.75584,-0.669815 -5.54733,-1.113462 l -3.25726,-0.806632 -3.09248,1.652174 -3.09248,1.652173 -0.96655,-1.312152 c -0.9519,-1.292281 -1.04542,-1.312153 -6.17535,-1.312153 -4.73921,0 -5.20881,-0.07913 -5.20881,-0.877703 0,-1.900903 -4.39739,-2.60319 -7.38355,-1.179192 -1.66986,0.796304 -1.72879,0.787483 -4.90694,-0.734559 -1.76922,-0.847297 -5.01724,-2.122532 -7.21781,-2.833854 l -4.00104,-1.293314 -2.29247,-4.055744 c -1.26086,-2.230659 -2.14434,-4.196866 -1.96329,-4.36935 0.18105,-0.172483 1.71337,-0.890802 3.40516,-1.596264 2.71113,-1.130518 3.44593,-1.243041 6.1949,-0.948652 1.71541,0.183704 4.41081,0.718608 5.9898,1.188674 1.57899,0.470066 4.37423,0.967439 6.21166,1.105272 1.83743,0.137833 5.27289,0.587151 7.63435,0.998483 10.52973,1.834132 21.61769,3.665229 29.10517,4.806513 4.46132,0.680019 8.54592,1.327678 9.07689,1.439243 1.35504,0.284709 13.58756,14.821026 13.58756,16.146552 0,0.640745 -1.7928,0.200923 -6.63296,-1.627243 z"
     id="path90"
     transform="scale(0.75)" />
  <path
     style="fill:#ff0000;stroke:#000000;stroke-width:0.846669;stroke-linecap:round;stroke-linejoin:round;stroke-dasharray:none;stroke-opacity:0.530266;fill-opacity:1"
     d="m 257.62162,356.79354 c -5.15536,-9.26746 -9.85785,-29.13563 -12.97659,-54.82643 -3.5414,-29.17251 -4.78067,-53.36097 -5.22035,-101.89281 -0.4801,-52.99244 0.58699,-81.65037 3.90708,-104.929355 2.44731,-17.159467 5.10925,-25.02175 10.11424,-29.873363 20.68106,-20.047281 120.83418,-33.474993 228.48837,-30.633853 55.90423,1.475388 94.11777,4.543362 127.40881,10.229014 6.31512,1.078536 13.54094,2.171917 16.0574,2.429734 4.3482,0.445487 4.62066,0.577149 5.48749,2.651756 0.50165,1.200648 1.2427,2.38731 1.64675,2.637028 0.40405,0.249718 1.63146,3.399241 2.72756,6.998941 3.95381,12.984633 5.95572,26.608794 6.80677,46.323968 0.84138,19.49123 0.82644,94.88694 -0.0241,121.495 -1.43916,45.02362 -7.1693,107.21593 -11.14433,120.95554 -0.92987,3.2141 -1.20477,3.54263 -2.96419,3.54263 -1.0666,0 -6.17329,-1.65072 -11.34822,-3.66828 -19.51433,-7.60808 -51.62481,-14.9451 -89.91719,-20.54543 -17.69956,-2.5886 -25.35061,-3.27414 -46.89768,-4.2021 -18.07159,-0.77828 -45.9953,-0.40783 -58.93703,0.78188 -20.0247,1.84083 -59.39108,7.78719 -84.97519,12.83565 -34.98561,6.90365 -56.85902,13.07399 -70.24771,19.81643 -2.62609,1.32248 -5.18186,2.40451 -5.67948,2.40451 -0.49763,0 -1.53822,-1.13871 -2.31242,-2.53046 z"
     id="path91"
     transform="scale(0.75)" />
  <path
     style="fill:#ffeeaa;stroke:#000000;stroke-width:0.846669;stroke-linecap:round;stroke-linejoin:round;stroke-dasharray:none;stroke-opacity:0.530266"
     d="m 623.50305,42.736702 c -1.85567,-0.763532 -5.19586,-1.669471 -7.42266,-2.013198 -7.68152,-1.185714 -8.77463,-1.410297 -9.44702,-1.94093 -0.37113,-0.29289 -3.37371,-1.172137 -6.67239,-1.953883 l -5.99761,-1.421355 -2.90608,1.703077 c -2.68019,1.570696 -2.95663,1.612758 -3.55634,0.541124 -0.49732,-0.888664 -1.81542,-1.227613 -5.60423,-1.441127 -3.49868,-0.197163 -5.42671,-0.650679 -6.56324,-1.543817 -1.78049,-1.399197 -4.85071,-1.646767 -6.88966,-0.555556 -1.04876,0.56128 -2.84244,0.121603 -8.60491,-2.109285 -7.00506,-2.711941 -7.34833,-2.939963 -9.08989,-6.038136 -0.99546,-1.77087 -1.80992,-3.418246 -1.80992,-3.660835 0,-0.788116 4.62122,-2.396486 6.89489,-2.399698 1.2181,-0.0017 4.64396,0.46527 7.61303,1.037758 2.96906,0.572487 15.85683,2.710751 28.63949,4.751696 12.78266,2.040945 23.63394,4.036752 24.11395,4.435127 0.79585,0.660497 8.79428,10.07651 10.9494,12.889997 1.14216,1.491075 0.54877,1.445359 -3.64681,-0.280959 z"
     id="path92"
     transform="scale(0.75)" />
  <path
     style="fill:#ffeeaa;stroke:#000000;stroke-width:0.846669;stroke-linecap:round;stroke-linejoin:round;stroke-dasharray:none;stroke-opacity:0.530266"
     d="m 252.70767,55.54452 c 0,-0.759418 1.03701,-2.787887 2.30447,-4.507707 3.31659,-4.500313 14.60298,-15.339416 16.58957,-15.932106 0.92783,-0.276815 2.59792,-0.895946 3.71132,-1.375846 1.73001,-0.745672 12.82589,-2.206338 24.96712,-3.286682 1.85566,-0.165119 10.15186,-1.08499 18.43599,-2.044158 8.28413,-0.959167 15.56423,-1.743941 16.17799,-1.743941 1.32349,0 -8.054,9.735432 -10.75046,11.160815 -1.21651,0.643061 -2.88059,0.80953 -5.26703,0.526891 -3.14808,-0.372843 -3.52461,-0.275711 -3.85689,0.994941 -0.32883,1.257464 -0.72057,1.366391 -3.66141,1.018091 -2.99716,-0.354968 -3.34498,-0.250025 -3.86933,1.167427 -0.37769,1.021009 -0.74434,1.285297 -1.06448,0.7673 -0.68832,-1.113726 -7.10487,-0.986607 -10.49024,0.207823 -1.55572,0.548888 -3.69043,1.611677 -4.74382,2.361754 -1.40144,0.997914 -2.98306,1.363777 -5.89556,1.363777 -3.30933,0 -4.42931,0.325491 -6.6437,1.930817 -1.90282,1.379446 -3.75926,2.038704 -6.50095,2.308617 -2.11066,0.207789 -6.51365,1.488869 -9.78441,2.846843 -8.99664,3.735276 -9.65818,3.888384 -9.65818,2.235344 z"
     id="path93"
     transform="scale(0.75)" />
  <path
     style="fill:#ffeeaa;stroke:#000000;stroke-width:0.846669;stroke-linecap:round;stroke-linejoin:round;stroke-dasharray:none;stroke-opacity:0.530266"
     d="m 254.46824,53.476858 c 1.89699,-3.713028 14.36463,-15.89509 18.12988,-17.714609 3.88699,-1.878348 9.566,-2.73138 38.14122,-5.729106 10.57729,-1.109626 20.14239,-2.17203 21.25579,-2.360898 1.8573,-0.315059 1.59982,0.07424 -3.12014,4.717514 l -5.1445,5.060911 h -4.39902 c -3.28775,0 -4.49714,0.255694 -4.78743,1.01218 -0.27284,0.71101 -1.38188,1.01218 -3.72729,1.01218 -1.83638,0 -3.44477,0.317668 -3.57419,0.705929 -0.13086,0.392604 -2.62671,0.782227 -5.62322,0.877833 -4.53626,0.144731 -6.05151,0.513128 -9.58609,2.330612 -2.96564,1.524938 -5.12744,2.158708 -7.36337,2.158708 -2.158,0 -4.0804,0.536348 -6.04131,1.685516 -1.58186,0.927033 -4.94874,2.122741 -7.48194,2.657127 -2.5332,0.534386 -7.40318,2.053309 -10.82217,3.375385 -3.41898,1.322077 -6.38741,2.403775 -6.5965,2.403775 -0.20908,0 0.12404,-0.986876 0.74028,-2.193057 z"
     id="path94"
     transform="scale(0.75)" />
  <path
     style="fill:#ffeeaa;stroke:#000000;stroke-width:0.84666667;stroke-linecap:round;stroke-linejoin:round;stroke-dasharray:none;stroke-opacity:0.53026599"
     d="m 255.40682,53.510533 c 0,-1.349851 15.03657,-15.716154 17.80134,-17.007829 1.44024,-0.672871 5.08409,-1.64206 8.09744,-2.153754 4.61511,-0.783689 47.06068,-5.670509 49.25248,-5.670509 0.39601,0 -1.0829,1.821924 -3.28646,4.048721 l -4.00647,4.048721 h -4.15592 c -2.74817,0 -4.42273,0.32149 -4.9436,0.949096 -0.43322,0.522002 -2.21641,1.113899 -3.96265,1.315325 -12.18324,1.405322 -14.70275,1.908339 -18.99544,3.792415 -2.55714,1.122333 -5.66123,2.047275 -6.89799,2.055426 -1.23676,0.0082 -3.5771,0.617592 -5.20077,1.354315 -1.62367,0.736723 -6.14616,2.269937 -10.04997,3.407141 -3.90382,1.137205 -8.57253,2.648911 -10.37492,3.359346 -2.21802,0.874263 -3.27707,1.03636 -3.27707,0.501586 z"
     id="path95"
     transform="scale(0.75)" />
  <path
     style="fill:#ffeeaa;stroke:#000000;stroke-width:0.846668;stroke-linecap:round;stroke-linejoin:round;stroke-dasharray:none;stroke-opacity:0.530266"
     d="m 565.95638,34.843978 c -0.40781,-0.141225 -1.60964,-0.668843 -1.58337,-0.695116 0.008,-0.0079 0.34372,0.07947 0.74618,0.194236 0.84737,0.241629 1.50224,0.376515 2.03915,0.420009 l 0.37957,0.03075 -0.28556,0.09481 c -0.42662,0.141647 -0.79453,0.12896 -1.29597,-0.04469 z"
     id="path96"
     transform="scale(0.75)" />
  <path
     style="fill:#ffeeaa;stroke:#000000;stroke-width:0.846668;stroke-linecap:round;stroke-linejoin:round;stroke-dasharray:none;stroke-opacity:0.530266"
     d="m 563.3464,34.153993 c -1.07429,-0.52083 -3.027,-1.326942 -4.89702,-2.021575 -0.85492,-0.317567 -2.74678,-0.951324 -5.3391,-1.788562 l -0.9319,-0.300974 -1.28968,-2.284839 c -0.70932,-1.256662 -1.4367,-2.560026 -1.6164,-2.896365 -0.66442,-1.243577 -1.28785,-2.641134 -1.34827,-3.022426 -0.0272,-0.171987 -0.024,-0.178108 0.15622,-0.292027 0.38458,-0.243121 2.26581,-1.093731 3.72669,-1.685048 1.94522,-0.787357 2.83485,-0.962034 4.40209,-0.864335 2.09991,0.130905 4.74391,0.5982 7.17473,1.268049 2.08954,0.575807 4.2283,0.951462 6.60025,1.159283 2.49607,0.218694 5.30012,0.610778 9.04637,1.26493 2.78617,0.48651 8.0929,1.387314 11.19724,1.900707 1.06701,0.17646 1.95554,0.33556 1.97452,0.353555 0.019,0.018 0.0285,0.09755 0.0211,0.176778 l -0.0134,0.14406 -3.07784,-0.494348 c -1.69281,-0.271892 -3.08521,-0.486968 -3.09423,-0.477948 -0.0268,0.02679 0.061,0.04227 3.11444,0.549361 1.61211,0.267727 2.96432,0.496767 3.00491,0.508979 0.0541,0.01627 0.0738,0.06672 0.0738,0.188862 0,0.151414 -0.009,0.16459 -0.0949,0.14405 -0.0522,-0.01243 -1.21461,-0.201636 -2.58317,-0.42045 -10.96314,-1.752862 -21.79866,-3.555968 -26.10581,-4.34419 -3.90303,-0.714267 -6.72108,-1.078968 -7.88657,-1.02065 -2.05264,0.102707 -5.72175,1.306699 -6.47783,2.125652 -0.0914,0.09904 -0.16443,0.2209 -0.16422,0.274132 10e-4,0.311341 1.50758,3.241208 2.43214,4.730634 1.13799,1.833239 2.04207,2.432141 6.15466,4.077101 2.30888,0.923511 4.50438,1.75519 5.9629,2.258809 0.49871,0.172202 0.93522,0.324493 0.97001,0.338425 0.0389,0.01558 -0.0144,0.04608 -0.13845,0.07923 -0.11094,0.02964 -0.22931,0.0768 -0.26304,0.104796 -0.0347,0.02884 -0.10727,0.03937 -0.16731,0.0243 -0.12935,-0.03246 -0.14079,0.007 -0.0155,0.05338 0.066,0.02442 0.0925,0.07259 0.0978,0.177881 0.004,0.07942 0.0222,0.17761 0.0405,0.218202 0.0527,0.116869 -0.0348,0.08877 -0.64571,-0.207418 z m 0.0163,-0.459683 c -0.93246,-0.455881 -3.15176,-1.363239 -5.01873,-2.0519 -1.02897,-0.379552 -2.92971,-1.010364 -2.98692,-0.991293 -0.14813,0.04938 8.06126,3.235829 8.32196,3.230144 0.0348,-7.6e-4 -0.10755,-0.08489 -0.31631,-0.186951 z m -8.08576,-3.078236 c -0.0129,-0.01291 -0.27703,-0.141924 -0.58693,-0.286706 -1.44385,-0.674548 -2.32917,-1.307397 -2.9944,-2.140472 -0.1647,-0.206264 -0.30806,-0.375026 -0.31856,-0.375026 -0.0105,0 0.0377,0.09964 0.10718,0.221415 0.0694,0.121778 0.31282,0.551724 0.54083,0.955435 l 0.41455,0.734021 1.39174,0.453702 c 1.37581,0.448511 1.49149,0.483531 1.44559,0.437631 z m -4.32713,-3.607893 c -1.1291,-1.991018 -1.93859,-3.532097 -2.26284,-4.30793 -0.0654,-0.156571 -0.13386,-0.284675 -0.15206,-0.284675 -0.191,0 1.64213,3.570775 2.60151,5.067505 0.339,0.528873 0.24056,0.278344 -0.18661,-0.4749 z m 34.99716,-2.732582 c -0.0817,-0.04551 -0.44903,-0.101938 -0.41008,-0.06299 0.0288,0.0288 0.28309,0.08751 0.41008,0.09467 0.0562,0.0032 0.0562,-3.37e-4 0,-0.03168 z m -0.50609,-0.08871 c -0.0826,-0.05338 -0.13842,-0.05338 -0.10543,0 0.0143,0.0232 0.0581,0.04188 0.0974,0.04153 0.0615,-5.57e-4 0.0626,-0.0063 0.008,-0.04153 z m -0.66424,-0.112279 c -0.029,-0.0117 -0.0764,-0.0117 -0.10544,0 -0.029,0.0117 -0.005,0.02127 0.0527,0.02127 0.058,0 0.0817,-0.0096 0.0527,-0.02127 z m -0.20033,-0.03638 c -0.0232,-0.0085 -0.7254,-0.131259 -1.56044,-0.272769 -0.83505,-0.14151 -2.66647,-0.455531 -4.06981,-0.697825 -2.85109,-0.492253 -5.72192,-0.932933 -5.76926,-0.885595 -0.0229,0.0229 0.063,0.03781 2.9225,0.507512 1.48453,0.243849 3.95172,0.649946 5.48264,0.902439 2.41193,0.397796 3.17033,0.510817 2.99437,0.446238 z m -35.9355,-2.080568 c 0.17002,-0.328784 0.44425,-0.481868 2.23833,-1.249496 1.12401,-0.480924 1.24143,-0.524415 1.87644,-0.694956 1.74621,-0.468974 2.80809,-0.581516 4.21773,-0.447012 0.99554,0.09499 2.59792,0.302679 3.60589,0.467367 0.0978,0.01597 0.10736,0.01227 0.0422,-0.01628 -0.20068,-0.08792 -2.16785,-0.411711 -3.23139,-0.531871 -2.11566,-0.239031 -3.16233,-0.140286 -4.70325,0.443716 -0.25191,0.09547 -0.73321,0.268895 -1.06955,0.385382 -1.10571,0.382949 -1.90151,0.735 -2.43509,1.077242 -0.13656,0.08759 -0.38468,0.224601 -0.55139,0.304469 -0.16671,0.07987 -0.30311,0.159813 -0.30311,0.177658 0,0.01784 0.0415,0.142282 0.0922,0.276528 l 0.0922,0.244083 0.0339,-0.159523 c 0.0187,-0.08774 0.0614,-0.212524 0.0949,-0.277302 z m 24.41984,0.211554 c -0.022,-0.01952 -1.08388,-0.208995 -2.35964,-0.421058 -3.0286,-0.503425 -5.18011,-0.875293 -7.00092,-1.21004 -1.7942,-0.329856 -2.94651,-0.525021 -2.96877,-0.502818 -0.0238,0.02376 0.0253,0.03637 0.7968,0.204556 0.38273,0.08343 0.9426,0.218487 1.24414,0.300115 2.6934,0.729107 4.51109,1.065129 6.95874,1.286408 0.9444,0.08538 2.6373,0.269703 3.05763,0.332917 0.12757,0.01919 0.24999,0.03725 0.27202,0.04015 0.0253,0.0033 0.0253,-0.0078 0,-0.03023 z"
     id="path97"
     transform="scale(0.75)" />
  <path
     style="fill:#ffeeaa;stroke:#000000;stroke-width:0.846668;stroke-linecap:round;stroke-linejoin:round;stroke-dasharray:none;stroke-opacity:0.530266"
     d="m 563.17289,34.050404 c -2.68654,-1.242095 -4.83769,-2.034726 -10.56039,-3.891153 l -0.41749,-0.135433 -0.16667,-0.293121 c -0.71886,-1.264235 -2.3394,-4.158321 -2.67128,-4.770592 -0.75292,-1.389006 -1.37976,-2.807911 -1.38495,-3.134968 l -0.003,-0.189784 0.37957,-0.198486 c 0.8618,-0.450656 2.91736,-1.352526 4.1076,-1.802193 1.36274,-0.514833 2.17595,-0.662774 3.4179,-0.621792 2.03251,0.06707 4.45781,0.480614 7.59394,1.294863 0.61469,0.159594 1.36118,0.342773 1.65885,0.407064 0.96835,0.209136 0.49436,0.149837 -1.07353,-0.134307 -1.58253,-0.286797 -3.21124,-0.568855 -3.28479,-0.568855 -0.023,0 -0.0419,0.01549 -0.0419,0.03442 0,0.01893 0.31789,0.106288 0.70642,0.194125 0.38853,0.08784 1.06701,0.254352 1.50773,0.370034 0.44072,0.115682 1.19036,0.302346 1.66588,0.414808 0.47551,0.112463 0.8315,0.205644 0.79107,0.20707 -0.0404,0.0014 -0.97036,-0.157297 -2.06653,-0.352718 -5.30739,-0.946177 -7.32265,-1.142972 -8.88679,-0.867821 -1.53018,0.269176 -3.68613,0.960266 -4.63418,1.485481 -0.66582,0.368864 -0.91579,0.615808 -0.88158,0.870895 0.0523,0.389792 1.35274,2.935166 2.27356,4.450042 1.11622,1.836306 1.91204,2.451994 4.73204,3.660923 1.71135,0.733651 5.60519,2.234954 7.64955,2.949347 0.42324,0.147902 0.7696,0.278693 0.76967,0.290645 2.1e-4,0.03358 -0.40072,0.168052 -0.50106,0.168052 -0.11019,0 -0.11249,0.02934 -0.009,0.119762 0.0765,0.06709 0.15678,0.387082 0.0968,0.385624 -0.0159,-3.79e-4 -0.3611,-0.154257 -0.76702,-0.341934 z m 0.43388,-0.244127 c -0.20968,-0.175007 -2.87551,-1.291787 -4.84109,-2.028042 -1.20833,-0.452614 -3.29429,-1.148298 -3.38631,-1.129367 -0.10246,0.02108 0.22062,0.163341 1.88913,0.831863 2.21994,0.889463 4.91464,1.916851 6.17852,2.355636 0.20444,0.07098 0.26677,0.05923 0.15975,-0.03009 z m -8.32046,-3.187717 c 0,-0.01154 -0.33909,-0.190107 -0.75353,-0.396819 -1.5913,-0.79369 -2.0944,-1.173988 -3.01224,-2.277002 -0.24847,-0.298596 -0.14576,-0.06083 0.36681,0.849099 l 0.53151,0.943568 0.28448,0.09331 c 1.44774,0.474835 2.48666,0.806392 2.53026,0.807495 0.029,7.34e-4 0.0527,-0.0081 0.0527,-0.01965 z m -3.92219,-2.879418 c 0,-0.01791 -0.29084,-0.554045 -0.64632,-1.191421 -0.86473,-1.550505 -1.40955,-2.57416 -1.71945,-3.230628 -0.14099,-0.29867 -0.30204,-0.639597 -0.35788,-0.757615 -0.0972,-0.205493 -0.0989,-0.22347 -0.0392,-0.424611 0.12554,-0.422738 0.39371,-0.589932 2.17357,-1.355163 1.42232,-0.611509 2.07757,-0.816809 3.47818,-1.089769 0.5459,-0.10639 0.67155,-0.115211 1.66588,-0.116962 1.16037,-0.002 1.52542,0.0314 3.66672,0.335885 1.38355,0.196737 1.49161,0.144835 0.18221,-0.08752 -2.17486,-0.385927 -3.92425,-0.544737 -4.90329,-0.445125 -0.89688,0.09125 -1.2513,0.190981 -3.21612,0.904977 -1.23227,0.447789 -1.74408,0.669992 -2.35925,1.024263 -0.26214,0.150964 -0.58575,0.329923 -0.71912,0.397687 -0.13338,0.06776 -0.24251,0.151118 -0.24251,0.185231 0,0.163412 0.33894,1.043178 0.64993,1.68699 0.92343,1.911682 2.38662,4.464411 2.38662,4.163777 z"
     id="path98"
     transform="scale(0.75)" />
  <path
     style="fill:#ffeeaa;stroke:#000000;stroke-width:0.846666;stroke-linecap:round;stroke-linejoin:round;stroke-dasharray:none;stroke-opacity:0.530266"
     d="m 615.72755,29.504708 c -0.90932,-0.26376 -4.47055,-0.977837 -8.33194,-1.670666 -0.5805,-0.104156 -1.03508,-0.193393 -1.01018,-0.198305 0.0722,-0.01423 5.91274,0.892125 8.10882,1.258345 l 0.94368,0.157369 0.18954,0.136679 c 0.25132,0.181226 0.49898,0.407696 0.44303,0.405131 -0.0246,-0.0011 -0.17893,-0.04098 -0.34295,-0.08855 z"
     id="path99"
     transform="scale(0.75)" />
  <path
     style="fill:#ffeeaa;stroke:#000000;stroke-width:0.846666;stroke-linecap:round;stroke-linejoin:round;stroke-dasharray:none;stroke-opacity:0.530266"
     d="m 613.04886,41.437988 c -0.044,-0.05229 -0.13561,-0.191286 -0.20358,-0.308881 -0.068,-0.117594 -0.16951,-0.285462 -0.22565,-0.373039 -0.081,-0.126388 -0.0909,-0.15603 -0.0478,-0.143704 0.0299,0.0085 0.50383,0.08466 1.05329,0.169159 0.97465,0.149882 1.11992,0.176495 1.05867,0.193954 -0.39456,0.112474 -0.6347,0.200699 -0.94657,0.34777 -0.20898,0.09855 -0.43135,0.186073 -0.49416,0.194497 -0.10079,0.01352 -0.1236,0.0042 -0.1942,-0.07976 z"
     id="path100"
     transform="scale(0.75)" />
  <path
     style="fill:#782828;stroke:#000000;stroke-width:0.846666;stroke-linecap:round;stroke-linejoin:round;stroke-dasharray:none;stroke-opacity:0.530266;fill-opacity:1"
     d="m 607.21121,40.075954 c -0.10104,-0.01284 -0.10936,-0.02267 -0.15875,-0.187536 -0.0287,-0.09569 -0.0983,-0.244163 -0.15482,-0.329937 -0.0565,-0.08577 -0.0857,-0.148507 -0.0649,-0.139407 0.40945,0.179253 1.25819,0.417029 1.94295,0.544321 0.25313,0.04706 0.28263,0.05833 0.20875,0.07981 -0.0933,0.02712 -1.59874,0.05492 -1.77322,0.03275 z"
     id="path101"
     transform="scale(0.75)" />
  <path
     style="fill:#782828;fill-opacity:1;stroke:#000000;stroke-width:0.846668;stroke-linecap:round;stroke-linejoin:round;stroke-dasharray:none;stroke-opacity:0.530266"
     d="m 254.23649,55.059065 c 0,-0.01615 0.19161,-0.480119 0.27896,-0.675463 0.0519,-0.115979 0.17485,-0.371412 0.27331,-0.567629 l 0.17903,-0.356758 0.0137,0.13092 c 0.025,0.239387 0.16305,0.444043 0.37104,0.550153 0.27799,0.141819 0.70335,0.141153 1.31569,-0.0021 0.10226,-0.02392 0.19019,-0.03923 0.19539,-0.03403 0.0129,0.01286 -1.30997,0.500082 -2.30552,0.84917 -0.17687,0.06202 -0.32158,0.109581 -0.32158,0.105696 z"
     id="path102"
     transform="scale(0.75)" />
  <path
     style="fill:#782828;fill-opacity:1;stroke:#000000;stroke-width:0.846668;stroke-linecap:round;stroke-linejoin:round;stroke-dasharray:none;stroke-opacity:0.530266"
     d="m 253.31614,56.108198 c -0.0965,-0.01213 -0.12919,-0.06188 -0.1568,-0.238614 -0.0511,-0.327065 0.007,-0.638535 0.21712,-1.159132 0.12925,-0.3206 0.47608,-1.044678 0.49252,-1.028235 0.007,0.0065 -0.0114,0.05788 -0.0398,0.114122 -0.0284,0.05624 -0.11315,0.244598 -0.18829,0.418567 -0.42555,0.985358 -0.50337,1.478638 -0.27226,1.7258 0.061,0.06523 0.19019,0.138974 0.25024,0.142832 0.056,0.0036 -0.1221,0.03768 -0.18367,0.03516 -0.029,-0.0012 -0.0826,-0.0059 -0.11904,-0.0105 z"
     id="path103"
     transform="scale(0.75)" />
  <path
     style="fill:#782828;fill-opacity:1;stroke:#000000;stroke-width:0.846668;stroke-linecap:round;stroke-linejoin:round;stroke-dasharray:none;stroke-opacity:0.530266"
     d="m 254.0467,55.98643 c 0,-0.01603 -0.0749,-0.08712 -0.16653,-0.157982 -0.20617,-0.159492 -0.22579,-0.200377 -0.19207,-0.400304 0.0296,-0.175177 0.12152,-0.475467 0.12456,-0.406657 0.001,0.03127 0.0153,0.04745 0.0409,0.04745 0.0271,0 0.0465,0.02567 0.0642,0.0847 0.0139,0.04658 0.0548,0.118237 0.0908,0.15923 0.16097,0.183333 0.30453,0.189722 0.74451,0.03313 1.73509,-0.617514 2.28921,-0.830291 2.38788,-0.916926 0.0983,-0.08627 0.15208,-0.208238 0.15265,-0.345956 2.6e-4,-0.06089 0.003,-0.110707 0.006,-0.110707 0.0284,0 1.0878,-0.383908 1.58659,-0.574951 1.95502,-0.748799 5.93829,-2.045177 9.66843,-3.146645 2.23752,-0.660711 2.72844,-0.812128 2.63308,-0.812128 -0.0352,0 -0.76341,0.170204 -1.26242,0.295065 -1.90529,0.476739 -4.49671,1.263427 -6.95051,2.109999 -1.13008,0.389882 -1.92161,0.680092 -3.43488,1.259384 -1.2671,0.485055 -2.13157,0.81111 -2.21813,0.836614 -0.0348,0.01026 -0.0524,0.0017 -0.0714,-0.03486 -0.0444,-0.08522 -0.0928,-0.116061 -0.27635,-0.175821 l -0.17951,-0.05846 -0.29319,0.06128 c -0.2429,0.05077 -0.34382,0.06128 -0.58841,0.06128 -0.25197,0 -0.30484,-0.0058 -0.36089,-0.03976 -0.0894,-0.05415 -0.12774,-0.12685 -0.14568,-0.276545 -0.0197,-0.164218 -0.0571,-0.252562 -0.13946,-0.329539 l -0.0668,-0.06241 0.16625,-0.246853 c 0.31032,-0.460789 0.87749,-1.201079 1.43923,-1.878518 0.10942,-0.131955 0.18846,-0.236336 0.17564,-0.231958 -0.0573,0.01957 -1.05851,1.180183 -1.39847,1.621121 -0.13452,0.174471 -0.35093,0.490037 -0.42956,0.626392 -0.0362,0.0627 -0.0452,0.06673 -0.12483,0.05582 -0.0472,-0.0065 -0.12621,-9.01e-4 -0.17553,0.01238 -0.1517,0.04085 -0.22587,0.127757 -0.39185,0.45913 l -0.15171,0.302867 -0.071,-0.21693 c -0.0403,-0.123076 -0.0879,-0.228796 -0.10999,-0.244356 -0.0374,-0.02635 -0.0368,-0.03166 0.0159,-0.135684 0.0937,-0.184955 0.38237,-0.645395 0.60499,-0.96505 0.84116,-1.207813 2.26263,-2.892285 4.08334,-4.838847 1.59217,-1.702225 3.81421,-3.920399 5.67392,-5.664035 0.70439,-0.660419 1.9156,-1.763638 1.97235,-1.796488 0.0153,-0.0089 0.30031,-0.01362 0.63328,-0.01054 l 0.60539,0.0056 -0.44068,0.389937 c -2.80202,2.479389 -6.13417,5.754421 -8.5714,8.424466 -0.61204,0.670504 -1.55438,1.745206 -1.68259,1.918925 -0.0513,0.06945 0.23182,-0.222767 0.73532,-0.759081 2.48348,-2.645304 6.59817,-6.607518 9.99242,-9.622129 l 0.40833,-0.362662 h 0.62435 c 0.60715,0 0.6232,0.0011 0.58276,0.03878 -0.0229,0.02133 -0.15543,0.137572 -0.29456,0.258317 -3.83752,3.330373 -9.32819,8.649913 -11.81356,11.445369 -0.77266,0.869067 -1.40057,1.672959 -1.34788,1.725651 0.0225,0.02253 0.3951,-0.03874 0.68775,-0.113104 0.39756,-0.101017 1.107,-0.339857 1.80355,-0.607176 2.23416,-0.857425 6.29943,-2.177462 10.52246,-3.41676 4.07979,-1.197265 8.09453,-2.556209 9.98396,-3.379462 1.16765,-0.508763 2.27498,-0.869466 3.53864,-1.152685 0.61487,-0.137809 1.1624,-0.215139 1.7339,-0.244885 0.4594,-0.02391 0.62415,-0.04259 1.02406,-0.116086 0.58614,-0.107726 1.22788,-0.270805 2.08629,-0.530172 0.28995,-0.08761 0.54378,-0.164011 0.56408,-0.169788 0.0343,-0.0098 0.0369,0.0201 0.0369,0.420933 v 0.431435 l -0.15288,0.04601 c -1.03795,0.312391 -1.60355,0.456981 -1.90311,0.486512 -0.12758,0.01258 -0.27466,0.02781 -0.32685,0.03385 -0.0522,0.006 -0.44599,0.01989 -0.87511,0.03078 -0.83452,0.02117 -1.26941,0.05432 -1.82404,0.139049 -1.47164,0.22482 -2.81082,0.705901 -4.28068,1.537779 -0.23775,0.134561 -0.56543,0.31 -0.72817,0.389865 -0.52533,0.257811 -2.7506,1.033938 -5.1973,1.812706 -0.46971,0.149508 -0.97264,0.309653 -1.11761,0.355881 -0.14498,0.04623 -0.24461,0.08481 -0.22142,0.08574 0.0565,0.0023 0.95153,-0.220134 1.4761,-0.3668 1.57423,-0.440147 3.2873,-1.049717 4.52966,-1.611816 0.18167,-0.0822 0.33514,-0.149448 0.34104,-0.149448 0.037,0 1.13109,-0.43686 1.62572,-0.649143 1.13761,-0.488235 2.07124,-0.79896 3.17201,-1.055681 0.74227,-0.173113 1.23558,-0.247447 1.84512,-0.278031 0.53967,-0.02708 0.99556,-0.09156 1.57575,-0.22289 0.13076,-0.0296 0.38008,-0.07623 0.55405,-0.103622 0.38351,-0.06039 0.83177,-0.154349 1.20734,-0.253057 0.15373,-0.0404 0.2844,-0.07346 0.29038,-0.07346 0.006,0 0.008,0.191543 0.005,0.42565 l -0.006,0.425651 -0.10544,0.0273 c -0.45172,0.116982 -0.78668,0.182075 -1.02272,0.198746 -0.14497,0.01024 -0.84243,0.02795 -1.5499,0.03936 -0.70747,0.01141 -1.4334,0.03078 -1.61316,0.04305 -2.09753,0.143183 -3.19108,0.547515 -5.05036,1.867342 -0.3038,0.215653 -0.53603,0.33791 -1.15613,0.608631 -1.29181,0.563974 -2.81925,1.103414 -4.32651,1.527981 -0.43363,0.122142 -0.58144,0.15438 -0.83294,0.181654 -1.74994,0.189779 -4.3178,0.842412 -7.1907,1.827548 -1.37014,0.469829 -1.80364,0.638589 -4.51264,1.756745 -1.06174,0.43824 -1.77479,0.715168 -3.39854,1.319898 -1.29461,0.482145 -2.65318,0.968035 -2.96449,1.060238 -0.0925,0.02738 -0.11071,0.02799 -0.11071,0.0036 z"
     id="path104"
     transform="scale(0.75)" />
  <path
     style="fill:#782828;fill-opacity:1;stroke:#000000;stroke-width:0.846666;stroke-linecap:round;stroke-linejoin:round;stroke-dasharray:none;stroke-opacity:0.530266"
     d="M 322.23035,38.388829 V 37.97224 l 0.0708,-0.01021 c 0.0389,-0.0056 0.13793,-0.02407 0.21993,-0.04101 0.13062,-0.02698 0.22217,-0.03184 0.73809,-0.03917 0.58199,-0.0083 0.58977,-0.0088 0.65608,-0.04353 0.0706,-0.03699 0.17466,-0.135611 0.94683,-0.897303 0.26641,-0.262785 0.56605,-0.542777 0.67842,-0.633931 1.82321,-1.478891 4.93434,-4.523506 7.00842,-6.858565 0.68213,-0.767953 1.15763,-1.339145 1.5203,-1.826233 0.11553,-0.155178 0.30222,-0.424538 0.34992,-0.504902 0.01,-0.01644 -0.002,-0.01861 -0.0607,-0.01143 -0.04,0.0049 -0.33107,0.03324 -0.6468,0.06304 l -0.57407,0.05417 -0.10437,-0.02783 c -0.14894,-0.03971 -0.53703,-0.03672 -0.81264,0.0063 -0.77904,0.121476 -1.53713,0.216739 -3.76499,0.47311 -1.55278,0.178687 -6.16506,0.693123 -6.21434,0.693123 -0.006,0 -0.0109,-0.167747 -0.0109,-0.372771 0,-0.205023 0.003,-0.37277 0.008,-0.37277 0.004,0 1.1667,-0.124389 2.5833,-0.27642 5.58542,-0.599432 7.76323,-0.829546 9.87145,-1.043044 0.3764,-0.03812 0.37734,-0.03814 0.44249,-0.0093 0.0878,0.03884 0.19656,0.14165 0.23952,0.226441 0.14255,0.281303 0.035,0.6238 -0.39301,1.251448 -0.56334,0.826126 -1.8605,2.337174 -3.28979,3.832232 -2.72066,2.845859 -5.39766,5.298483 -6.82987,6.257405 -0.63177,0.423001 -1.20022,0.665515 -1.94989,0.831874 -0.19877,0.04411 -0.59134,0.112498 -0.64577,0.112498 h -0.0361 z"
     id="path105"
     transform="scale(0.75)" />
  <path
     style="fill:#782828;fill-opacity:1;stroke:#000000;stroke-width:0.846666;stroke-linecap:round;stroke-linejoin:round;stroke-dasharray:none;stroke-opacity:0.530266"
     d="m 323.7438,38.904412 c 0.38224,-0.133729 0.69173,-0.27806 1.03972,-0.484867 0.93073,-0.553128 2.46387,-1.841434 4.45492,-3.743513 0.45685,-0.436431 2.08226,-2.062009 2.55809,-2.558355 1.26193,-1.316327 2.31468,-2.503412 3.038,-3.425652 0.1768,-0.225414 0.25568,-0.309402 0.55916,-0.59539 0.67227,-0.633517 1.01344,-0.944136 1.47909,-1.346676 0.58177,-0.502913 0.8502,-0.745577 0.8296,-0.749978 -0.0208,-0.0044 -0.73725,0.06183 -1.59005,0.147089 l -0.43987,0.04398 -0.0359,-0.04544 c -0.10567,-0.133617 -0.34661,-0.274834 -0.50205,-0.294252 -0.0722,-0.009 0.0976,-0.02936 0.93312,-0.111775 1.61971,-0.159765 2.72499,-0.257099 2.74149,-0.241423 0.0353,0.03356 -0.65651,0.683544 -1.57846,1.482976 -0.52007,0.450957 -0.82434,0.726307 -1.41652,1.281886 -1.18545,1.112183 -2.87371,2.769809 -4.48044,4.399146 -1.79301,1.818226 -3.0018,2.988544 -3.95908,3.833066 -1.40967,1.243616 -2.46426,1.978221 -3.46364,2.412687 -0.15943,0.06931 -0.18583,0.07635 -0.28331,0.07559 l -0.1075,-8.43e-4 z"
     id="path106"
     transform="scale(0.75)" />
  <path
     style="fill:#782828;fill-opacity:1;stroke:#000000;stroke-width:0.846668;stroke-linecap:round;stroke-linejoin:round;stroke-dasharray:none;stroke-opacity:0.530266"
     d="m 269.55626,51.420458 c 0.0326,-0.03418 1.31725,-0.31576 1.96852,-0.431464 l 0.58302,-0.103577 -0.90675,0.01733 c -0.50818,0.0097 -1.11737,0.0473 -1.38593,0.08552 -0.26355,0.03751 -0.48646,0.06091 -0.49536,0.05201 -0.0519,-0.05185 1.88855,-0.443567 2.75789,-0.556755 0.76253,-0.09928 1.86986,-0.411861 3.46734,-0.978776 1.7068,-0.605709 2.66007,-1.045407 3.50702,-1.617621 1.47011,-0.99324 2.37922,-1.36219 3.78911,-1.53776 0.31381,-0.03908 1.20145,-0.08234 2.19306,-0.106902 1.73114,-0.04287 2.04593,-0.06827 2.67462,-0.215791 0.36551,-0.08577 0.48203,-0.153422 0.59388,-0.344807 0.0273,-0.04675 0.19069,-0.107924 0.46392,-0.173706 0.8218,-0.19786 1.42238,-0.463038 2.14875,-0.948754 0.23313,-0.155893 0.51488,-0.336379 0.6261,-0.40108 0.36481,-0.212207 0.18268,-0.153737 -0.50044,0.160659 -1.03986,0.47858 -2.47482,1.03935 -2.65959,1.03935 -0.0494,0 -0.0585,-0.07494 -0.0486,-0.403739 l 0.0121,-0.40374 0.6537,-0.243222 c 0.76894,-0.286099 1.45633,-0.585344 2.21331,-0.963535 1.19366,-0.596359 3.25771,-1.344265 4.78761,-1.734782 1.01902,-0.260112 2.62893,-0.583389 3.88002,-0.779121 0.7743,-0.121139 1.15459,-0.156813 2.06654,-0.193856 2.41299,-0.09801 4.5611,-0.394593 4.95335,-0.683885 0.10993,-0.08108 0.34383,-0.117657 2.00963,-0.314307 1.87664,-0.221539 2.55483,-0.332761 3.40713,-0.558762 0.24616,-0.06527 0.60275,-0.148351 0.79242,-0.184617 0.4331,-0.08281 0.8293,-0.258408 0.96551,-0.427919 0.42399,-0.527637 0.77694,-0.753532 1.45204,-0.929343 0.98804,-0.257306 2.00728,-0.318448 5.31171,-0.318639 l 2.59147,-1.68e-4 0.90148,-0.896202 c 0.49582,-0.49291 0.92112,-0.934158 0.94511,-0.980549 0.024,-0.04639 -0.35237,0.309453 -0.83636,0.790766 l -0.87996,0.875114 -2.67769,6.11e-4 c -3.5056,8.02e-4 -4.58761,0.06372 -5.46423,0.317757 -0.62461,0.181005 -0.90954,0.366669 -1.19137,0.776322 -0.12997,0.188905 -0.2147,0.258555 -0.47305,0.388875 -0.40705,0.205321 -0.96999,0.410689 -1.26365,0.460998 -0.12758,0.02186 -0.8108,0.05755 -1.51827,0.07932 -2.2161,0.06819 -3.48248,0.29324 -3.9222,0.697009 -0.0969,0.08893 -0.25993,0.116256 -2.00327,0.335633 -1.04381,0.131351 -2.41974,0.31386 -3.05763,0.405576 -0.63788,0.09172 -1.47293,0.185293 -1.85566,0.207949 -3.22376,0.190835 -4.76777,0.584775 -7.46483,1.904576 -0.5683,0.278095 -1.32743,0.629075 -1.68697,0.779956 -1.00824,0.423112 -2.59865,1.01393 -2.63406,0.978521 -0.01,-0.0096 -0.0213,-0.196556 -0.0262,-0.415515 l -0.009,-0.398108 0.50155,-0.179936 c 0.77072,-0.276507 1.21764,-0.453973 2.29394,-0.910884 4.35837,-1.850213 6.63237,-2.324303 17.12934,-3.571173 2.46302,-0.292566 2.99249,-0.373968 3.73801,-0.574685 0.98008,-0.263869 1.56193,-0.530364 1.97473,-0.904458 0.34985,-0.317045 0.75821,-0.516575 1.37625,-0.67245 1.07605,-0.271391 2.10353,-0.337023 5.28916,-0.337856 l 2.49493,-6.54e-4 2.43974,-2.477733 c 2.67996,-2.721684 3.81197,-3.940913 4.31256,-4.644811 l 0.10149,-0.142718 -0.27048,0.02677 c -0.14877,0.01472 -0.7829,0.0751 -1.40919,0.134179 -8.22236,0.775613 -40.25758,4.495707 -46.13855,5.357847 -2.9014,0.425339 -7.17512,1.505826 -8.64828,2.186465 -0.58938,0.272312 -1.56761,0.983255 -3.01089,2.188215 l -0.77824,0.649728 -0.12851,-0.07837 c -0.0993,-0.06055 -0.2148,-0.0788 -0.50807,-0.08025 l -0.37957,-0.0019 0.18978,-0.172708 c 0.38561,-0.350911 1.93658,-1.632537 2.48828,-2.056148 0.6798,-0.521974 1.33827,-0.963622 1.67421,-1.122917 1.2819,-0.60784 4.65237,-1.534625 7.49867,-2.061925 1.64779,-0.305266 6.47505,-0.930254 14.88749,-1.92749 1.43814,-0.170481 2.57325,-0.315879 2.52247,-0.323106 -0.14243,-0.02027 -6.19452,0.670089 -9.56556,1.091143 -7.4739,0.933515 -11.18056,1.593525 -13.73924,2.446415 -0.80081,0.266936 -1.85712,0.723259 -2.33434,1.008429 -0.83401,0.498376 -1.99823,1.365005 -3.38242,2.51782 -0.80388,0.669529 -0.69728,0.625714 -1.48348,0.609731 l -0.44283,-0.009 0.21087,-0.188792 c 0.44382,-0.39735 2.05281,-1.727214 2.67806,-2.213472 0.82664,-0.642877 1.87963,-1.350585 2.42502,-1.629843 2.55774,-1.309651 6.16957,-2.082538 15.14053,-3.239887 0.95102,-0.122693 1.68648,-0.225033 1.63434,-0.227423 -0.24278,-0.01113 -4.96089,0.581528 -7.34894,0.923127 -3.88295,0.555435 -5.56264,0.889574 -6.57918,1.308795 -0.86866,0.358235 -1.86728,0.732815 -2.78652,1.045217 -0.47718,0.162168 -0.97062,0.35775 -1.09653,0.434627 -0.8181,0.499503 -2.52378,1.876867 -4.14012,3.343232 -0.44295,0.401843 -0.51576,0.45198 -0.69133,0.476045 -0.23017,0.03155 -0.16974,-0.0169 -1.48933,1.194042 -1.22104,1.120506 -1.92494,1.793583 -3.23919,3.097374 l -1.02272,1.014586 v -0.360868 -0.36087 l 1.27577,-1.263538 c 3.85181,-3.814888 7.3128,-6.86198 8.85929,-7.799825 0.42579,-0.258212 1.33183,-0.579845 1.84241,-0.654029 0.97244,-0.141292 2.15327,-0.578932 2.88377,-1.068783 0.26317,-0.176472 0.34834,-0.206999 0.94845,-0.339921 1.34413,-0.297718 3.86308,-0.708437 4.7924,-0.781408 0.79158,-0.06216 1.55483,-0.160268 1.81301,-0.233054 0.44613,-0.125775 3.0963,-0.461551 7.48639,-0.948526 1.6585,-0.183971 3.16728,-0.347232 3.35285,-0.362801 0.18557,-0.01557 0.36586,-0.04496 0.40065,-0.06531 0.0391,-0.02285 -0.0174,-0.02821 -0.1476,-0.01402 -0.11598,0.01264 -1.10286,0.117643 -2.19306,0.233345 -3.8613,0.409792 -8.14327,0.933367 -10.66772,1.304387 -0.32344,0.04754 -1.11105,0.114491 -1.75022,0.148787 -2.3212,0.124545 -2.86795,0.18316 -3.17305,0.340165 -0.077,0.03962 -0.25385,0.170909 -0.39303,0.291758 -0.13917,0.120848 -0.30998,0.23327 -0.37956,0.249827 -0.0696,0.01656 -0.57252,0.207129 -1.11762,0.423495 -1.52054,0.603546 -2.13109,0.811944 -2.45872,0.839233 -1.4359,0.119599 -5.0528,2.974815 -9.80317,7.738723 l -1.57124,1.57571 V 43.45399 43.185001 l 1.61316,-1.606701 c 1.70075,-1.693937 2.11516,-2.091804 3.21198,-3.083775 2.58119,-2.334456 4.82551,-3.971665 5.97145,-4.356123 0.15286,-0.05128 0.46666,-0.107623 0.70933,-0.127353 0.82811,-0.06733 1.65097,-0.293118 2.43756,-0.668864 0.48596,-0.232138 0.80439,-0.439855 1.19097,-0.776888 0.54655,-0.476502 0.85021,-0.53734 3.29567,-0.660291 2.11392,-0.106282 3.36861,-0.220517 3.90111,-0.355183 0.8694,-0.219866 10.06682,-1.281292 14.88748,-1.718088 1.3433,-0.121714 3.06597,-0.137752 3.33176,-0.03102 l 0.1687,0.06774 -0.12652,0.02565 c -0.0696,0.0141 -0.90464,0.09434 -1.85567,0.17831 -0.95102,0.08397 -1.76709,0.169232 -1.81349,0.189481 -0.0595,0.02596 -0.0346,0.03094 0.0843,0.01689 0.53262,-0.0629 1.94466,-0.145247 2.49139,-0.145291 0.55422,-4.6e-5 0.68038,0.01332 0.98401,0.104197 0.33256,0.09954 0.36862,0.102096 0.7982,0.0566 0.37872,-0.04011 0.49996,-0.07248 0.76622,-0.204561 0.37746,-0.187252 0.79251,-0.295699 1.73861,-0.454276 0.38781,-0.065 0.71419,-0.127269 0.72529,-0.138374 0.0111,-0.0111 -0.53398,0.04103 -1.21131,0.11586 -0.67733,0.07483 -1.28792,0.137149 -1.35687,0.138492 l -0.12536,0.0024 0.0987,-0.06913 c 0.41291,-0.28921 2.07938,-0.571621 5.9299,-1.00492 1.59469,-0.179451 13.50721,-1.456401 13.5866,-1.456401 0.0312,0 0.0567,0.01898 0.0567,0.04217 0,0.0232 -0.031,0.04217 -0.0688,0.04217 -0.0379,0 -0.13139,0.06634 -0.20786,0.147418 l -0.13903,0.147418 -2.24879,0.254455 c -2.20795,0.249833 -2.46416,0.28286 -2.43301,0.313621 0.009,0.0084 1.04985,-0.09654 2.31402,-0.233268 1.26417,-0.136725 2.31747,-0.248834 2.34066,-0.24913 0.0244,-3.13e-4 0.0448,0.150753 0.0484,0.357737 0.003,0.197053 0,0.358278 -0.007,0.358278 -0.007,0 -0.87377,0.09418 -1.92518,0.209285 -1.05141,0.115107 -4.3409,0.466655 -7.30996,0.781216 -11.57244,1.22606 -13.86218,1.473373 -17.98728,1.942787 -2.45542,0.279413 -5.24154,0.607508 -5.31395,0.625775 -0.17695,0.04464 0.21649,0.01514 1.04187,-0.07811 2.24071,-0.25316 5.86978,-0.619152 9.01667,-0.909332 2.86054,-0.263775 8.22122,-0.850109 17.71064,-1.937131 l 4.76316,-0.545624 0.13327,0.15417 c 0.12476,0.144328 0.14781,0.153745 0.361,0.147508 0.44828,-0.01311 8.06243,-0.881597 9.54295,-1.088484 0.60637,-0.08473 0.83948,-0.09981 1.19143,-0.07706 0.24065,0.01556 0.43751,0.03973 0.43747,0.05371 0,0.01398 -0.22454,0.291116 -0.49888,0.615857 -1.90511,2.255081 -5.242,5.598603 -7.42979,7.444567 -0.26675,0.225074 -0.78202,0.696532 -1.14503,1.047684 l -0.66004,0.638459 h -0.41924 c -0.50337,0 -1.07951,0.07041 -1.25949,0.153923 -0.072,0.03342 -0.1559,0.107351 -0.18637,0.164292 l -0.0554,0.103527 -1.64821,0.0036 c -0.90651,0.002 -1.60025,0.0182 -1.54164,0.03601 0.25446,0.07733 1.31636,0.149693 2.19984,0.149912 l 0.95682,2.53e-4 0.0132,0.411291 0.0132,0.41129 -0.55223,-8.5e-5 c -0.44299,-8.4e-5 -0.67247,-0.02445 -1.16006,-0.1232 -1.54331,-0.312581 -2.7955,-0.439469 -3.41187,-0.345741 -0.87251,0.132677 -1.31624,0.525256 -1.37847,1.219561 -0.0629,0.702124 -0.53958,1.162711 -1.32139,1.276864 -0.30616,0.0447 -0.35744,0.03826 -1.49718,-0.187987 -2.28248,-0.453093 -2.93373,-0.513826 -3.47867,-0.324409 -0.32472,0.112874 -0.6978,0.369512 -0.99533,0.684679 -0.25461,0.269705 -0.33137,0.468781 -0.29956,0.776928 0.0208,0.201156 0.008,0.247653 -0.12409,0.46839 -0.1926,0.320809 -0.33577,0.47023 -0.54211,0.565762 -0.32397,0.149989 -0.43034,0.09889 -0.73411,-0.352669 -0.16062,-0.238775 -0.48615,-0.494156 -0.8156,-0.639856 -0.60263,-0.266513 -1.29288,-0.357076 -2.81532,-0.36938 -0.5451,-0.0044 -0.87722,-0.01346 -0.73805,-0.02013 0.80977,-0.03878 1.80879,-0.10854 2.35261,-0.164279 0.66877,-0.06855 0.81559,-0.05721 1.41704,0.109465 0.39731,0.110101 0.68411,0.257183 0.91315,0.468303 l 0.18364,0.169272 0.10722,-0.211579 c 0.059,-0.116369 0.16487,-0.356724 0.23534,-0.534121 0.3105,-0.78166 0.45124,-0.95581 0.88211,-1.091521 0.38849,-0.122365 0.98114,-0.218386 1.70669,-0.276518 0.79888,-0.06401 1.27051,-0.05399 2.1379,0.04542 0.9211,0.105562 2.00847,0.127524 2.24071,0.04526 0.22121,-0.07836 0.35151,-0.254744 0.47353,-0.640995 0.0581,-0.184067 0.16311,-0.413895 0.23325,-0.510728 0.0702,-0.09683 0.12754,-0.200224 0.12754,-0.229758 0,-0.106833 0.21367,-0.30403 0.43048,-0.397301 0.4327,-0.18614 1.22856,-0.29956 2.53483,-0.361242 0.32036,-0.01513 0.57472,-0.03525 0.56525,-0.04472 -0.009,-0.0095 -0.28107,-0.04522 -0.60355,-0.07944 -0.78573,-0.08338 -1.66837,-0.08182 -2.04401,0.0036 -0.52673,0.119801 -0.87642,0.444406 -1.0933,1.014858 -0.0983,0.258562 -0.13218,0.30099 -0.37073,0.464234 -0.47506,0.325103 -1.16065,0.488254 -2.39225,0.569287 -0.65538,0.04312 -0.85423,0.04031 -1.455,-0.02054 -0.8444,-0.08554 -1.57003,-0.08907 -1.94555,-0.0095 -0.41248,0.08743 -0.66992,0.236101 -0.94887,0.547987 -0.35844,0.400743 -0.70905,0.538289 -1.89583,0.743746 -0.60986,0.105579 -0.88364,0.11342 -1.55697,0.04459 -0.57391,-0.05867 -2.46034,-0.06178 -3.22632,-0.0053 -1.8746,0.138163 -3.65895,0.450486 -4.89221,0.856305 -1.06724,0.351188 -2.57841,1.025231 -3.76956,1.681374 -0.69944,0.385285 -0.52449,0.344755 0.31128,-0.07211 2.70474,-1.349081 4.13484,-1.771645 6.70569,-1.981399 0.88383,-0.07211 2.49515,-0.122788 1.9611,-0.06168 -1.90301,0.217755 -4.32662,0.796596 -6.1034,1.457707 -1.76741,0.657617 -2.94798,1.324067 -3.86551,2.182131 -0.38613,0.361102 -0.92419,0.646862 -1.73602,0.921987 l -0.52558,0.178092 -2.34067,0.02919 c -2.99043,0.03729 -3.83405,0.116203 -4.95323,0.463314 -0.86172,0.267259 -1.56497,0.659563 -2.63073,1.467534 -1.13559,0.860914 -1.45543,1.058917 -2.4324,1.505839 -1.08121,0.494603 -2.77606,0.928608 -4.11199,1.052963 -0.62435,0.05812 -0.42585,0.09605 0.40137,0.0767 2.45277,-0.05739 3.10583,-0.258952 4.65508,-1.436758 1.11584,-0.848314 2.35269,-1.683396 2.93556,-1.981999 0.75851,-0.388583 1.54521,-0.612206 2.57263,-0.731285 0.20876,-0.0242 1.15768,-0.06118 2.10871,-0.08219 1.79439,-0.03964 2.27125,-0.0722 3.11563,-0.212757 0.35847,-0.05967 0.70061,-0.08337 1.20368,-0.08337 h 0.70285 l 0.40886,-0.446507 c 0.32213,-0.351782 0.51413,-0.51649 0.90503,-0.776383 0.90406,-0.601065 2.126,-1.240294 3.45999,-1.810007 1.18419,-0.505735 2.13872,-0.783363 3.48882,-1.014727 0.78229,-0.134058 1.89066,-0.270654 1.97276,-0.243123 0.0284,0.0095 -0.0528,0.03067 -0.18036,0.04701 -0.56675,0.07258 -1.74351,0.321904 -2.63498,0.558274 -2.61969,0.694607 -4.511,1.528098 -5.76597,2.541035 -0.17853,0.144098 -0.58538,0.545947 -0.90412,0.892997 l -0.57952,0.630999 -2.53307,8.1e-4 c -1.3932,4.47e-4 -2.87469,0.01941 -3.29222,0.04215 -2.63319,0.143413 -3.66399,0.53918 -5.77786,2.218342 -2.03762,1.618598 -2.72998,1.992933 -4.00655,2.166217 -0.47479,0.06445 -1.86465,0.125125 -2.91001,0.12704 -0.81173,0.0015 -1.38449,0.03122 -2.09378,0.108683 -0.14739,0.0161 -0.25849,0.01931 -0.24689,0.0071 z m 59.03967,-19.326801 c 2.74869,-2.719234 3.94959,-3.975409 3.87337,-4.051632 -0.0338,-0.03378 -1.80266,0.206339 -1.80266,0.244703 0,0.01828 0.0268,0.03323 0.0595,0.03323 0.1157,0 0.27789,0.249017 0.27789,0.426658 0,0.55961 -1.13744,1.917056 -4.23654,5.055986 -0.6985,0.707471 -1.30645,1.333758 -1.35102,1.391747 -0.097,0.126273 0.92906,-0.874418 3.17945,-3.100694 z m -30.3296,-0.302312 c -0.0406,-0.01061 -0.10702,-0.01061 -0.14761,0 -0.0406,0.01061 -0.007,0.01929 0.0738,0.01929 0.0812,0 0.11439,-0.0087 0.0738,-0.01929 z m 0.40146,-0.04077 c -0.0286,-0.01155 -0.0855,-0.01225 -0.12653,-0.0016 -0.041,0.01069 -0.0177,0.02014 0.0519,0.021 0.0696,8.61e-4 0.10316,-0.0079 0.0746,-0.01944 z m 0.17955,-0.04854 c -0.013,-0.01299 -0.047,-2.7e-5 -0.0756,0.0288 -0.0413,0.04165 -0.0365,0.0465 0.0236,0.02361 0.0416,-0.01584 0.065,-0.03942 0.052,-0.05241 z m 0.86346,-0.04902 c 0.22036,-0.02271 1.81454,-0.193147 3.54263,-0.378754 1.72808,-0.185607 4.67922,-0.499736 6.55808,-0.698063 9.29848,-0.981523 14.68144,-1.567702 19.81132,-2.157355 0.5509,-0.06332 1.00164,-0.13317 1.00164,-0.155216 0,-0.07768 -1.81645,0.0861 -6.72678,0.606509 -6.89744,0.731011 -24.7228,2.766572 -24.7971,2.831696 -0.023,0.02019 0.0138,0.02636 0.0843,0.01414 0.0689,-0.01192 0.3055,-0.04025 0.52586,-0.06296 z m -4.93438,-1.097833 0.10543,-0.03377 -0.10543,-0.0036 c -0.058,-0.002 -0.13391,0.01484 -0.1687,0.03733 -0.0562,0.03634 -0.0562,0.04049 0,0.03732 0.0348,-0.002 0.11071,-0.01875 0.1687,-0.03732 z m 0.37956,-0.04217 c 0.0562,-0.03634 0.0562,-0.04088 0,-0.04088 -0.0348,0 -0.0917,0.0184 -0.12652,0.04088 -0.0562,0.03634 -0.0562,0.04088 0,0.04088 0.0348,0 0.0917,-0.0184 0.12652,-0.04088 z m 0.44283,-0.04217 0.0843,-0.03625 -0.0843,-0.0023 c -0.0464,-0.0013 -0.11281,0.01608 -0.14761,0.03856 -0.0562,0.03634 -0.0562,0.04063 0,0.03856 0.0348,-0.0013 0.10122,-0.01863 0.14761,-0.03856 z m 0.35848,-0.03823 c 0,-0.02103 -0.038,-0.0283 -0.0843,-0.01617 -0.0464,0.01213 -0.0844,0.02933 -0.0844,0.03823 0,0.0089 0.038,0.01617 0.0844,0.01617 0.0464,0 0.0843,-0.0172 0.0843,-0.03823 z m 0.28517,-0.03293 c -0.0403,-0.01056 -0.11623,-0.01094 -0.1687,-8.51e-4 -0.0525,0.01009 -0.0195,0.01872 0.0733,0.01919 0.0928,4.68e-4 0.1357,-0.0078 0.0954,-0.01834 z m 0.42174,-0.04217 c -0.0403,-0.01056 -0.11623,-0.01094 -0.16869,-8.51e-4 -0.0525,0.01009 -0.0195,0.01872 0.0733,0.01919 0.0928,4.68e-4 0.13571,-0.0078 0.0954,-0.01834 z m 0.42125,-0.04227 c -0.0406,-0.01061 -0.10701,-0.01061 -0.14761,0 -0.0406,0.01061 -0.007,0.01929 0.0738,0.01929 0.0812,0 0.1144,-0.0087 0.0738,-0.01929 z m 0.22142,-0.0131 c 0.0545,-0.03523 0.0534,-0.04097 -0.008,-0.04153 -0.0392,-3.55e-4 -0.083,0.01833 -0.0974,0.04153 -0.033,0.05337 0.0228,0.05337 0.10544,0 z m 12.02855,-1.242954 c 5.81364,-0.652597 6.72684,-0.759036 6.63043,-0.77282 -0.0817,-0.01168 -5.7218,0.583437 -7.73587,0.81625 -1.31436,0.151931 -2.92828,0.360279 -2.94868,0.380656 -0.0335,0.03345 0.13825,0.01548 4.05412,-0.424086 z m 7.00255,-0.81117 c -0.0522,-0.01005 -0.1376,-0.01005 -0.18979,0 -0.0522,0.01005 -0.009,0.01828 0.0949,0.01828 0.10438,0 0.14709,-0.0082 0.0949,-0.01828 z m 0.60098,-0.05458 c 0.11466,-0.02918 0.11663,-0.03237 0.0211,-0.03406 -0.058,-0.001 -0.19083,0.01333 -0.29521,0.03191 l -0.18979,0.03377 0.1687,2.91e-4 c 0.0928,1.6e-4 0.22563,-0.0142 0.29522,-0.03191 z"
     id="path107"
     transform="scale(0.75)" />
  <path
     style="fill:#782828;fill-opacity:1;stroke:#000000;stroke-width:0.846668;stroke-linecap:round;stroke-linejoin:round;stroke-dasharray:none;stroke-opacity:0.530266"
     d="m 588.07674,40.049719 c 0.0696,-0.01928 1.49178,-0.765058 3.16043,-1.657289 l 3.03392,-1.62224 0.80393,0.198389 c 4.10602,1.013252 5.6056,1.336464 7.72364,1.664718 0.79382,0.123025 1.27314,0.227048 1.62057,0.351696 0.24173,0.08672 0.21399,0.118628 -0.0422,0.0485 -0.21599,-0.05913 -1.15521,-0.194683 -2.21124,-0.319145 -2.22299,-0.261995 -4.11745,-0.659305 -5.43962,-1.140807 -0.91732,-0.334066 -1.22563,-0.406465 -1.82951,-0.429611 -1.24169,-0.04759 -2.11975,0.337755 -4.16298,1.826964 -0.91927,0.670009 -1.76136,1.044877 -2.45189,1.091488 -0.2112,0.01426 -0.28566,0.0097 -0.20508,-0.01267 z"
     id="path108"
     transform="scale(0.75)" />
  <path
     style="fill:#782828;fill-opacity:1;stroke:#000000;stroke-width:0.846668;stroke-linecap:round;stroke-linejoin:round;stroke-dasharray:none;stroke-opacity:0.530266"
     d="m 591.7248,25.599702 c -0.17396,-0.03005 -2.21414,-0.360955 -4.53372,-0.735342 -7.09904,-1.145807 -18.38447,-3.010594 -19.12599,-3.16035 -0.25665,-0.05183 -0.0511,-0.05629 0.29522,-0.0064 0.15077,0.02172 0.94786,0.106905 1.77131,0.189301 0.82346,0.0824 1.80488,0.187608 2.18094,0.233806 0.78828,0.09684 0.80234,0.09769 0.74806,0.04539 -0.0391,-0.03769 -0.62254,-0.142887 -3.85683,-0.695429 -1.50746,-0.257533 -1.91637,-0.349249 -0.9668,-0.216847 0.24179,0.03372 1.12285,0.129034 1.9579,0.211821 3.31515,0.328666 4.79986,0.549181 11.76659,1.747616 1.20618,0.207491 3.78724,0.645015 5.73569,0.972277 1.94845,0.327262 3.75614,0.634415 4.01709,0.682562 l 0.47446,0.08754 v 0.146155 c 0,0.137076 -0.007,0.144681 -0.11598,0.122433 -0.14154,-0.02895 -4.01007,-0.646768 -5.17216,-0.826014 -0.74241,-0.114512 -1.00836,-0.135311 -0.82261,-0.06433 0.0323,0.01235 1.41397,0.24987 3.07035,0.527827 1.65638,0.277957 3.01622,0.510275 3.02188,0.516263 0.014,0.01483 0.0294,0.167424 0.0234,0.232301 -0.006,0.06241 -0.0524,0.06136 -0.46878,-0.01057 z m -5.76058,-1.328058 c -0.023,-0.02297 -0.1359,-0.0539 -0.25094,-0.06873 -0.20576,-0.02652 -0.23592,0.03341 -0.0405,0.08043 0.16197,0.03896 0.33511,0.03201 0.29141,-0.0117 z m -0.50228,-0.08475 c -0.0143,-0.0232 -0.0534,-0.04217 -0.0868,-0.04217 -0.0334,0 -0.0608,0.01898 -0.0608,0.04217 0,0.0232 0.0391,0.04217 0.0868,0.04217 0.0478,0 0.0751,-0.01898 0.0608,-0.04217 z m -0.68533,-0.112279 c -0.029,-0.0117 -0.0764,-0.0117 -0.10544,0 -0.029,0.0117 -0.005,0.02127 0.0527,0.02127 0.058,0 0.0817,-0.0096 0.0527,-0.02127 z m -0.18786,-0.03692 c -0.0648,-0.0648 -8.80021,-1.534892 -10.62949,-1.788845 -0.69016,-0.09581 -0.8278,-0.104646 -0.7679,-0.04928 0.022,0.02037 0.6284,0.134062 1.34747,0.252655 1.41097,0.232705 8.73901,1.436169 9.36266,1.537603 0.39381,0.06405 0.72662,0.08723 0.68726,0.04787 z"
     id="path109"
     transform="scale(0.75)" />
  <path
     style="fill:#782828;fill-opacity:1;stroke:#000000;stroke-width:0.846666;stroke-linecap:round;stroke-linejoin:round;stroke-dasharray:none;stroke-opacity:0.530266"
     d="m 550.8275,26.937593 c -0.34116,-0.5779 -0.72768,-1.26911 -1.07209,-1.917231 -0.57883,-1.089276 -1.18907,-2.362249 -1.16583,-2.431964 0.006,-0.01675 0.0493,0.06061 0.0972,0.171909 0.33892,0.788252 0.90005,1.868693 1.81336,3.491622 0.63042,1.12023 0.82701,1.531936 0.3274,0.685664 z"
     id="path110"
     transform="scale(0.75)" />
  <path
     style="fill:#782828;fill-opacity:1;stroke:#000000;stroke-width:0.846666;stroke-linecap:round;stroke-linejoin:round;stroke-dasharray:none;stroke-opacity:0.530266"
     d="m 548.41857,22.068977 c -0.0767,-0.183668 -0.0632,-0.207551 0.19246,-0.340584 0.12962,-0.06743 0.24473,-0.12261 0.2558,-0.12261 0.0111,0 -0.0415,0.07039 -0.11672,0.156428 -0.0753,0.08603 -0.15864,0.213522 -0.18529,0.283305 -0.0267,0.06978 -0.0607,0.126879 -0.0758,0.126879 -0.015,0 -0.0467,-0.04654 -0.0705,-0.103418 z"
     id="path111"
     transform="scale(0.75)" />
  <path
     style="fill:#782828;fill-opacity:1;stroke:#000000;stroke-width:0.846666;stroke-linecap:round;stroke-linejoin:round;stroke-dasharray:none;stroke-opacity:0.530266"
     d="m 549.28052,21.74942 c 0.0102,-0.038 0.0187,-0.117348 0.0189,-0.17634 l 4.1e-4,-0.107257 0.38023,-0.180691 c 0.55033,-0.261531 1.6175,-0.71671 2.16952,-0.925365 0.73444,-0.277605 1.47741,-0.477357 2.53484,-0.6815 0.40722,-0.07862 0.44468,-0.0806 1.52091,-0.08058 1.20813,2.8e-5 1.4495,0.01774 2.81814,0.206752 0.79378,0.109624 1.50453,0.201741 1.79676,0.232869 0.19573,0.02085 0.23333,-0.02301 0.0596,-0.06959 -0.35767,-0.0959 -2.0771,-0.376385 -2.92998,-0.477956 -0.98317,-0.117087 -1.25169,-0.134833 -2.04278,-0.135 -1.32964,-2.81e-4 -1.71914,0.091 -4.07066,0.953977 -0.94678,0.347457 -1.57289,0.611948 -2.00353,0.84636 -0.27513,0.149759 -0.3244,0.167655 -0.36094,0.131116 -0.0233,-0.02327 -0.0914,-0.0592 -0.15148,-0.07985 l -0.10916,-0.03753 0.66393,-0.300893 c 3.56744,-1.616742 4.69404,-1.930332 6.56863,-1.828397 1.59133,0.08653 3.16355,0.319028 5.15914,0.762918 0.86478,0.192357 3.85331,0.933727 3.77646,0.936832 -0.0224,9.05e-4 -0.79981,-0.133022 -1.72761,-0.297616 -2.60045,-0.461329 -2.70214,-0.476305 -2.61025,-0.384406 0.0171,0.01708 0.96228,0.263659 2.10044,0.547949 1.13816,0.28429 2.05117,0.518356 2.0289,0.520146 -0.0223,0.0018 -0.68654,-0.110246 -1.47617,-0.248969 -4.35584,-0.765237 -5.98155,-0.977952 -7.48948,-0.979957 -0.99358,-0.0013 -1.46909,0.06469 -2.68395,0.372624 -1.57031,0.398021 -3.02913,0.947654 -3.74587,1.411316 -0.19276,0.124691 -0.2117,0.131396 -0.19499,0.06902 z"
     id="path112"
     transform="scale(0.75)" />
  <path
     style="fill:#782828;fill-opacity:1;stroke:#000000;stroke-width:0.846666;stroke-linecap:round;stroke-linejoin:round;stroke-dasharray:none;stroke-opacity:0.530266"
     d="m 563.06252,33.985475 c -1.77743,-0.811945 -3.13449,-1.356573 -5.18897,-2.082476 -0.77396,-0.273465 -4.89691,-1.651732 -5.41481,-1.81013 l -0.2513,-0.07686 -0.52615,-0.932188 c -0.28938,-0.512704 -0.57027,-1.011381 -0.62419,-1.10817 l -0.098,-0.175982 0.0821,0.0157 c 0.11356,0.02171 0.30205,-0.03092 0.3668,-0.102421 0.0344,-0.038 0.0593,-0.124682 0.0688,-0.239593 l 0.0149,-0.180047 0.10302,0.159436 c 0.18413,0.284961 0.57196,0.752448 0.85194,1.026929 0.93973,0.921251 2.33518,1.60932 6.72412,3.31552 1.24781,0.485088 2.85893,1.088813 4.04642,1.516292 0.56074,0.201858 1.04155,0.379337 1.06846,0.394399 0.038,0.02124 0.005,0.04188 -0.14787,0.09199 -0.10824,0.03553 -0.22001,0.06481 -0.24836,0.06506 -0.0284,2.39e-4 -0.0712,0.01285 -0.0951,0.028 -0.0376,0.02381 -0.0368,0.03501 0.006,0.08264 0.0973,0.107551 0.1852,0.398337 0.11923,0.394599 -0.0123,-6.98e-4 -0.39812,-0.172915 -0.85737,-0.382706 z m 0.6057,-0.13045 c -0.0361,-0.12665 -2.59876,-1.224365 -4.75091,-2.035022 -1.16182,-0.437627 -3.36713,-1.17826 -3.50839,-1.17826 -0.18658,0 0.0689,0.127857 1.06573,0.533336 1.9318,0.785799 4.98026,1.959397 6.81153,2.622307 0.27345,0.09899 0.39922,0.117961 0.38204,0.05764 z m -8.37424,-3.236543 c 0,-0.01279 -0.34974,-0.203018 -0.7772,-0.422722 -0.85659,-0.440269 -1.2651,-0.67487 -1.64104,-0.942425 -0.25911,-0.184408 -0.9086,-0.809821 -1.26631,-1.21938 -0.14812,-0.169586 -0.20978,-0.222383 -0.21685,-0.185677 -0.0109,0.05676 0.0928,0.256356 0.64184,1.234967 l 0.37209,0.663216 1.0486,0.340777 c 1.66258,0.540311 1.70113,0.552352 1.77177,0.553456 0.0369,5.76e-4 0.0671,-0.0094 0.0671,-0.02221 z"
     id="path113"
     transform="scale(0.75)" />
  <path
     style="fill:#782828;fill-opacity:1;stroke:#000000;stroke-width:0.846666;stroke-linecap:round;stroke-linejoin:round;stroke-dasharray:none;stroke-opacity:0.530266"
     d=""
     id="path114"
     transform="scale(0.75)" />
</svg>
