<?xml version="1.0" encoding="UTF-8" standalone="no"?>
<!-- Created with Inkscape (http://www.inkscape.org/) -->

<svg
   width="94.955704mm"
   height="207.40302mm"
   viewBox="0 0 94.955704 207.40302"
   version="1.1"
   id="svg1"
   xmlns:inkscape="http://www.inkscape.org/namespaces/inkscape"
   xmlns:sodipodi="http://sodipodi.sourceforge.net/DTD/sodipodi-0.dtd"
   xmlns:xlink="http://www.w3.org/1999/xlink"
   xmlns="http://www.w3.org/2000/svg"
   xmlns:svg="http://www.w3.org/2000/svg">
  <sodipodi:namedview
     id="namedview1"
     pagecolor="#ffffff"
     bordercolor="#000000"
     borderopacity="0.25"
     inkscape:showpageshadow="2"
     inkscape:pageopacity="0.0"
     inkscape:pagecheckerboard="0"
     inkscape:deskcolor="#d1d1d1"
     inkscape:document-units="mm" />
  <defs
     id="defs1">
    <radialGradient
       id="radialGradient3189"
       xlink:href="#linearGradient239"
       gradientUnits="userSpaceOnUse"
       cy="819.90002"
       cx="378.79001"
       gradientTransform="matrix(0.30937729,0,0,0.24811566,-11.620471,15.416871)"
       r="115.39" />
    <linearGradient
       id="linearGradient239">
      <stop
         id="stop240"
         stop-color="#f8ce00"
         offset="0" />
      <stop
         id="stop241"
         stop-color="#b79700"
         offset="1" />
    </linearGradient>
    <radialGradient
       id="radialGradient3193"
       xlink:href="#linearGradient239"
       gradientUnits="userSpaceOnUse"
       cy="598.63"
       cx="294.42999"
       gradientTransform="matrix(0.39795979,0,0,0.19631819,-9.2233413,15.639121)"
       r="91.234001" />
    <radialGradient
       id="radialGradient3197"
       xlink:href="#linearGradient239"
       gradientUnits="userSpaceOnUse"
       cy="153.64999"
       cx="897.23999"
       gradientTransform="matrix(-0.10341504,0,0,0.96133707,246.73986,10.146371)"
       r="15.849" />
    <radialGradient
       id="radialGradient3200"
       xlink:href="#linearGradient239"
       gradientUnits="userSpaceOnUse"
       cy="153.64999"
       cx="897.23999"
       gradientTransform="matrix(0.10341504,0,0,0.96133707,-30.114841,11.469287)"
       r="15.849" />
    <radialGradient
       id="radialGradient3205"
       xlink:href="#linearGradient239"
       gradientUnits="userSpaceOnUse"
       cy="319.37"
       cx="657.76001"
       gradientTransform="matrix(0.17410377,0,0,0.40208729,-6.0748013,24.870433)"
       r="1269.3" />
  </defs>
  <g
     inkscape:label="Warstwa 1"
     inkscape:groupmode="layer"
     id="layer1"
     transform="translate(-60.626211,-54.443476)">
    <rect
       id="rect959"
       fill-rule="evenodd"
       rx="2.2714214"
       ry="2.2714214"
       height="20.82165"
       width="7.3488021"
       y="219.30214"
       x="64.94651"
       stroke-width="0.264583pt"
       fill="#60585a"
       inkscape:export-filename="kwadrat.svg"
       inkscape:export-xdpi="96"
       inkscape:export-ydpi="96" />
    <rect
       id="rect958"
       fill-rule="evenodd"
       rx="2.2714214"
       ry="2.2714214"
       height="20.82165"
       width="7.3488021"
       y="216.6563"
       x="142.99939"
       stroke-width="0.264583pt"
       fill="#60585a" />
    <g
       id="g786"
       fill="#4a00ad"
       transform="matrix(-0.26458333,0,0,-0.26458333,135.42172,257.15872)">
      <path
         id="path787"
         d="m 76.616,699.19 c -5.4727,-0.321 -11.137,-0.388 -16.567,0.34 -3.5734,0.712 -11.473,3.767 -7.655,8.677 5.2454,5.042 14.531,4.269 21.161,3.703 l 0.5137,5.994 c -9.1289,0.75 -20.165,0.992 -26.841,-6.329 -5.9809,-9.521 3.3763,-16.399 12.025,-18.017 5.7819,-0.733 11.564,-0.349 17.362,-0.688 v 6.32 z" />
      <path
         id="path788"
         d="m 76.616,699.19 c -5.4727,-0.321 -11.137,-0.388 -16.567,0.34 -3.5734,0.712 -11.473,3.767 -7.655,8.677 5.2454,5.042 14.531,4.269 21.161,3.703 l 0.5137,5.994 c -9.1289,0.75 -20.165,0.992 -26.841,-6.329 -5.9809,-9.521 3.3763,-16.399 12.025,-18.017 5.7819,-0.733 11.564,-0.349 17.362,-0.688 v 6.32 z"
         transform="matrix(1,0,0,-1,0,1430)" />
      <path
         id="path789"
         d="m 97.472,715.31 c -1.4986,-0.143 -3.0393,-0.081 -4.5417,-0.089 -1.2715,-0.004 -5.5397,-0.655 -6.3316,0.724 -0.2793,0.983 0.196,2.108 1.022,2.657 2.002,1.029 4.7046,0.505 6.8526,0.402 2.6281,-0.126 6.1922,-0.416 6.9952,2.782 0.249,2.611 -1.378,5.115 -3.4074,6.63 -2.6849,1.651 -5.7413,1.346 -8.7364,0.969 -1.7834,-0.237 -3.5619,-0.51 -5.3498,-0.711 l 0.3288,-2.76 c 1.7937,0.214 3.576,0.511 5.3666,0.748 2.19,0.268 4.7033,0.675 6.7086,-0.491 1.154,-0.815 2.2671,-2.318 2.2757,-3.791 0.0105,-1.097 -3.415,-0.664 -4.039,-0.633 -2.8978,0.155 -6.0482,0.623 -8.678,-0.876 -2.1183,-1.588 -3.0545,-4.623 -1.4109,-6.885 2.1458,-2.038 5.6768,-1.512 8.4036,-1.521 1.5024,-0.007 3.0431,0.055 4.5417,-0.088 z"
         transform="matrix(1.3776,0,0,1.3776,-36.308,-268.33)" />
      <g
         id="g790"
         transform="matrix(1.166,0,0,1.0624,-26.21,-45.238)">
        <path
           id="path791"
           d="m 109.26,713.84 c 2.054,0.228 4.181,0.138 6.242,0.15 3.888,0.015 7.776,-0.017 11.665,-0.034 0.779,-0.005 1.559,-0.011 2.338,-0.036 v 3.227 c -0.779,-0.026 -1.559,-0.032 -2.338,-0.037 -3.889,-0.017 -7.777,-0.049 -11.665,-0.034 -2.061,0.012 -4.188,-0.078 -6.242,0.15 z" />
        <path
           id="path792"
           d="m 119.37,715.87 c -0.159,1.242 -0.079,2.551 -0.087,3.798 -0.011,2.488 -0.012,4.976 0.006,7.465 0.012,1.648 0.028,3.296 0.032,4.944 0.001,0.986 -0.002,1.973 -0.004,2.959 h -3.321 c -0.002,-0.986 -0.005,-1.973 -0.003,-2.959 0.003,-1.648 0.019,-3.296 0.031,-4.944 0.018,-2.489 0.018,-4.977 0.007,-7.465 -0.009,-1.247 0.072,-2.556 -0.088,-3.798 z"
           transform="translate(1.3446,0.33612)" />
      </g>
      <g
         id="g793">
        <path
           id="path794"
           d="m 129.46,713.86 c -0.219,1.706 -0.114,3.502 -0.134,5.217 -0.046,4.31 -0.051,8.621 -0.008,12.932 0.017,1.411 0.038,2.823 0.066,4.234 h -3.275 c 0.027,-1.411 0.049,-2.823 0.066,-4.234 0.043,-4.311 0.037,-8.622 -0.008,-12.932 -0.021,-1.715 0.085,-3.511 -0.134,-5.217 z" />
        <path
           id="path795"
           d="m 127.41,712.83 c 1.41,0.156 2.863,0.074 4.28,0.113 3.027,0.138 5.689,1.021 6.086,4.411 0.091,3.395 -1.772,5.431 -5.069,6.06 -1.547,0.195 -3.059,0.136 -4.605,-0.029 l 0.353,-3.167 c 1.221,0.137 2.422,0.2 3.645,0.051 1.605,-0.296 2.418,-0.88 2.405,-2.576 -0.124,-1.535 -1.597,-1.488 -2.895,-1.55 -1.383,-0.028 -2.821,-0.081 -4.2,0.073 z" />
        <path
           id="path796"
           d="m 128.76,721.9 c 1.223,0.136 2.492,0.072 3.72,0.082 2.638,0.021 5.597,-0.184 7.788,1.535 1.853,1.96 1.215,4.372 0.521,6.696 -0.472,1.573 -0.874,3.118 -0.925,4.767 -0.003,0.322 0,0.641 0.008,0.962 l -3.305,0.084 c -0.01,-0.383 -0.013,-0.765 -0.009,-1.148 0.062,-1.931 0.526,-3.743 1.082,-5.583 0.252,-0.844 0.953,-2.406 0.486,-3.29 -1.116,-1.268 -4.173,-0.813 -5.646,-0.801 -1.228,0.01 -2.497,-0.054 -3.72,0.082 z" />
        <rect
           id="rect797"
           fill-rule="evenodd"
           height="3.0253999"
           width="2.3531001"
           y="712.84003"
           x="126.06"
           stroke-width="1pt" />
      </g>
      <path
         id="path798"
         d="m 165.39,724.77 c 0,6.958 -5.196,12.606 -11.598,12.606 -6.402,0 -11.597,-5.648 -11.597,-12.606 0,-6.959 5.195,-12.606 11.597,-12.606 6.402,0 11.598,5.647 11.598,12.606 z m -3.698,-0.322 c 0,4.739 -3.54,8.586 -7.9,8.586 -4.361,0 -7.9,-3.847 -7.9,-8.586 0,-4.741 3.539,-8.587 7.9,-8.587 4.36,0 7.9,3.846 7.9,8.587 z"
         fill-rule="evenodd"
         stroke-width="1pt" />
    </g>
    <rect
       id="rect317"
       fill-rule="evenodd"
       rx="2.2714214"
       ry="2.2714214"
       height="20.82165"
       width="7.3488021"
       y="80.395363"
       x="144.98376"
       stroke-width="0.264583pt"
       fill="#60585a" />
    <rect
       id="rect316"
       fill-rule="evenodd"
       rx="2.2714214"
       ry="2.2714214"
       height="20.82165"
       width="7.3488021"
       y="81.210808"
       x="62.921467"
       stroke-width="0.264583pt"
       fill="#60585a" />
    <path
       id="path184"
       d="m 107.92622,261.6196 c -29.916441,0.62494 -34.501671,-4.74134 -38.922861,-5.62531 -4.41986,-10.25948 -5.25912,-96.76606 -2.60746,-103.83837 1.98252,-16.01788 -1.30599,-18.67033 -2.29844,-37.97565 -1.88912,-22.545938 2.59689,-10.00892 -1.17448,-32.935331 5.73034,-23.86965 -5.06307,-24.35569 44.587581,-26.625021 45.56389,0.635265 39.14775,2.755635 44.87598,26.625021 -3.77138,22.926671 0.71463,10.389658 -1.17449,32.935331 -0.99245,19.30427 -4.28096,21.95671 -2.29844,37.97565 2.65166,7.07152 1.8124,93.57783 -2.60746,103.83837 -6.91965,4.00923 -25.25686,5.62531 -38.38311,5.62531 z"
       fill-rule="evenodd"
       stroke="#000000"
       stroke-width="0.264583pt"
       fill="url(#radialGradient3205)"
       style="fill:url(#radialGradient3205)" />
    <path
       id="path272"
       d="m 71.627239,129.03689 c 0,0 5.69754,21.81278 5.69754,21.81278 0,0 0,40.89929 -0.81381,41.57927 -0.81415,0.68154 -7.32525,12.26926 -7.32525,12.26926 0,0 1.62763,-74.29765 2.44178,-75.6629 z"
       fill-rule="evenodd"
       fill="url(#radialGradient3200)"
       style="fill:url(#radialGradient3200);stroke-width:0.264583" />
    <path
       id="path274"
       d="m 144.99699,127.71397 c 0,0 -5.69754,21.81278 -5.69754,21.81278 0,0 0,40.89929 0.81381,41.57927 0.81414,0.68154 7.32525,12.26926 7.32525,12.26926 0,0 -1.62764,-74.29764 -2.44179,-75.66289 z"
       fill-rule="evenodd"
       fill="url(#radialGradient3197)"
       style="fill:url(#radialGradient3197);stroke-width:0.264583" />
    <path
       id="path230"
       d="m 70.479209,66.235655 c -3.08689,4.938977 -2.86173,51.916545 2.07724,55.620705 4.77044,-3.92932 32.406171,-7.57925 37.660791,-7.24005 5.36787,-0.39476 26.37737,2.13121 32.83215,6.00524 1.74016,0.56357 5.21943,-54.385101 0.28019,-58.089267 -15.43579,-4.32435 -66.677641,-4.32435 -72.850371,3.70152 z"
       stroke-opacity="0.45912"
       fill-rule="evenodd"
       stroke="#000000"
       stroke-width="0.264583pt"
       fill="#f7ce00" />
    <path
       id="path275"
       d="m 71.687299,122.55724 c 0,0 17.338144,-7.11649 36.681831,-7.29853 17.41831,-0.16956 25.28491,2.54609 35.88014,6.61961 -1.28412,12.90003 -2.56852,25.12034 -5.77929,29.19413 -29.53808,-7.46919 -31.46425,-7.46919 -61.002331,0 -0.64294,-4.07194 -6.42223,-27.83681 -5.78009,-28.51415 z"
       fill-rule="evenodd"
       fill="url(#radialGradient3193)"
       style="fill:url(#radialGradient3193);stroke-width:0.264583" />
    <path
       id="path185"
       d="m 72.678429,123.30072 c 0,0 16.875916,-6.55161 35.705521,-6.71909 16.95397,-0.1561 24.61074,2.34394 34.925,6.09415 -1.2499,11.87582 -2.50005,23.1259 -5.62531,26.87637 -28.75227,-6.87546 -30.62552,-6.8752 -59.377791,2.7e-4 -0.62495,-3.75021 -6.25025,-25.62649 -5.62531,-26.25143 z"
       fill-rule="evenodd"
       fill-opacity="0.7044"
       stroke="#000000"
       stroke-width="0.264583pt" />
    <path
       id="path270"
       d="m 80.665399,195.06366 c -3.27263,15.70778 -5.89041,45.81525 -5.89041,45.81525 5.2361,4.58152 32.070141,6.545 32.726311,6.545 1.96352,0 28.79725,-1.96353 33.37983,-8.50847 0,-3.92695 -2.61821,-32.07015 -5.2361,-44.50556 -22.90737,3.27236 -53.668091,1.96352 -54.977771,0.65442 z"
       fill-rule="evenodd"
       fill="url(#radialGradient3189)"
       style="fill:url(#radialGradient3189);stroke-width:0.264583" />
    <path
       id="path188"
       d="m 82.053939,196.42891 c -3.12526,15.00055 -5.62531,43.7515 -5.62531,43.7515 5.00036,4.37515 30.625521,6.25025 31.252581,6.25025 1.8751,0 27.50079,-1.8751 31.877,-8.12535 0,-3.75021 -2.50031,-30.62552 -5.00036,-42.50267 -21.87601,3.125 -51.252431,1.8751 -52.503911,0.62495 z"
       fill-rule="evenodd"
       fill-opacity="0.78616"
       stroke="#000000"
       stroke-width="0.264583pt" />
    <path
       id="path189"
       d="m 145.80661,128.2987 7.50041,0.62495 c 0,0 3.7502,3.7502 1.25016,5.62531 -2.50032,1.8751 -8.75057,-0.62495 -8.75057,-0.62495 z"
       stroke-opacity="0.55346"
       fill-rule="evenodd"
       stroke="#000000"
       stroke-width="0.330729"
       fill="#f7ce00" />
    <path
       id="path190"
       d="m 70.412539,129.55018 -7.50041,0.62495 c 0,0 -3.75021,3.7502 -1.25016,5.6253 2.50031,1.87511 8.75057,-0.62494 8.75057,-0.62494 z"
       stroke-opacity="0.54717"
       fill-rule="evenodd"
       stroke="#000000"
       stroke-width="0.264583pt"
       fill="#f7ce00" />
    <path
       id="path304"
       d="m 74.549559,58.960672 c -2.38733,0.41619 -5.11175,5.026554 -3.85868,5.794904 2.98476,-1.505214 8.81777,-3.573462 14.54785,-4.149725 1.134001,-0.608541 2.682343,-2.475441 2.740551,-2.891631 -3.938591,-0.224102 -10.825431,0.734219 -13.429721,1.246452 z"
       stroke-opacity="0.25157"
       fill-rule="evenodd"
       fill-opacity="0.56604"
       stroke="#000000"
       stroke-width="0.286279pt"
       fill="#2e87cf" />
    <path
       id="path306"
       d="m 139.66828,57.661568 c 2.38736,0.416216 5.11175,3.871648 3.85868,4.639998 -2.9845,-1.505109 -8.81777,-1.985724 -14.54785,-2.562146 -1.13387,-0.608515 -2.68128,-2.9083 -2.74108,-3.324489 3.93912,-0.224153 10.82596,0.734324 13.43025,1.246584 z"
       stroke-opacity="0.25157"
       fill-rule="evenodd"
       fill-opacity="0.56604"
       stroke="#000000"
       stroke-width="0.286279pt"
       fill="#2e87cf" />
    <path
       id="path307"
       d="m 90.347301,57.202516 c 9.815509,-1.732227 26.415209,-1.588029 33.488309,-0.722048"
       stroke-opacity="0.37107"
       stroke="#000000"
       stroke-width="0.264583pt"
       fill="none" />
    <path
       id="path308"
       d="M 90.347301,57.924299 C 100.16281,56.192072 116.76251,56.33627 123.83561,57.202251"
       stroke-opacity="0.37107"
       stroke="#000000"
       stroke-width="0.264583pt"
       fill="none" />
    <path
       id="path309"
       d="m 90.347301,58.790281 c 9.815509,-1.732228 26.415209,-1.58803 33.488309,-0.722048"
       stroke-opacity="0.37107"
       stroke="#000000"
       stroke-width="0.264583pt"
       fill="none" />
    <path
       id="path310"
       d="m 90.347301,59.800724 c 9.815509,-1.587764 25.982079,-1.299368 32.911519,-0.86651"
       stroke-opacity="0.37107"
       stroke="#000000"
       stroke-width="0.264583pt"
       fill="none" />
    <path
       id="path186"
       d="m 72.053479,132.67491 c 0,0 4.37515,20.00118 4.37515,20.00118 0,0 0,37.50204 -0.62494,38.12646 -0.62521,0.62494 -5.62531,11.25034 -5.62531,11.25034 0,0 1.24989,-68.12756 1.8751,-69.37904 z"
       fill-rule="evenodd"
       fill-opacity="0.68554"
       stroke="#000000"
       stroke-width="0.264583pt" />
    <path
       id="path211"
       d="m 70.254839,136.6172 c -0.61727,6.79106 -3.96636,117.32948 1.23455,117.30038 18.482733,7.00272 58.636961,6.23993 73.691751,-1.85217 4.63814,-0.0188 1.85182,-110.51116 1.23454,-117.30037"
       stroke="#000000"
       stroke-width="0.264583pt"
       fill="none" />
    <path
       id="path187"
       d="m 144.55778,131.42608 c 0,0 -4.37515,20.00117 -4.37515,20.00117 0,0 0,37.50205 0.62494,38.12646 0.62522,0.62495 5.62531,11.25035 5.62531,11.25035 0,0 -1.24989,-68.12756 -1.8751,-69.37904 z"
       fill-rule="evenodd"
       fill-opacity="0.74843"
       stroke="#000000"
       stroke-width="0.264583pt" />
    <path
       style="fill:#aa0000;stroke:#000000;stroke-width:0.999998;stroke-linecap:round;stroke-linejoin:round;stroke-opacity:0.530266"
       d="m 71.948559,120.45206 c -2.21894,-4.34947 -3.72042,-23.557166 -3.05107,-39.030927 0.41044,-9.488373 1.00243,-13.883298 2.04934,-15.214234 1.0273,-1.305997 4.72555,-2.832527 9.27819,-3.829763 13.45522,-2.94731 42.452161,-3.219364 58.254551,-0.546551 4.41247,0.746323 4.89325,0.924222 5.33113,1.97265 0.60863,1.457272 1.12113,4.535282 1.42979,8.587169 0.34714,4.557101 0.18125,23.952543 -0.25891,30.272016 -0.59355,8.52153 -1.53064,17.11788 -1.90705,17.49429 -0.0516,0.0516 -0.53426,-0.12956 -1.07249,-0.40266 -3.63752,-1.84574 -13.83593,-4.02443 -23.49182,-5.01857 -7.80594,-0.80368 -16.78465,-0.23429 -28.491314,1.80677 -7.641237,1.33226 -14.633877,3.20406 -16.713947,4.47402 l -0.81478,0.49746 z"
       id="path1" />
    <path
       style="fill:#ff2a2a;stroke:#000000;stroke-width:0.999998;stroke-linecap:round;stroke-linejoin:round;stroke-opacity:0.530266"
       d="m 72.283559,119.65763 c -0.93975,-2.67531 -1.64037,-6.88612 -2.27752,-13.68818 -0.56277,-6.007966 -0.64551,-25.605458 -0.1321,-31.289565 0.38332,-4.24388 0.8826,-6.932288 1.44756,-7.794523 1.68137,-2.56609 9.9196,-4.632595 22.894786,-5.743 6.039475,-0.516853 28.744385,-0.427121 34.723785,0.137232 4.97063,0.469142 10.4687,1.239947 12.59214,1.765361 1.58755,0.392815 1.95473,1.048653 2.59736,4.639295 0.40473,2.261385 0.45486,4.252883 0.45149,17.934264 -0.003,10.280349 -0.11081,16.615116 -0.32608,19.079006 -0.47227,5.40521 -1.32425,13.52311 -1.4876,14.17417 l -0.14162,0.56448 -0.9755,-0.49766 c -2.4019,-1.22536 -11.32376,-3.25642 -19.19705,-4.3702 -5.39867,-0.76371 -16.76039,-0.82203 -22.513223,-0.11555 -9.152692,1.124 -19.857948,3.3131 -24.421128,4.99382 -1.18926,0.43803 -2.33719,0.85408 -2.55097,0.92456 -0.26582,0.0876 -0.48214,-0.1379 -0.68433,-0.71351 z"
       id="path2" />
    <path
       style="fill:#ff2a2a;stroke:#000000;stroke-width:0.999998;stroke-linecap:round;stroke-linejoin:round;stroke-opacity:0.530266"
       d="m 72.875629,119.48957 c -0.35591,-0.603 -1.2473,-5.12692 -1.682,-8.53639 -0.82362,-6.4598 -1.08577,-13.523359 -0.94023,-25.334666 0.17195,-13.95446 0.60762,-17.523813 2.32271,-19.029688 2.06673,-1.814611 8.2166,-3.321962 18.587535,-4.555865 5.545301,-0.659762 33.370826,-0.653745 39.302746,0.0085 4.616,0.515333 9.95243,1.34263 11.13137,1.725675 1.01851,0.330917 1.22337,0.699594 1.78229,3.207431 0.39668,1.779868 0.44021,3.768656 0.42759,19.5343 -0.0139,17.321053 -0.0233,17.639963 -0.71305,24.166743 -0.38445,3.63773 -0.75992,6.86106 -0.83439,7.16296 l -0.1354,0.54891 -2.14474,-0.72497 c -4.8606,-1.64299 -15.36752,-3.62296 -21.69703,-4.0887 -4.93238,-0.36293 -15.58683,-0.1426 -19.614977,0.40563 -8.610397,1.17187 -17.532364,3.01275 -22.579954,4.65896 -1.71335,0.55879 -3.15896,0.94181 -3.21247,0.85117 z"
       id="path3" />
  </g>
</svg>
