<?xml version="1.0" encoding="iso-8859-1"?>
<!-- Uploaded to: SVG Repo, www.svgrepo.com, Generator: SVG Repo Mixer Tools -->
<svg fill="#000000" height="800px" width="800px" version="1.1" id="Layer_1" xmlns="http://www.w3.org/2000/svg" xmlns:xlink="http://www.w3.org/1999/xlink" 
	 viewBox="0 0 503.607 503.607" xml:space="preserve">
<g>
	<g>
		<path d="M327.344,109.954V25.18c0-14.269-10.911-25.18-25.18-25.18s-25.18,10.911-25.18,25.18v76.38
			c-7.554-0.839-15.948-0.839-25.18-0.839c-9.233,0-17.626,0-25.18,0.839V25.18c0-14.269-10.911-25.18-25.18-25.18
			s-25.18,10.911-25.18,25.18v84.774c-20.984,7.554-25.18,17.626-25.18,24.341v113.311l68.826,29.377h63.79l68.826-29.377V134.295
			C352.525,126.741,348.328,116.669,327.344,109.954z M209.836,102.4c-0.839,0-1.679,0-2.518,0c-2.518,0-5.036,0.839-7.554,0.839
			c-0.839,0-2.518,0-3.357,0.839c-0.839,0.839-2.518,0.839-3.357,0.839V25.18c0-5.036,3.357-8.393,8.393-8.393
			s8.393,3.357,8.393,8.393V102.4z M310.557,104.918c-0.839,0-2.518,0-3.357-0.839c-0.839,0-2.518,0-3.357-0.839
			c-2.518,0-5.036-0.839-7.554-0.839c-0.839,0-1.679,0-2.518,0V25.18c0-5.036,3.357-8.393,8.393-8.393s8.393,3.357,8.393,8.393
			V104.918z"/>
	</g>
</g>
<g>
	<g>
		<path d="M386.098,486.82H276.984v-33.574h16.787c5.036,0,8.393-3.357,8.393-8.393v-25.18H268.59c-5.036,0-8.393-3.357-8.393-8.393
			s3.357-8.393,8.393-8.393h33.574v-16.787H268.59c-5.036,0-8.393-3.357-8.393-8.393c0-5.036,3.357-8.393,8.393-8.393h33.574
			v-21.823l47.843-47.843c1.679-1.679,2.518-3.357,2.518-5.875v-27.698l-63.79,26.859c-0.839,0.839-2.518,0.839-3.357,0.839h-67.148
			c-0.839,0-2.518,0-3.357-0.839l-63.79-26.859v27.698c0,2.518,0.839,4.197,2.518,5.875l47.843,47.843v21.823h33.574
			c5.036,0,8.393,3.357,8.393,8.393c0,5.036-3.357,8.393-8.393,8.393h-33.574v16.787h33.574c5.036,0,8.393,3.357,8.393,8.393
			s-3.357,8.393-8.393,8.393h-33.574v25.18c0,5.036,3.357,8.393,8.393,8.393h16.787v33.574H117.508
			c-5.036,0-8.393,3.357-8.393,8.393c0,5.036,3.357,8.393,8.393,8.393h117.508h33.574h117.508c5.036,0,8.393-3.357,8.393-8.393
			C394.492,491.016,391.134,486.82,386.098,486.82z M260.197,486.82H243.41v-33.574h16.787V486.82z"/>
	</g>
</g>
</svg>