<?xml version="1.0" encoding="UTF-8" standalone="no"?>
<!-- Uploaded to: SVG Repo, www.svgrepo.com, Generator: SVG Repo Mixer Tools -->

<svg
   fill="#000000"
   height="800px"
   width="800px"
   version="1.1"
   id="Capa_1"
   viewBox="0 0 47.032 47.032"
   xml:space="preserve"
   sodipodi:docname="car_top_warning_funk.svg"
   inkscape:version="1.3 (0e150ed6c4, 2023-07-21)"
   xmlns:inkscape="http://www.inkscape.org/namespaces/inkscape"
   xmlns:sodipodi="http://sodipodi.sourceforge.net/DTD/sodipodi-0.dtd"
   xmlns="http://www.w3.org/2000/svg"
   xmlns:svg="http://www.w3.org/2000/svg"><defs
   id="defs16" /><sodipodi:namedview
   id="namedview16"
   pagecolor="#ffffff"
   bordercolor="#000000"
   borderopacity="0.25"
   inkscape:showpageshadow="2"
   inkscape:pageopacity="0.0"
   inkscape:pagecheckerboard="0"
   inkscape:deskcolor="#d1d1d1"
   inkscape:zoom="0.35355339"
   inkscape:cx="664.68037"
   inkscape:cy="32.526912"
   inkscape:window-width="1920"
   inkscape:window-height="1017"
   inkscape:window-x="-8"
   inkscape:window-y="-8"
   inkscape:window-maximized="1"
   inkscape:current-layer="Capa_1" />&#10;<g
   id="g16">&#10;	<path
   d="M29.395,0H17.636c-3.117,0-5.643,3.467-5.643,6.584v34.804c0,3.116,2.526,5.644,5.643,5.644h11.759   c3.116,0,5.644-2.527,5.644-5.644V6.584C35.037,3.467,32.511,0,29.395,0z M34.05,14.188v11.665l-2.729,0.351v-4.806L34.05,14.188z    M32.618,10.773c-1.016,3.9-2.219,8.51-2.219,8.51H16.631l-2.222-8.51C14.41,10.773,23.293,7.755,32.618,10.773z M15.741,21.713   v4.492l-2.73-0.349V14.502L15.741,21.713z M13.011,37.938V27.579l2.73,0.343v8.196L13.011,37.938z M14.568,40.882l2.218-3.336   h13.771l2.219,3.336H14.568z M31.321,35.805v-7.872l2.729-0.355v10.048L31.321,35.805z"
   id="path1" />&#10;	<g
   id="g1">&#10;	</g>&#10;	<g
   id="g2">&#10;	</g>&#10;	<g
   id="g3">&#10;	</g>&#10;	<g
   id="g4">&#10;	</g>&#10;	<g
   id="g5">&#10;	</g>&#10;	<g
   id="g6">&#10;	</g>&#10;	<g
   id="g7">&#10;	</g>&#10;	<g
   id="g8">&#10;	</g>&#10;	<g
   id="g9">&#10;	</g>&#10;	<g
   id="g10">&#10;	</g>&#10;	<g
   id="g11">&#10;	</g>&#10;	<g
   id="g12">&#10;	</g>&#10;	<g
   id="g13">&#10;	</g>&#10;	<g
   id="g14">&#10;	</g>&#10;	<g
   id="g15">&#10;	</g>&#10;</g>&#10;<rect
   style="fill:#ff0000;stroke:#000000;stroke-width:0.222199;stroke-linecap:round;stroke-linejoin:round;stroke-opacity:0.530266"
   id="rect18"
   width="22.832802"
   height="0.16276656"
   x="12.10276"
   y="6.9864941" /><path
   style="fill:#ff0000;stroke:#000000;stroke-width:0.222199;stroke-linecap:round;stroke-linejoin:round;stroke-opacity:0.530266"
   d="m 12.146075,6.2603214 c 0.232186,-2.8850071 2.234117,-5.52634388 4.618032,-6.0930061 0.433398,-0.10301975 1.547986,-0.1234853 6.781318,-0.12451552 4.173373,-8.2156e-4 6.40893,0.02889178 6.701076,0.08906563 1.140682,0.23494909 2.517246,1.21200659 3.334631,2.36685519 0.815164,1.1517125 1.36433,2.7027856 1.36433,3.8534375 V 6.9643706 H 23.517438 12.089414 Z"
   id="path18" /></svg>
