<svg width="218" height="108" viewBox="0 0 218 108" fill="none" xmlns="http://www.w3.org/2000/svg">
<path d="M207.917 23.1166L132.344 2.4974C119.9 -0.880179 106.634 0.647992 95.2842 6.76657L62.0392 24.9332L13.625 34.0166C10.0271 34.0165 6.57523 35.4395 4.02264 37.9751C1.47005 40.5106 0.0239859 43.9529 0 47.5507L0 74.8007C0 78.4143 1.43549 81.8799 3.99067 84.4351C6.54585 86.9902 10.0114 88.4257 13.625 88.4257H22.7083C23.6011 93.694 26.3302 98.476 30.412 101.924C34.4938 105.373 39.6646 107.264 45.0079 107.264C50.3513 107.264 55.5221 105.373 59.6039 101.924C63.6856 98.476 66.4147 93.694 67.3075 88.4257H149.875C150.768 93.694 153.497 98.476 157.579 101.924C161.66 105.373 166.831 107.264 172.175 107.264C177.518 107.264 182.689 105.373 186.771 101.924C190.852 98.476 193.581 93.694 194.474 88.4257H203.557C207.171 88.4257 210.637 86.9902 213.192 84.4351C215.747 81.8799 217.182 78.4143 217.182 74.8007V35.8332C217.143 33.0157 216.23 30.2798 214.571 28.0024C212.912 25.725 210.587 24.018 207.917 23.1166ZM163.5 20.4824V24.8424H157.142L153.599 17.6666L163.5 20.4824ZM99.9167 14.8507C108.655 10.1878 118.782 8.83327 128.438 11.0357H130.255H131.799L142.154 13.8516L147.241 24.1157H81.75L99.9167 14.8507ZM45.4167 98.1449C42.7219 98.1449 40.0876 97.3458 37.847 95.8487C35.6064 94.3515 33.8601 92.2236 32.8288 89.734C31.7976 87.2443 31.5277 84.5048 32.0535 81.8618C32.5792 79.2188 33.8768 76.7911 35.7823 74.8856C37.6878 72.9801 40.1156 71.6824 42.7586 71.1567C45.4016 70.631 48.1411 70.9008 50.6307 71.932C53.1204 72.9633 55.2483 74.7096 56.7454 76.9502C58.2426 79.1909 59.0417 81.8251 59.0417 84.5199C59.0417 88.1335 57.6062 91.599 55.051 94.1542C52.4958 96.7094 49.0302 98.1449 45.4167 98.1449ZM172.583 98.1449C169.889 98.1449 167.254 97.3458 165.014 95.8487C162.773 94.3515 161.027 92.2236 159.995 89.734C158.964 87.2443 158.694 84.5048 159.22 81.8618C159.746 79.2188 161.044 76.7911 162.949 74.8856C164.854 72.9801 167.282 71.6824 169.925 71.1567C172.568 70.631 175.308 70.9008 177.797 71.932C180.287 72.9633 182.415 74.7096 183.912 76.9502C185.409 79.1909 186.208 81.8251 186.208 84.5199C186.208 88.1335 184.773 91.599 182.218 94.1542C179.662 96.7094 176.197 98.1449 172.583 98.1449ZM208.917 52.0924H204.375C203.17 52.0924 202.015 52.5709 201.164 53.4226C200.312 54.2743 199.833 55.4295 199.833 56.6341C199.833 57.8386 200.312 58.9938 201.164 59.8455C202.015 60.6972 203.17 61.1757 204.375 61.1757H208.917V74.8007C208.917 76.0052 208.438 77.1604 207.586 78.0122C206.735 78.8639 205.58 79.3424 204.375 79.3424H194.656C193.497 74.3697 190.689 69.9354 186.69 66.7611C182.691 63.5867 177.735 61.859 172.629 61.859C167.523 61.859 162.567 63.5867 158.568 66.7611C154.568 69.9354 151.761 74.3697 150.602 79.3424H67.4892C66.3301 74.3697 63.5226 69.9354 59.5232 66.7611C55.5239 63.5867 50.5681 61.859 45.4621 61.859C40.3561 61.859 35.4003 63.5867 31.4009 66.7611C27.4016 69.9354 24.594 74.3697 23.435 79.3424H13.625C12.4205 79.3424 11.2653 78.8639 10.4136 78.0122C9.56183 77.1604 9.08333 76.0052 9.08333 74.8007V61.1757H13.625C14.8295 61.1757 15.9847 60.6972 16.8364 59.8455C17.6882 58.9938 18.1667 57.8386 18.1667 56.6341C18.1667 55.4295 17.6882 54.2743 16.8364 53.4226C15.9847 52.5709 14.8295 52.0924 13.625 52.0924H9.08333V47.5507C9.11718 46.8898 9.28444 46.2425 9.57504 45.6479C9.86564 45.0532 10.2736 44.5236 10.7743 44.0908C11.275 43.6579 11.8581 43.3309 12.4885 43.1294C13.1189 42.9279 13.7836 42.8561 14.4425 42.9182L63.5833 33.9257H168.042C169.246 33.9257 170.401 33.4472 171.253 32.5955C172.105 31.7438 172.583 30.5886 172.583 29.3841V22.9349L205.556 32.0182C206.433 32.2464 207.221 32.7315 207.82 33.4114C208.419 34.0912 208.801 34.9346 208.917 35.8332V52.0924ZM140.792 61.1757H77.2083C76.0038 61.1757 74.8486 61.6542 73.9969 62.5059C73.1452 63.3577 72.6667 64.5129 72.6667 65.7174C72.6667 66.9219 73.1452 68.0771 73.9969 68.9288C74.8486 69.7806 76.0038 70.2591 77.2083 70.2591H140.792C141.996 70.2591 143.151 69.7806 144.003 68.9288C144.855 68.0771 145.333 66.9219 145.333 65.7174C145.333 64.5129 144.855 63.3577 144.003 62.5059C143.151 61.6542 141.996 61.1757 140.792 61.1757Z" fill="#E8E8E8"/>
</svg>
