<svg width="109" height="119" viewBox="0 0 109 119" fill="none" xmlns="http://www.w3.org/2000/svg">
<path d="M5 15C5 9.47715 9.47715 5 15 5H30C35.5228 5 40 9.47715 40 15V35C40 40.5228 35.5228 45 30 45H15C9.47715 45 5 40.5228 5 35V15Z" stroke="#E8E8E8" stroke-width="10"/>
<path d="M69 15C69 9.47715 73.4772 5 79 5H94C99.5228 5 104 9.47715 104 15V35C104 40.5228 99.5228 45 94 45H79C73.4772 45 69 40.5228 69 35V15Z" stroke="#E8E8E8" stroke-width="10"/>
<path d="M69 84C69 78.4772 73.4772 74 79 74H94C99.5228 74 104 78.4772 104 84V104C104 109.523 99.5228 114 94 114H79C73.4772 114 69 109.523 69 104V84Z" stroke="#E8E8E8" stroke-width="10"/>
<path d="M5 84C5 78.4772 9.47715 74 15 74H30C35.5228 74 40 78.4772 40 84V104C40 109.523 35.5228 114 30 114H15C9.47715 114 5 109.523 5 104V84Z" stroke="#E8E8E8" stroke-width="10"/>
</svg>
