<svg width="168" height="163" viewBox="0 0 168 163" fill="none" xmlns="http://www.w3.org/2000/svg">
<path d="M147.023 162.438H20.9769C18.296 162.438 15.6414 161.909 13.1646 160.884C10.6878 159.858 8.43738 158.354 6.54173 156.458C4.64608 154.563 3.14237 152.312 2.11645 149.835C1.09053 147.359 0.5625 144.704 0.5625 142.023V60.4769C0.5625 55.0626 2.71329 49.8702 6.54173 46.0417C10.3702 42.2133 15.5626 40.0625 20.9769 40.0625H147.023C149.704 40.0625 152.359 40.5905 154.835 41.6164C157.312 42.6424 159.563 44.1461 161.458 46.0417C163.354 47.9374 164.858 50.1878 165.884 52.6646C166.909 55.1414 167.438 57.796 167.438 60.4769V142.023C167.438 144.704 166.909 147.359 165.884 149.835C164.858 152.312 163.354 154.563 161.458 156.458C159.563 158.354 157.312 159.858 154.835 160.884C152.359 161.909 149.704 162.438 147.023 162.438ZM20.9769 51.1875C18.5132 51.1875 16.1504 52.1662 14.4083 53.9083C12.6662 55.6504 11.6875 58.0132 11.6875 60.4769V142.023C11.6875 144.487 12.6662 146.85 14.4083 148.592C16.1504 150.334 18.5132 151.312 20.9769 151.312H147.023C149.487 151.312 151.85 150.334 153.592 148.592C155.334 146.85 156.312 144.487 156.312 142.023V60.4769C156.312 58.0132 155.334 55.6504 153.592 53.9083C151.85 52.1662 149.487 51.1875 147.023 51.1875H20.9769Z" fill="#E8E8E8"/>
<path d="M84.0001 50.0191C80.4399 50.0138 76.9875 48.7976 74.2101 46.5704L29.2651 10.581C28.6895 10.126 28.2097 9.56158 27.8532 8.92034C27.4967 8.27909 27.2705 7.57365 27.1878 6.84464C27.1051 6.11564 27.1674 5.37747 27.3712 4.67265C27.5749 3.96782 27.9161 3.31027 28.3751 2.73786C28.8301 2.16232 29.3945 1.68248 30.0357 1.32598C30.677 0.969475 31.3824 0.743349 32.1114 0.660625C32.8404 0.577901 33.5786 0.640213 34.2834 0.843972C34.9882 1.04773 35.6458 1.38891 36.2182 1.84786L81.1632 37.8372C81.9606 38.4507 82.9384 38.7833 83.9444 38.7833C84.9505 38.7833 85.9283 38.4507 86.7257 37.8372L131.671 1.90349C132.243 1.42403 132.905 1.06454 133.619 0.846419C134.332 0.628301 135.083 0.556016 135.825 0.633868C136.567 0.711719 137.286 0.938116 137.939 1.29958C138.592 1.66104 139.165 2.15018 139.625 2.73786C140.084 3.31027 140.425 3.96782 140.629 4.67265C140.833 5.37747 140.895 6.11564 140.812 6.84464C140.73 7.57365 140.503 8.27909 140.147 8.92034C139.79 9.56158 139.311 10.126 138.735 10.581L93.7901 46.5147C91.0201 48.762 87.5669 49.998 84.0001 50.0191ZM111.813 134.625C105.212 134.625 98.7589 132.667 93.2704 129C87.7819 125.333 83.5042 120.12 80.9781 114.022C78.452 107.923 77.7911 101.213 79.0788 94.7386C80.3666 88.2645 83.5453 82.3176 88.2129 77.6501C92.8804 72.9825 98.8273 69.8038 105.301 68.516C111.776 67.2283 118.486 67.8892 124.585 70.4153C130.683 72.9413 135.896 77.2191 139.563 82.7076C143.23 88.1961 145.188 94.6488 145.188 101.25C145.188 110.101 141.671 118.59 135.412 124.849C129.153 131.108 120.664 134.625 111.813 134.625ZM111.813 78.9997C107.412 78.9997 103.11 80.3047 99.4511 82.7495C95.7921 85.1944 92.9403 88.6694 91.2562 92.735C89.5722 96.8007 89.1316 101.274 89.9901 105.59C90.8486 109.907 92.9677 113.871 96.0794 116.983C99.1912 120.095 103.156 122.214 107.472 123.072C111.788 123.931 116.262 123.49 120.327 121.806C124.393 120.122 127.868 117.27 130.313 113.611C132.758 109.952 134.063 105.65 134.063 101.25C134.063 95.3487 131.718 89.6893 127.546 85.5166C123.373 81.3439 117.714 78.9997 111.813 78.9997Z" fill="#E8E8E8"/>
<path d="M53.0723 83.8945H41.9473C38.8752 83.8945 36.3848 86.3849 36.3848 89.457C36.3848 92.5291 38.8752 95.0195 41.9473 95.0195H53.0723C56.1443 95.0195 58.6348 92.5291 58.6348 89.457C58.6348 86.3849 56.1443 83.8945 53.0723 83.8945Z" fill="#E8E8E8"/>
<path d="M53.0723 104.031H41.9473C38.8752 104.031 36.3848 106.522 36.3848 109.594C36.3848 112.666 38.8752 115.156 41.9473 115.156H53.0723C56.1443 115.156 58.6348 112.666 58.6348 109.594C58.6348 106.522 56.1443 104.031 53.0723 104.031Z" fill="#E8E8E8"/>
</svg>
