<svg width="156" height="155" viewBox="0 0 156 155" fill="none" xmlns="http://www.w3.org/2000/svg">
<path d="M100.308 154.911H99.7928C97.9037 154.797 96.1052 154.062 94.677 152.82C93.2489 151.578 92.2712 149.899 91.8961 148.044L77.3903 77.661L7.00699 63.1551C5.14845 62.786 3.46428 61.8123 2.2171 60.3857C0.969923 58.9592 0.22984 57.1601 0.112253 55.2689C-0.00533459 53.3777 0.506185 51.5007 1.56705 49.9307C2.62791 48.3607 4.17849 47.1858 5.97699 46.5893L143.31 0.840144C144.852 0.20363 146.545 0.0299999 148.184 0.34048C149.823 0.65096 151.335 1.4321 152.537 2.58842C153.739 3.74474 154.578 5.22614 154.952 6.85157C155.325 8.47699 155.217 10.176 154.64 11.741L108.891 149.074C108.294 150.851 107.132 152.383 105.582 153.437C104.032 154.491 102.18 155.009 100.308 154.911ZM41.9412 52.7693L86.4887 61.8676C88.1539 62.1889 89.6866 62.9962 90.8935 64.1877C92.1003 65.3793 92.9271 66.9016 93.2695 68.5626L102.282 113.11L132.495 22.556L41.9412 52.7693Z" fill="#E8E8E8"/>
</svg>
