<svg width="181" height="181" viewBox="0 0 181 181" fill="none" xmlns="http://www.w3.org/2000/svg">
<path d="M132.639 118.385C131.063 116.804 129.189 115.548 127.127 114.692C125.064 113.835 122.853 113.395 120.619 113.395C118.386 113.395 116.175 113.835 114.112 114.692C112.05 115.548 110.176 116.804 108.6 118.385L100.398 126.587C91.164 120.726 82.6084 113.859 74.8887 106.111C67.1573 98.377 60.2916 89.8233 54.413 80.6017L62.6146 72.4002C64.1965 70.8237 65.4517 68.9505 66.3082 66.8879C67.1646 64.8253 67.6055 62.614 67.6055 60.3806C67.6055 58.1473 67.1646 55.936 66.3082 53.8734C65.4517 51.8108 64.1965 49.9376 62.6146 48.3611L46.6074 32.4105C45.0532 30.8233 43.1958 29.5648 41.1456 28.7097C39.0953 27.8546 36.8941 27.4204 34.6727 27.433C32.4356 27.4275 30.2194 27.8645 28.1518 28.7187C26.0841 29.5729 24.2058 30.8276 22.6249 32.4105L14.9324 40.0464C11.2659 43.9886 8.52937 48.7024 6.92409 53.8413C5.31882 58.9801 4.88555 64.4134 5.65616 69.7417C7.46616 90.9527 21.3805 116.462 42.8177 137.956C64.2549 159.45 90.0474 173.308 111.258 175.344C112.841 175.428 114.427 175.428 116.01 175.344C120.575 175.536 125.134 174.814 129.417 173.221C133.7 171.628 137.622 169.196 140.954 166.068L148.59 158.375C150.173 156.794 151.427 154.916 152.281 152.848C153.136 150.781 153.573 148.565 153.567 146.327C153.58 144.106 153.145 141.905 152.29 139.855C151.435 137.804 150.177 135.947 148.59 134.393L132.639 118.385ZM140.614 150.4L132.922 158.036C130.078 160.406 126.757 162.138 123.186 163.114C119.614 164.09 115.874 164.287 112.22 163.692C93.8371 162.108 70.4202 149.099 51.0758 129.755C31.7315 110.41 18.7221 87.163 16.9687 68.7802C16.3587 65.1257 16.5485 61.3825 17.525 57.8085C18.5015 54.2345 20.2415 50.9148 22.6249 48.0783L30.6002 40.3858C31.1287 39.8616 31.7555 39.4468 32.4447 39.1653C33.1338 38.8839 33.8718 38.7412 34.6162 38.7455C35.3606 38.7412 36.0985 38.8839 36.7876 39.1653C37.4768 39.4468 38.1036 39.8616 38.6321 40.3858L54.6393 56.5627C55.6928 57.6224 56.2841 59.056 56.2841 60.5503C56.2841 62.0446 55.6928 63.4782 54.6393 64.538L43.3268 75.8505C42.4416 76.7313 41.8727 77.8804 41.709 79.1184C41.5453 80.3565 41.7959 81.6139 42.4218 82.6945C49.1945 94.2245 57.4263 104.833 66.9133 114.256C76.3371 123.743 86.9452 131.975 98.4752 138.748C99.5559 139.374 100.813 139.624 102.051 139.461C103.289 139.297 104.438 138.728 105.319 137.843L116.632 126.53C117.692 125.477 119.125 124.886 120.619 124.886C122.114 124.886 123.547 125.477 124.607 126.53L140.614 142.538C141.139 143.066 141.553 143.693 141.835 144.382C142.116 145.071 142.259 145.809 142.255 146.554C142.219 147.998 141.632 149.374 140.614 150.4ZM150.456 30.4874C142.595 22.5967 133.251 16.3402 122.96 12.0784C112.67 7.81668 101.638 5.63407 90.4999 5.65642C88.9998 5.65642 87.5611 6.25234 86.5003 7.3131C85.4396 8.37385 84.8437 9.81254 84.8437 11.3127C84.8437 12.8128 85.4396 14.2515 86.5003 15.3122C87.5611 16.373 88.9998 16.9689 90.4999 16.9689C100.209 16.9686 109.822 18.8909 118.784 22.6251C127.746 26.3592 135.879 31.8312 142.716 38.7252C149.552 45.6193 154.955 53.7989 158.614 62.7921C162.272 71.7852 164.113 81.4139 164.031 91.1224C164.031 92.6225 164.627 94.0612 165.688 95.1219C166.749 96.1827 168.187 96.7786 169.687 96.7786C171.188 96.7786 172.626 96.1827 173.687 95.1219C174.748 94.0612 175.344 92.6225 175.344 91.1224C175.452 79.8661 173.306 68.702 169.031 58.2882C164.757 47.8744 158.441 38.4217 150.456 30.4874Z" fill="#E8E8E8"/>
<path d="M139.097 87.2137L139.097 87.2137V87.2199C139.097 88.5874 138.553 89.899 137.586 90.8659C136.619 91.8329 135.308 92.3762 133.94 92.3762C132.573 92.3762 131.261 91.8329 130.294 90.8659C129.328 89.8995 128.785 88.589 128.784 87.2223C128.826 82.6306 127.948 78.0769 126.204 73.8293C124.46 69.5817 121.883 65.7259 118.627 62.4887C115.454 59.2665 111.677 56.701 107.512 54.9386C103.346 53.1757 98.8737 52.2509 94.3504 52.2168L94.3504 52.2168H94.3467C92.9792 52.2168 91.6676 51.6735 90.7007 50.7066C89.7337 49.7396 89.1904 48.4281 89.1904 47.0605C89.1904 45.693 89.7337 44.3815 90.7007 43.4145C91.6676 42.4475 92.9792 41.9043 94.3467 41.9043H94.3467C100.271 41.9038 106.136 43.0796 111.602 45.3634C117.068 47.6472 122.026 50.9936 126.189 55.2084C130.352 59.4233 133.637 64.4227 135.852 69.9168C138.068 75.4108 139.171 81.2901 139.097 87.2137Z" fill="#E8E8E8" stroke="black"/>
</svg>
