<svg width="147" height="147" viewBox="0 0 147 147" fill="none" xmlns="http://www.w3.org/2000/svg">
<g clip-path="url(#clip0_100_339)">
<path d="M73.5 104.338C56.563 104.338 42.662 90.5967 42.662 73.5C42.662 56.563 56.4033 42.662 73.5 42.662C90.437 42.662 104.338 56.4033 104.338 73.5C104.338 90.437 90.437 104.338 73.5 104.338ZM73.5 54.0065C62.7946 54.0065 54.0065 62.7946 54.0065 73.5C54.0065 84.2054 62.7946 92.9935 73.5 92.9935C84.2054 92.9935 92.9935 84.2054 92.9935 73.5C92.9935 62.7946 84.2054 54.0065 73.5 54.0065ZM73.5 147H72.7011C67.1087 147 62.3152 146.361 61.9957 146.361C59.4391 146.041 57.5217 144.124 57.0424 141.567L55.4446 130.063C51.9294 128.945 48.5739 127.507 45.3783 125.749L36.4304 132.62C34.3533 134.217 31.637 134.058 29.5598 132.62C29.4 132.46 25.5652 129.424 21.5707 125.589L20.9315 124.95C16.937 120.955 14.0609 117.121 13.9011 116.961C12.3033 114.884 12.3033 112.167 13.9011 110.09L20.9315 100.823C19.1739 97.6272 17.8957 94.112 16.7772 90.5967L5.59239 88.9989C3.03587 88.6794 1.11848 86.6022 0.798913 84.0457C0.63913 83.8859 0 79.0924 0 73.5V72.7011C0 67.1087 0.63913 62.3152 0.63913 61.9957C0.958696 59.4391 2.87609 57.5217 5.43261 57.0424L16.937 55.4446C18.0554 51.9294 19.4935 48.5739 21.2511 45.3783L14.3804 36.4304C12.7826 34.3533 12.9424 31.637 14.3804 29.5598C14.5402 29.4 17.5761 25.5652 21.4109 21.5707L22.05 20.9315C26.0446 16.937 29.8793 14.0609 30.0391 13.9011C32.1163 12.3033 34.8326 12.3033 36.9098 13.9011L46.1772 20.9315C49.3728 19.1739 52.888 17.8957 56.4033 16.7772L58.0011 5.59239C58.3207 3.03587 60.3978 1.11848 62.9544 0.798913C63.1141 0.63913 67.9076 0 73.5 0H74.2989C79.8913 0 84.6848 0.63913 85.0043 0.63913C87.5609 0.958696 89.4783 2.87609 89.9576 5.43261L91.5554 16.937C95.0707 18.0554 98.4261 19.4935 101.622 21.2511L110.57 14.3804C112.647 12.7826 115.363 12.9424 117.44 14.3804C117.6 14.5402 121.435 17.5761 125.429 21.4109L126.068 22.05C130.063 26.0446 132.939 29.8793 133.099 30.0391C134.697 32.1163 134.697 34.8326 133.099 36.9098L126.228 46.1772C127.986 49.3728 129.264 52.888 130.383 56.4033L141.567 58.0011C144.124 58.3207 146.041 60.3978 146.361 62.9544C146.361 63.1141 147 68.0674 147 73.6598V74.4587C147 80.0511 146.361 84.8446 146.361 85.1641C146.041 87.7206 144.124 89.638 141.567 90.1174L130.063 91.7152C128.945 95.2304 127.507 98.5859 125.749 101.782L132.62 110.889C134.217 112.966 134.058 115.683 132.62 117.76C132.46 117.92 129.424 121.754 125.589 125.749L124.95 126.388C120.955 130.383 117.121 133.259 116.961 133.418C114.884 135.016 112.167 135.016 110.09 133.418L100.823 126.228C97.6272 127.986 94.112 129.264 90.5967 130.383L88.9989 141.567C88.6794 144.124 86.6022 146.041 84.0457 146.361C83.8859 146.361 79.0924 147 73.5 147ZM67.7478 135.496C69.1859 135.655 70.9435 135.655 72.7011 135.655H73.5C75.2576 135.655 77.0152 135.655 78.4533 135.496L79.8913 124.95C80.2109 122.553 81.9685 120.796 84.2054 120.157C89.1587 119.038 93.9522 117.121 98.2663 114.404C99.5446 113.605 101.142 113.446 102.58 113.765C103.379 113.925 104.178 114.404 104.817 114.884L113.286 121.275C114.404 120.316 115.683 119.198 116.961 117.92L117.6 117.28C118.878 116.002 119.997 114.724 120.955 113.605L114.564 105.137C113.126 103.22 113.126 100.663 114.245 98.7457C116.961 94.5913 118.878 89.9576 119.997 85.1641C120.476 82.7674 122.393 80.85 124.79 80.5304L135.496 79.0924C135.655 77.6544 135.655 75.8967 135.655 74.1391V73.5C135.655 71.7424 135.655 69.9848 135.496 68.5467L124.95 67.1087C122.713 66.7891 120.796 65.0315 120.157 62.7946C119.038 57.8413 117.121 53.2076 114.564 48.8935C114.245 48.5739 114.085 48.0946 113.925 47.6152C113.286 45.8576 113.605 43.7804 114.724 42.3424L121.275 33.7141C120.316 32.5957 119.198 31.3174 117.92 30.0391L117.28 29.4C116.002 28.1217 114.724 27.0033 113.605 26.0446L105.137 32.4359C103.06 33.8739 100.343 33.8739 98.4261 32.4359C94.2717 29.8793 89.638 27.962 84.8446 26.6837C82.6076 26.2043 80.85 24.287 80.5304 21.8902L79.0924 11.1848C77.6544 11.025 75.8967 11.025 74.1391 11.025H73.5C71.7424 11.025 69.9848 11.025 68.5467 11.1848L67.1087 22.05C66.7891 24.6065 64.8717 26.5239 62.3152 26.8435C57.5217 27.962 52.888 29.8793 48.7337 32.4359C47.4554 33.2348 45.8576 33.3946 44.4196 33.075C43.6207 32.9152 42.8217 32.4359 42.1826 31.9565L33.8739 25.5652C32.7554 26.5239 31.4772 27.6424 30.1989 28.9207L29.5598 29.5598C28.2815 30.838 27.163 32.1163 26.2043 33.2348L32.5957 41.7033C34.0337 43.6207 34.0337 46.0174 32.9152 48.0946C32.7554 48.2543 32.7554 48.4141 32.5957 48.5739C30.0391 52.7283 28.1217 57.362 27.0033 62.1554C26.5239 64.3924 24.6065 66.15 22.2098 66.4696L11.5043 67.9076C11.3446 69.3457 11.3446 71.1033 11.3446 72.8609V73.5C11.3446 75.2576 11.3446 77.0152 11.5043 78.4533L22.05 79.8913C24.6065 80.2109 26.5239 82.1283 26.8435 84.6848V84.8446C27.962 89.638 29.8793 94.112 32.4359 98.2663C33.2348 99.7044 33.5543 101.462 32.9152 103.06C32.7554 103.699 32.2761 104.338 31.7967 104.977L25.5652 113.286C26.5239 114.404 27.6424 115.683 28.9207 116.961L29.5598 117.6C30.838 118.878 32.1163 119.997 33.2348 120.955L41.7033 114.564C43.7804 112.966 46.8163 113.126 48.7337 114.724C52.888 117.28 57.362 119.038 61.9957 120.316C64.2326 120.796 65.9902 122.713 66.3098 125.11L67.7478 135.496Z" fill="#E8E8E8"/>
</g>
<defs>
<clipPath id="clip0_100_339">
<rect width="147" height="147" fill="white"/>
</clipPath>
</defs>
</svg>
