<svg width="127" height="146" viewBox="0 0 127 146" fill="none" xmlns="http://www.w3.org/2000/svg">
<rect x="4" y="4" width="119" height="138" rx="11" stroke="#37485D" stroke-width="8"/>
<path d="M68.791 127.749V32.9338L96.7998 65.1328C97.2892 65.7081 97.873 66.166 98.5173 66.48C99.1617 66.7941 99.8539 66.9581 100.554 66.9625C101.254 66.967 101.947 66.8117 102.595 66.5058C103.242 66.2 103.83 65.7495 104.325 65.1805C104.82 64.6115 105.212 63.9353 105.478 63.1911C105.744 62.4468 105.878 61.6493 105.874 60.8447C105.871 60.0401 105.728 59.2444 105.454 58.5037C105.181 57.763 104.783 57.092 104.282 56.5295L67.2406 13.9462C66.2482 12.8057 64.9025 12.165 63.4994 12.165C62.0962 12.165 60.7505 12.8057 59.7581 13.9462L22.7165 56.5295C22.2241 57.0938 21.8337 57.7644 21.5676 58.5028C21.3015 59.2411 21.1651 60.0327 21.166 60.8319C21.1662 62.0349 21.4767 63.2108 22.0582 64.211C22.6397 65.2111 23.466 65.9906 24.4328 66.451C25.3996 66.9113 26.4634 67.0318 27.4897 66.7971C28.5161 66.5625 29.4588 65.9833 30.1989 65.1328L58.2077 32.9338V127.749C58.2077 129.362 58.7652 130.909 59.7576 132.05C60.75 133.191 62.0959 133.832 63.4994 133.832C64.9028 133.832 66.2487 133.191 67.2411 132.05C68.2335 130.909 68.791 129.362 68.791 127.749Z" fill="#E8E8E8"/>
</svg>
