<svg width="50" height="50" viewBox="0 0 50 50" fill="none" xmlns="http://www.w3.org/2000/svg">
<path d="M48 9.44335H43.1924V6.5332C43.1924 5.98047 42.7451 5.5332 42.1924 5.5332H33.9219C33.3691 5.5332 32.9219 5.98047 32.9219 6.5332V9.44336H17.0781V6.5332C17.0781 5.98047 16.6309 5.5332 16.0781 5.5332H7.80762C7.25489 5.5332 6.80762 5.98047 6.80762 6.5332V9.44336H2C1.44727 9.44336 1 9.89063 1 10.4434V16.1934C1 16.7461 1.44727 17.1934 2 17.1934H4.35352V43.4688C4.35352 44.0215 4.80079 44.4688 5.35352 44.4688H44.6455C45.1982 44.4688 45.6455 44.0215 45.6455 43.4688V17.1934H48C48.5527 17.1934 49 16.7461 49 16.1934V10.4434C49 9.89062 48.5527 9.44335 48 9.44335ZM43.6455 42.4687H6.35352V17.1963H43.6455V42.4687ZM47 15.1934H3V11.4434H7.80762C8.36035 11.4434 8.80762 10.9961 8.80762 10.4434V7.5332H15.0781V10.4434C15.0781 10.9961 15.5254 11.4434 16.0781 11.4434H33.9219C34.4746 11.4434 34.9219 10.9961 34.9219 10.4434V7.5332H41.1924V10.4434C41.1924 10.9961 41.6397 11.4434 42.1924 11.4434H47V15.1934Z" fill="#EDB969"/>
<path d="M10.624 25.8994H12.4199V27.6943C12.4199 28.2471 12.8672 28.6943 13.4199 28.6943C13.9727 28.6943 14.4199 28.2471 14.4199 27.6943V25.8994H16.2148C16.7676 25.8994 17.2148 25.4521 17.2148 24.8994C17.2148 24.3467 16.7676 23.8994 16.2148 23.8994H14.4199V22.1035C14.4199 21.5508 13.9727 21.1035 13.4199 21.1035C12.8672 21.1035 12.4199 21.5508 12.4199 22.1035V23.8994H10.624C10.0713 23.8994 9.62402 24.3467 9.62402 24.8994C9.62402 25.4521 10.0713 25.8994 10.624 25.8994ZM33.7842 25.8994H39.374C39.9268 25.8994 40.374 25.4521 40.374 24.8994C40.374 24.3467 39.9268 23.8994 39.374 23.8994H33.7842C33.2315 23.8994 32.7842 24.3467 32.7842 24.8994C32.7842 25.4521 33.2315 25.8994 33.7842 25.8994Z" fill="#EDB969"/>
</svg>
