<svg width="64" height="64" viewBox="0 0 64 64" fill="none" xmlns="http://www.w3.org/2000/svg">
<path d="M32 53C27.8466 53 23.7865 51.7684 20.333 49.4609C16.8796 47.1534 14.188 43.8736 12.5985 40.0364C11.0091 36.1991 10.5932 31.9767 11.4035 27.9031C12.2138 23.8295 14.2139 20.0877 17.1508 17.1508C20.0877 14.2139 23.8295 12.2138 27.9031 11.4035C31.9767 10.5932 36.1991 11.0091 40.0364 12.5985C43.8736 14.188 47.1534 16.8796 49.4609 20.333C51.7684 23.7865 53 27.8466 53 32C52.9937 37.5676 50.7791 42.9053 46.8422 46.8422C42.9053 50.7791 37.5676 52.9937 32 53ZM32 13C28.2422 13 24.5687 14.1143 21.4442 16.2021C18.3196 18.2898 15.8844 21.2572 14.4463 24.729C13.0082 28.2008 12.632 32.0211 13.3651 35.7067C14.0982 39.3924 15.9078 42.7778 18.565 45.435C21.2222 48.0922 24.6077 49.9018 28.2933 50.6349C31.9789 51.368 35.7992 50.9918 39.271 49.5537C42.7428 48.1157 45.7102 45.6804 47.7979 42.5558C49.8857 39.4313 51 35.7579 51 32C50.9942 26.9627 48.9905 22.1333 45.4286 18.5714C41.8667 15.0095 37.0373 13.0058 32 13Z" fill="#CA1616"/>
<path d="M14.9985 55.2431C14.7793 55.2432 14.5663 55.1707 14.3925 55.0371C10.8503 52.3315 7.97963 48.8455 6.00376 44.8501C4.02788 40.8547 3 36.4574 3 32.0001C3 27.5428 4.02788 23.1455 6.00376 19.15C7.97963 15.1546 10.8503 11.6686 14.3925 8.96307C14.6038 8.81247 14.8653 8.74987 15.1218 8.78849C15.3784 8.8271 15.6099 8.9639 15.7674 9.17001C15.925 9.37611 15.9963 9.63539 15.9663 9.89308C15.9363 10.1508 15.8073 10.3867 15.6065 10.5511C12.3085 13.0701 9.63576 16.3158 7.79612 20.0359C5.95647 23.7559 4.99946 27.85 4.99946 32.0001C4.99946 36.1501 5.95647 40.2443 7.79612 43.9643C9.63576 47.6843 12.3085 50.93 15.6065 53.4491C15.7724 53.5761 15.8944 53.7519 15.9552 53.9518C16.0161 54.1517 16.0128 54.3656 15.9459 54.5636C15.8789 54.7615 15.7516 54.9335 15.5819 55.0554C15.4121 55.1772 15.2085 55.2429 14.9995 55.2431H14.9985ZM49.0005 55.2431C48.7915 55.2431 48.5877 55.1776 48.4178 55.0558C48.2479 54.934 48.1204 54.762 48.0534 54.564C47.9863 54.3661 47.9829 54.152 48.0437 53.952C48.1046 53.752 48.2265 53.5761 48.3925 53.4491C51.6906 50.93 54.3633 47.6843 56.2029 43.9643C58.0426 40.2443 58.9996 36.1501 58.9996 32.0001C58.9996 27.85 58.0426 23.7559 56.2029 20.0359C54.3633 16.3158 51.6906 13.0701 48.3925 10.5511C48.1918 10.3867 48.0628 10.1508 48.0328 9.89308C48.0027 9.63539 48.074 9.37611 48.2316 9.17001C48.3892 8.9639 48.6207 8.8271 48.8772 8.78849C49.1338 8.74987 49.3953 8.81247 49.6065 8.96307C53.1488 11.6686 56.0194 15.1546 57.9953 19.15C59.9712 23.1455 60.999 27.5428 60.999 32.0001C60.999 36.4574 59.9712 40.8547 57.9953 44.8501C56.0194 48.8455 53.1488 52.3315 49.6065 55.0371C49.4328 55.1707 49.2197 55.2432 49.0005 55.2431ZM31.9995 41.0001C31.3301 40.9872 30.6918 40.715 30.2192 40.2408C29.7465 39.7667 29.4763 39.1275 29.4655 38.4581L28.5575 18.6541C28.5442 18.1709 28.6273 17.6899 28.8019 17.2392C28.9765 16.7885 29.2392 16.3771 29.5745 16.0291C30.2203 15.3909 31.0916 15.033 31.9995 15.033C32.9074 15.033 33.7787 15.3909 34.4245 16.0291C34.7577 16.3738 35.0193 16.7812 35.194 17.2276C35.3688 17.6741 35.4532 18.1508 35.4425 18.6301V18.6541L34.5325 38.4821C34.5171 39.1476 34.2449 39.7814 33.7727 40.2508C33.3006 40.7201 32.6652 40.9886 31.9995 41.0001ZM31.9995 17.0001C31.8134 17.0008 31.6294 17.0391 31.4584 17.1126C31.2874 17.1862 31.133 17.2934 31.0045 17.4281C30.8559 17.5813 30.7396 17.7629 30.6626 17.962C30.5857 18.1611 30.5496 18.3737 30.5565 18.5871L31.4645 38.3901C31.4565 38.5414 31.508 38.69 31.6079 38.8039C31.7079 38.9179 31.8484 38.9883 31.9995 39.0001C32.1471 38.9901 32.2851 38.9234 32.3846 38.814C32.4841 38.7046 32.5375 38.5609 32.5335 38.4131L33.4435 18.5761C33.449 18.3644 33.4121 18.1538 33.335 17.9567C33.2579 17.7595 33.1421 17.5798 32.9945 17.4281C32.866 17.2934 32.7116 17.1862 32.5407 17.1126C32.3697 17.0391 32.1856 17.0008 31.9995 17.0001ZM31.9995 49.0001C31.4062 49.0001 30.8262 48.8241 30.3328 48.4945C29.8395 48.1648 29.4549 47.6963 29.2279 47.1481C29.0008 46.5999 28.9414 45.9967 29.0572 45.4148C29.1729 44.8329 29.4586 44.2983 29.8782 43.8787C30.2978 43.4592 30.8323 43.1735 31.4143 43.0577C31.9962 42.942 32.5994 43.0014 33.1476 43.2284C33.6957 43.4555 34.1643 43.84 34.4939 44.3334C34.8236 44.8267 34.9995 45.4067 34.9995 46.0001C34.9987 46.7955 34.6824 47.5581 34.12 48.1205C33.5575 48.6829 32.7949 48.9993 31.9995 49.0001ZM31.9995 45.0001C31.8017 45.0001 31.6084 45.0587 31.444 45.1686C31.2795 45.2785 31.1513 45.4347 31.0756 45.6174C31 45.8001 30.9802 46.0012 31.0187 46.1952C31.0573 46.3891 31.1526 46.5673 31.2924 46.7072C31.4323 46.847 31.6105 46.9423 31.8044 46.9809C31.9984 47.0194 32.1995 46.9996 32.3822 46.9239C32.5649 46.8483 32.7211 46.7201 32.831 46.5556C32.9409 46.3912 32.9995 46.1978 32.9995 46.0001C32.9995 45.7349 32.8942 45.4805 32.7066 45.293C32.5191 45.1054 32.2647 45.0001 31.9995 45.0001Z" fill="#CA1616"/>
</svg>
