<svg width="36" height="36" viewBox="0 0 36 36" fill="none" xmlns="http://www.w3.org/2000/svg">
<path d="M28.3226 25.9371C27.8033 25.9371 27.2833 25.8177 26.8036 25.5782C26.2462 25.2992 25.7782 24.875 25.4479 24.3506C23.8534 21.8237 23.2967 18.8793 23.846 16.0061L24.6356 11.876C25.2875 8.47023 27.7352 5.67303 31.0253 4.57593C31.505 4.41918 32.0273 4.50783 32.4227 4.81683C32.819 5.12598 33.0343 5.61303 32.9954 6.11388L31.7122 22.7984C31.625 23.9277 30.9848 24.9363 29.9983 25.4945C29.4784 25.7892 28.9013 25.9371 28.3226 25.9371ZM29.7911 8.65263C28.6631 9.61143 27.8692 10.94 27.5828 12.44L26.7932 16.5701C26.3867 18.6926 26.7983 20.8686 27.9512 22.6961C28.0252 22.8125 28.0801 22.8623 28.1461 22.8953C28.3006 22.9715 28.4347 22.9311 28.5196 22.8843C28.6045 22.8368 28.7078 22.743 28.721 22.5687L29.7911 8.65263ZM26.9999 32.9991H7.49992C7.10227 32.9991 6.72068 32.8409 6.43943 32.5596L3.43943 29.5596C2.85353 28.9737 2.85353 28.0245 3.43943 27.4385C6.61958 24.2583 11.143 22.923 15.5368 23.8665L30.3142 27.0321C30.8518 27.1478 31.2832 27.5471 31.4384 28.0743C31.5944 28.601 31.4494 29.1714 31.0604 29.5596L28.0604 32.5596C27.7792 32.8409 27.3976 32.9991 26.9999 32.9991ZM8.12108 29.9991H26.3789L26.9897 29.3883L14.9084 26.7999C12.0058 26.1767 9.03367 26.8388 6.69877 28.5768L8.12108 29.9991ZM14.9999 14.9991C14.6161 14.9991 14.2324 14.8526 13.9394 14.5596C13.3535 13.9737 13.3535 13.0245 13.9394 12.4385L15.8788 10.4991L13.9394 8.55963C13.3535 7.97373 13.3535 7.02453 13.9394 6.43848C14.5253 5.85243 15.4745 5.85258 16.0606 6.43848L19.0606 9.43848C19.6465 10.0244 19.6465 10.9736 19.0606 11.5596L16.0606 14.5596C15.7675 14.8526 15.3838 14.9991 14.9999 14.9991ZM8.99992 14.9991C8.61607 14.9991 8.23238 14.8526 7.93943 14.5596L4.93943 11.5596C4.35353 10.9737 4.35353 10.0245 4.93943 9.43848L7.93943 6.43848C8.52533 5.85258 9.47452 5.85258 10.0606 6.43848C10.6466 7.02438 10.6465 7.97358 10.0606 8.55963L8.12108 10.4991L10.0606 12.4386C10.6465 13.0245 10.6465 13.9737 10.0606 14.5598C9.76747 14.8526 9.38377 14.9991 8.99992 14.9991Z" fill="#E8E8E8"/>
</svg>
