<svg width="127" height="147" viewBox="0 0 127 147" fill="none" xmlns="http://www.w3.org/2000/svg">
<path d="M61.2201 79.7587C63.1809 80.3633 65.2719 80.0542 67.033 78.8993C68.7941 77.7443 70.0811 75.8383 70.6109 73.6003C71.1406 71.3624 70.8698 68.9759 69.8579 66.9659C68.846 64.9559 67.1759 63.487 65.2151 62.8824C63.2787 62.3651 61.2419 62.7278 59.5357 63.8938C57.8294 65.0598 56.5875 66.9376 56.0726 69.13C55.5578 71.3224 55.8104 73.6575 56.777 75.6411C57.7436 77.6247 59.3485 79.1014 61.252 79.7587H61.2201Z" fill="#E8E8E8"/>
<path d="M82.7653 146.585C82.3569 146.585 81.9485 146.585 81.489 146.585C74.469 146.293 67.4491 143.467 60.6461 138.289C50.9266 130.859 47.5634 117.261 50.8245 98.7748C50.1863 98.4252 49.6247 98.0465 49.0376 97.6094C48.0398 99.3606 47.1217 101.169 46.2871 103.028C44.0917 107.981 42.943 113.08 41.8709 117.494C40.9774 121.34 40.1861 124.661 38.9097 127.371C37.1292 131.122 34.4999 133.161 31.1303 133.452C21.7172 134.239 10.5938 126.526 4.65233 115.083C1.49444 109.03 -0.114993 102.089 0.00639268 95.0456C0.159555 87.0336 2.48252 79.0215 6.94339 71.1114C13.0699 60.2515 24.4359 56.0925 39.9563 58.9696C40.1861 58.4743 40.4414 57.9863 40.6966 57.5128C38.9206 56.0982 37.0731 54.8043 35.1636 53.6379C30.8176 50.9939 26.4142 49.5664 22.5213 48.3136C19.1773 47.2356 16.2736 46.2814 13.9251 44.7664C10.6576 42.6687 8.89621 39.6678 8.71753 35.7638C8.18146 25.0204 15.1504 12.456 25.2527 5.90074C30.6017 2.37001 36.7174 0.640171 42.892 0.91143C49.9119 1.20278 56.9319 4.02884 63.7349 9.21481C72.9948 16.2873 76.4984 29.041 73.9457 46.2523C75.1802 46.9412 76.3665 47.7375 77.494 48.634C78.5521 46.7947 79.5215 44.8909 80.3977 42.9309C82.6186 37.9198 83.7928 32.8867 84.8649 28.4291C85.7584 24.5834 86.5497 21.2693 87.8261 18.5598C89.6066 14.8014 92.2359 12.7328 95.6055 12.4706C105.019 11.684 116.142 19.4047 122.083 30.8473C125.241 36.8974 126.851 43.8364 126.729 50.8774C126.576 58.8894 124.253 66.9015 119.792 74.8115C114.917 83.4573 106.754 87.8566 95.8352 87.8566C92.3163 87.8338 88.8066 87.4437 85.35 86.6912C84.8352 87.7935 84.2552 88.8545 83.6141 89.8669C85.4383 91.323 87.3371 92.6534 89.3003 93.8511C93.6399 96.4732 98.0561 97.9008 101.93 99.1536C105.274 100.232 108.184 101.193 110.526 102.708C113.794 104.806 115.555 107.807 115.734 111.703C116.27 122.447 109.307 135.011 99.2048 141.566C94.191 144.816 88.531 146.544 82.7653 146.585ZM48.1442 86.9826C49.086 86.9768 49.996 87.3715 50.6969 88.0897C52.4132 89.8351 54.406 91.1899 56.5681 92.0811C57.457 92.4475 58.1958 93.1761 58.6423 94.1268C59.0888 95.0774 59.2115 96.183 58.9868 97.2307C55.3939 113.888 57.385 125.244 64.9346 130.976C78.9746 141.69 90.0342 137.473 95.3694 134.006C104.017 128.361 108.356 118.543 108.05 112.155C108.05 111.631 107.999 111.106 106.723 110.29C105.165 109.3 102.689 108.484 99.8047 107.552C95.7778 106.241 90.749 104.638 85.701 101.586C82.1796 99.3918 78.8184 96.8782 75.6497 94.0696C75.2206 93.687 74.8679 93.2045 74.6152 92.654C74.3624 92.1036 74.2155 91.498 74.1841 90.8776C74.1527 90.2572 74.2375 89.6363 74.433 89.0564C74.6285 88.4764 74.9302 87.9507 75.3178 87.5143C77.1709 85.4621 78.6141 82.9776 79.5489 80.2306C79.8812 79.2538 80.5099 78.4457 81.3206 77.9537C82.1312 77.4617 83.0697 77.3185 83.9651 77.5502C98.5602 81.3377 108.433 78.8613 113.321 70.1791C122.479 53.9657 118.605 41.4451 115.466 35.4142C110.36 25.6322 101.713 20.8468 96.1288 21.3276C95.6693 21.3276 95.2098 21.415 94.5206 22.8644C93.6782 24.6416 93.0145 27.4968 92.2231 30.8182C91.151 35.4433 89.7981 41.1828 87.2262 47.0025C85.5187 50.7451 83.5578 54.3299 81.3613 57.7241C81.0367 58.2356 80.6175 58.6593 80.1333 58.9652C79.6491 59.2711 79.1119 59.4516 78.5597 59.494C78.0066 59.5384 77.4515 59.447 76.9318 59.2258C76.4122 59.0047 75.9402 58.659 75.5475 58.2121C73.5546 55.906 71.1055 54.1799 68.4063 53.1791C67.4969 52.8515 66.7291 52.1447 66.256 51.1997C65.7829 50.2548 65.6392 49.141 65.8536 48.0805C68.7829 32.6245 66.645 22.0268 59.4718 16.5495C45.3936 5.74779 34.3468 9.99417 29.0116 13.4321C20.3898 19.1206 16.0566 28.9244 16.3629 35.2976C16.3629 35.8221 16.414 36.3465 17.6839 37.1623C19.2411 38.1528 21.7172 38.9686 24.6018 39.9009C28.6287 41.212 33.6575 42.8144 38.7055 45.8735C42.0642 47.9432 45.2662 50.3283 48.2782 53.0042C48.6938 53.3599 49.04 53.8104 49.2949 54.327C49.5498 54.8436 49.7078 55.4151 49.7588 56.0051C49.8123 56.5932 49.7607 57.1875 49.6071 57.7521C49.4535 58.3167 49.2012 58.8399 48.8653 59.29C47.525 61.1016 46.4653 63.1609 45.7319 65.3792C45.4101 66.3549 44.7933 67.1672 43.9928 67.6694C43.1923 68.1716 42.2609 68.3306 41.3667 68.1179C27.4863 64.8256 18.0477 67.3895 13.3316 75.8021C4.19922 92.0811 8.07296 104.602 11.2128 110.625C16.3182 120.407 24.9655 125.193 30.5496 124.719C31.0091 124.719 31.4686 124.632 32.1578 123.175C33.0002 121.398 33.6639 118.543 34.4552 115.229C35.5274 110.596 36.8803 104.864 39.4522 99.037C41.0796 95.4667 42.9398 92.041 45.0171 88.7889C45.3306 88.2958 45.7311 87.883 46.1927 87.5769C46.6542 87.2708 47.1668 87.0783 47.6974 87.0117C47.8506 87.0117 47.9974 87.0117 48.125 87.0117L48.1442 86.9826Z" fill="#E8E8E8"/>
</svg>
