<svg width="41" height="41" viewBox="0 0 41 41" fill="none" xmlns="http://www.w3.org/2000/svg">
<path d="M21.2284 18.5781H23.0625L20.5 14.0938L17.9375 18.5781H19.8453L20.8075 20.9472C21.1469 21.7819 21.2705 22.6887 21.1671 23.5838C21.0636 24.479 20.7364 25.3336 20.2156 26.069L19.7902 26.5943C19.0069 27.6831 18.5703 28.9828 18.5374 30.3237C18.5045 31.6645 18.8768 32.9842 19.6057 34.1101C19.7057 34.2442 19.8543 34.3339 20.0196 34.3599C20.1849 34.3859 20.3538 34.3463 20.4902 34.2493C20.6267 34.1524 20.7197 34.006 20.7496 33.8413C20.7794 33.6767 20.7436 33.5069 20.6499 33.3682C20.0794 32.472 19.7876 31.4266 19.8116 30.3644C19.8355 29.3023 20.1741 28.2711 20.7844 27.4015L21.2105 26.8768C21.8776 25.9639 22.2999 24.8955 22.4371 23.7732C22.5744 22.6509 22.422 21.5121 21.9946 20.4654L21.2284 18.5781ZM14.8734 18.5781H16.6562L14.0938 14.0938L11.5312 18.5781H13.4916L14.4525 20.9472C14.792 21.7819 14.9157 22.6886 14.8124 23.5837C14.7091 24.4789 14.3819 25.3336 13.8612 26.069L13.4352 26.5943C12.6519 27.6831 12.2153 28.9828 12.1824 30.3237C12.1495 31.6645 12.5218 32.9842 13.2507 34.1101C13.2994 34.1787 13.3611 34.237 13.4324 34.2818C13.5037 34.3265 13.583 34.3568 13.666 34.3709C13.7489 34.3849 13.8339 34.3825 13.9159 34.3638C13.9979 34.345 14.0754 34.3103 14.144 34.2616C14.2126 34.2129 14.271 34.1511 14.3157 34.0799C14.3605 34.0086 14.3907 33.9292 14.4048 33.8463C14.4189 33.7633 14.4165 33.6784 14.3977 33.5964C14.379 33.5144 14.3443 33.4368 14.2955 33.3682C13.725 32.472 13.4333 31.4266 13.4572 30.3644C13.4812 29.3023 13.8197 28.2711 14.4301 27.4015L14.8555 26.8768C15.5227 25.964 15.945 24.8955 16.0823 23.7732C16.2196 22.6509 16.0671 21.5121 15.6396 20.4654L14.8734 18.5781Z" fill="#E8E8E8"/>
<path d="M37.0788 12.8729C37.007 12.6222 36.8853 12.3887 36.7209 12.1864C36.5565 11.984 36.3529 11.817 36.1223 11.6954L31.1728 9.06564C27.8871 7.31692 24.2221 6.40234 20.5 6.40234C16.778 6.40234 13.1129 7.31692 9.82721 9.06564L4.88222 11.6922C4.65094 11.8143 4.44661 11.9818 4.28143 12.1846C4.11624 12.3874 3.99359 12.6213 3.92077 12.8726C3.84795 13.1238 3.82647 13.3871 3.85759 13.6468C3.88872 13.9065 3.97182 14.1572 4.10194 14.3841L10.3263 25.2959C10.5711 25.7288 10.9746 26.0496 11.4517 26.1903C11.9287 26.331 12.4418 26.2806 12.8823 26.0499C13.0332 25.9716 13.1468 25.8365 13.1981 25.6744C13.2494 25.5124 13.2342 25.3366 13.1559 25.1857C13.0776 25.0348 12.9425 24.9212 12.7804 24.8699C12.6184 24.8186 12.4426 24.8338 12.2917 24.9121C12.1448 24.9889 11.9739 25.0056 11.8149 24.9587C11.656 24.9119 11.5215 24.8051 11.4397 24.661L5.21471 13.7505C5.1696 13.6726 5.14072 13.5864 5.1298 13.497C5.11888 13.4077 5.12614 13.317 5.15116 13.2306C5.17617 13.1441 5.21842 13.0636 5.27536 12.9938C5.3323 12.9241 5.40276 12.8666 5.48249 12.8248L10.4281 10.1976C13.5289 8.54826 16.9872 7.68568 20.4994 7.68568C24.0115 7.68568 27.4699 8.54826 30.5706 10.1976L35.5201 12.8268C35.5989 12.8687 35.6684 12.926 35.7247 12.9953C35.7809 13.0646 35.8227 13.1444 35.8475 13.2301C35.8724 13.3158 35.8798 13.4056 35.8693 13.4943C35.8589 13.5829 35.8307 13.6685 35.7866 13.7461L29.5597 24.6623C29.4777 24.8062 29.3431 24.9126 29.1842 24.9593C29.0252 25.0059 28.8544 24.989 28.7077 24.9121L28.5764 24.8436C28.9771 23.3983 28.8971 21.862 28.3483 20.4662L27.5828 18.5789H29.4688L26.9063 14.0946L24.3438 18.5789H26.2003L27.1612 20.948C27.5007 21.7828 27.6245 22.6896 27.5211 23.5848C27.4178 24.4801 27.0907 25.3349 26.5699 26.0704L26.1446 26.5951C25.3614 27.6839 24.9248 28.9836 24.8919 30.3245C24.859 31.6653 25.2312 32.9849 25.9601 34.1109C26.0601 34.245 26.2087 34.3347 26.374 34.3607C26.5393 34.3867 26.7082 34.3471 26.8446 34.2501C26.981 34.1532 27.0741 34.0068 27.104 33.8421C27.1338 33.6775 27.098 33.5077 27.0043 33.369C26.4339 32.4726 26.1422 31.4271 26.1661 30.3649C26.1901 29.3027 26.5286 28.2714 27.1388 27.4016L27.5648 26.8776C27.7705 26.6168 27.9503 26.3366 28.1017 26.0409L28.1171 26.0486C28.5574 26.28 29.0705 26.3308 29.5476 26.1903C30.0248 26.0497 30.4285 25.729 30.6731 25.2959L36.9 14.3803C37.03 14.1541 37.1128 13.9039 37.1436 13.6449C37.1743 13.3858 37.1522 13.1232 37.0788 12.8729Z" fill="#E8E8E8"/>
</svg>
