<svg width="53" height="53" viewBox="0 0 53 53" fill="none" xmlns="http://www.w3.org/2000/svg">
<path d="M26.4997 28.7077C25.914 28.7077 25.3523 28.9403 24.9381 29.3545C24.524 29.7686 24.2913 30.3303 24.2913 30.916V37.541C24.2913 38.1267 24.524 38.6884 24.9381 39.1025C25.3523 39.5167 25.914 39.7494 26.4997 39.7494C27.0854 39.7494 27.6471 39.5167 28.0612 39.1025C28.4753 38.6884 28.708 38.1267 28.708 37.541V30.916C28.708 30.3303 28.4753 29.7686 28.0612 29.3545C27.6471 28.9403 27.0854 28.7077 26.4997 28.7077ZM37.5413 19.8744V15.4577C37.5413 12.5293 36.378 9.72076 34.3073 7.65005C32.2366 5.57933 29.4281 4.41602 26.4997 4.41602C23.5712 4.41602 20.7628 5.57933 18.692 7.65005C16.6213 9.72076 15.458 12.5293 15.458 15.4577V19.8744C13.7009 19.8744 12.0159 20.5723 10.7734 21.8148C9.531 23.0572 8.83301 24.7423 8.83301 26.4994V41.9577C8.83301 43.7147 9.531 45.3998 10.7734 46.6423C12.0159 47.8847 13.7009 48.5827 15.458 48.5827H37.5413C39.2984 48.5827 40.9835 47.8847 42.2259 46.6423C43.4684 45.3998 44.1663 43.7147 44.1663 41.9577V26.4994C44.1663 24.7423 43.4684 23.0572 42.2259 21.8148C40.9835 20.5723 39.2984 19.8744 37.5413 19.8744ZM19.8747 15.4577C19.8747 13.7006 20.5727 12.0155 21.8151 10.7731C23.0575 9.53067 24.7426 8.83268 26.4997 8.83268C28.2567 8.83268 29.9418 9.53067 31.1843 10.7731C32.4267 12.0155 33.1247 13.7006 33.1247 15.4577V19.8744H19.8747V15.4577ZM39.7497 41.9577C39.7497 42.5434 39.517 43.1051 39.1029 43.5192C38.6887 43.9334 38.127 44.166 37.5413 44.166H15.458C14.8723 44.166 14.3106 43.9334 13.8965 43.5192C13.4823 43.1051 13.2497 42.5434 13.2497 41.9577V26.4994C13.2497 25.9137 13.4823 25.352 13.8965 24.9378C14.3106 24.5237 14.8723 24.291 15.458 24.291H37.5413C38.127 24.291 38.6887 24.5237 39.1029 24.9378C39.517 25.352 39.7497 25.9137 39.7497 26.4994V41.9577Z" fill="#E8E8E8"/>
</svg>
