<svg width="50" height="50" viewBox="0 0 50 50" fill="none" xmlns="http://www.w3.org/2000/svg">
<path d="M22.6562 7.8125V9.375H24.2188V10.9375H23.4375C23.2303 10.9375 23.0316 11.0198 22.8851 11.1663C22.7386 11.3128 22.6562 11.5115 22.6562 11.7188V14.0625H21.875C21.76 14.0627 21.6464 14.0883 21.5424 14.1374C21.4384 14.1866 21.3466 14.2581 21.2734 14.3469L17.3672 19.0344C17.2514 19.1741 17.1879 19.3498 17.1875 19.5312V47.6562C17.1875 47.8635 17.2698 48.0622 17.4163 48.2087C17.5628 48.3552 17.7615 48.4375 17.9688 48.4375H32.0312C32.2385 48.4375 32.4372 48.3552 32.5837 48.2087C32.7302 48.0622 32.8125 47.8635 32.8125 47.6562V19.5312C32.8121 19.3498 32.7486 19.1741 32.6328 19.0344L28.7266 14.3469C28.6534 14.2581 28.5616 14.1866 28.4576 14.1374C28.3536 14.0883 28.24 14.0627 28.125 14.0625H27.3438V11.7188C27.3438 11.5115 27.2614 11.3128 27.1149 11.1663C26.9684 11.0198 26.7697 10.9375 26.5625 10.9375H25.7812V9.375H27.3438V7.8125H22.6562ZM24.2188 12.5H25.7812V14.0625H24.2188V12.5ZM22.2406 15.625H27.7594L31.25 19.8156V46.875H18.75V19.8156L22.2406 15.625ZM22.6562 26.5625C22.4805 26.5627 22.3099 26.6222 22.1721 26.7314C22.0343 26.8405 21.9373 26.993 21.8969 27.1641L20.3344 33.725C20.3067 33.8398 20.3055 33.9595 20.3308 34.0749C20.356 34.1903 20.4071 34.2984 20.4802 34.3912C20.5533 34.484 20.6465 34.559 20.7528 34.6106C20.859 34.6622 20.9756 34.689 21.0938 34.6891H23.1109L21.9203 38.0188C21.8601 38.1872 21.8596 38.3712 21.9188 38.54C21.9779 38.7088 22.0932 38.8522 22.2454 38.9462C22.3976 39.0402 22.5774 39.0792 22.7549 39.0565C22.9323 39.0339 23.0966 38.9511 23.2203 38.8219L29.4703 32.2594C29.5757 32.1488 29.6464 32.0097 29.6736 31.8593C29.7008 31.7089 29.6833 31.5539 29.6233 31.4134C29.5632 31.2729 29.4633 31.153 29.3359 31.0687C29.2084 30.9844 29.0591 30.9393 28.9062 30.9391H26.8891L28.0797 27.6094C28.1224 27.4913 28.136 27.3647 28.1193 27.2402C28.1027 27.1158 28.0563 26.9972 27.9841 26.8945C27.9119 26.7917 27.816 26.7079 27.7045 26.6502C27.5931 26.5924 27.4693 26.5623 27.3438 26.5625H22.6562ZM23.2734 28.125H26.2359L25.0453 31.4578C25.0033 31.5757 24.9901 31.702 25.0071 31.826C25.024 31.9501 25.0705 32.0682 25.1426 32.1705C25.2148 32.2728 25.3104 32.3563 25.4216 32.4139C25.5327 32.4715 25.6561 32.5016 25.7812 32.5016H27.0844L24.6312 35.0766L24.9547 34.1703C24.9967 34.0524 25.0099 33.9261 24.9929 33.8021C24.976 33.6781 24.9295 33.5599 24.8574 33.4576C24.7852 33.3553 24.6896 33.2718 24.5784 33.2142C24.4673 33.1566 24.3439 33.1265 24.2188 33.1266H22.0828L23.2734 28.125Z" fill="#E8E8E8"/>
<path d="M32.4842 3.50977V3.51289C32.3358 3.50735 32.1889 3.54421 32.0607 3.61914L29.3936 5.16133C28.4342 5.66602 29.2576 7.09102 30.1748 6.51289L32.842 4.97539C33.5389 4.58945 33.2795 3.53164 32.4842 3.50977ZM30.4404 7.80039C29.3982 7.85351 29.4779 9.41601 30.5186 9.36289H33.5967C34.6514 9.37851 34.6514 7.78476 33.5967 7.80039H30.5186C30.4925 7.79909 30.4665 7.79909 30.4404 7.80039ZM29.7264 10.5379C28.942 10.5816 28.7061 11.6254 29.3936 12.0035L32.0607 13.541C32.9764 14.1191 33.8014 12.6941 32.842 12.1895L30.1748 10.6473C30.0398 10.5665 29.8835 10.5284 29.7264 10.5379Z" fill="#E8E8E8"/>
</svg>
