<svg width="23" height="23" viewBox="0 0 23 23" fill="none" xmlns="http://www.w3.org/2000/svg">
<g clip-path="url(#clip0_154_59)">
<path d="M18 1L22 5L18 9" stroke="#1B658E" stroke-width="2" stroke-linecap="round" stroke-linejoin="round"/>
<path d="M14 5H22" stroke="#1B658E" stroke-width="2" stroke-linecap="round" stroke-linejoin="round"/>
<path fill-rule="evenodd" clip-rule="evenodd" d="M21.0004 16.9201V19.9201C21.0016 20.1986 20.9445 20.4743 20.8329 20.7294C20.7214 20.9846 20.5577 21.2137 20.3525 21.402C20.1473 21.5902 19.905 21.7336 19.6412 21.8228C19.3773 21.912 19.0978 21.9452 18.8204 21.9201C15.7433 21.5857 12.7874 20.5342 10.1904 18.8501C7.77425 17.3148 5.72576 15.2663 4.19042 12.8501C2.5004 10.2413 1.44866 7.27109 1.12042 4.1801C1.09543 3.90356 1.1283 3.62486 1.21692 3.36172C1.30555 3.09859 1.44799 2.85679 1.63519 2.65172C1.82238 2.44665 2.05023 2.28281 2.30421 2.17062C2.5582 2.05843 2.83276 2.00036 3.11042 2.0001H6.11042C6.59573 1.99532 7.06621 2.16718 7.43418 2.48363C7.80215 2.80008 8.0425 3.23954 8.11042 3.7201C8.23742 4.6801 8.47142 5.6231 8.81042 6.5301C8.94496 6.88802 8.97408 7.27701 8.89433 7.65098C8.81457 8.02494 8.62929 8.36821 8.36042 8.6401L7.09042 9.9101C8.51398 12.4136 10.5869 14.4865 13.0904 15.9101L14.3604 14.6401C14.6323 14.3712 14.9756 14.1859 15.3495 14.1062C15.7235 14.0264 16.1125 14.0556 16.4704 14.1901C17.3774 14.5291 18.3204 14.7631 19.2804 14.8901C19.7662 14.9586 20.2098 15.2033 20.527 15.5776C20.8441 15.9519 21.0126 16.4297 21.0004 16.9201Z" stroke="#E8E8E8" stroke-width="2" stroke-linecap="round" stroke-linejoin="round"/>
</g>
<defs>
<clipPath id="clip0_154_59">
<rect width="23" height="23" fill="white"/>
</clipPath>
</defs>
</svg>
